<ttFont>
<head>
    <!-- Most of this table will be recalculated by the compiler -->
    <tableVersion value="1.0"/>
    <fontRevision value="1.0"/>
    <checkSumAdjustment value="0xaa877b25"/>
    <magicNumber value="0x5f0f3cf5"/>
    <flags value="00000000 00000011"/>
    <unitsPerEm value="2048"/>
    <created value="Thu Aug 15 19:15:05 2019"/>
    <modified value="Fri Aug 16 02:19:06 2019"/>
    <xMin value="-450"/>
    <yMin value="-534"/>
    <xMax value="3360"/>
    <yMax value="1990"/>
<macStyle value="00000000 00000010"/>
    <lowestRecPPEM value="3"/>
    <fontDirectionHint value="2"/>
    <indexToLocFormat value="0"/>
    <glyphDataFormat value="0"/>
  </head>
          <CharString index="0">
            rmoveto
            -411 -49 -12 -58 return
          </CharString>
          <CharString index="1">
            159 146 121 95 175 return
          </CharString>
          <CharString index="2">
            61 vhcurveto
            -2 -7 -11 -57 -6 vvcurveto
            -131 -21 53 -65 112 hhcurveto
            return
          </CharString>
          <CharString index="3">
            rmoveto
            -230 115 -136 return
          </CharString>
          <CharString index="4">
            rmoveto
            466 314 384 return
          </CharString>
          <CharString index="5">
            -218 -46 84 -135 196 hhcurveto
            153 137 99 181 73 hvcurveto
            -1 -6 return
          </CharString>
          <CharString index="6">
            105 109 49 67 51 hvcurveto
            -32 callsubr
            24 callsubr
            endchar
          </CharString>
          <CharString index="7">
            449 31 callsubr
            137 callsubr
            endchar
          </CharString>
          <CharString index="8">
            -14 -68 -6 vvcurveto
            -131 -21 54 -65 113 hhcurveto
            return
          </CharString>
          <CharString index="9">
            rmoveto
            -38 callsubr
            28 callsubr
            endchar
          </CharString>
          <CharString index="10">
            rmoveto
            339 218 271 317 259 99 callsubr
            62 callsubr
            hvcurveto
            5 77 rmoveto
            -98 -57 89 179 1 hvcurveto
            29 callsubr
            endchar
          </CharString>
          <CharString index="11">
            rmoveto
            -69 -55 -54 -67 -64 49 -50 return
          </CharString>
          <CharString index="12">
            -229 -1072 -19 -91 -22 -19 -129 -17 rlinecurve
            return
          </CharString>
          <CharString index="13">
            122 -15 14 -21 -19 -91 rlinecurve
            return
          </CharString>
          <CharString index="14">
            rmoveto
            -1041 hlineto
            -53 callsubr
            1090 -30 callsubr
            endchar
          </CharString>
          <CharString index="15">
            65 -14 rlineto
            49 -14 10 -19 -11 -53 -99 -466 rcurveline
            return
          </CharString>
          <CharString index="16">
            25 callsubr
            endchar
          </CharString>
          <CharString index="17">
            rmoveto
            335 212 217 352 79 hvcurveto
            143 635 35 153 23 32 127 21 rlinecurve
            13 59 -399 0 -103 callgsubr
            202 callsubr
            endchar
          </CharString>
          <CharString index="18">
            -12 callsubr
            endchar
          </CharString>
          <CharString index="19">
            -89 callgsubr
            endchar
          </CharString>
          <CharString index="20">
            23 19 129 17 rlinecurve
            12 59 -576 0 -13 -59 return
          </CharString>
          <CharString index="21">
            -170 -799 266 0 return
          </CharString>
          <CharString index="22">
            rmoveto
            228 1072 19 91 return
          </CharString>
          <CharString index="23">
            64 -14 rlineto
            50 -14 10 -19 -11 -53 -124 return
          </CharString>
          <CharString index="24">
            27 callsubr
            endchar
          </CharString>
          <CharString index="25">
            1827 rmoveto
            -201 -285 return
          </CharString>
          <CharString index="26">
            65 0 396 278 rlineto
            7 vlineto
            return
          </CharString>
          <CharString index="27">
            rmoveto
            -408 hlineto
            -12 -59 117 -16 20 -48 -24 -108 rlinecurve
            -207 -939 -35 -161 -26 -35 -126 -18 rlinecurve
            -13 -60 402 0 12 60 -134 19 -12 31 31 165 rlinecurve
            184 935 549 -1210 198 0 258 1177 34 154 25 return
          </CharString>
          <CharString index="28">
            1542 rmoveto
            232 145 return
          </CharString>
          <CharString index="29">
            1491 222 callsubr
            return
          </CharString>
          <CharString index="30">
            rmoveto
            -366 -48 -12 -58 57 -11 53 -14 13 -17 6 -53 rlinecurve
            88 -895 -119 -113 -194 -149 -135 -92 rlinecurve
            -16 268 vlineto
            88 119 84 107 84 105 62 73 64 79 55 71 289 372 135 257 -1 145 rrcurveto
            89 -1 -61 58 -82 hhcurveto
            -79 -62 -58 -79 1 hvcurveto
            1 -75 60 -59 75 1 12 0 12 1 10 3 -45 -165 -120 -196 -183 -240 rrcurveto
            endchar
          </CharString>
          <CharString index="31">
            rmoveto
            530 hlineto
            29 138 rlineto
            -530 hlineto
            endchar
          </CharString>
          <CharString index="32">
            195 callsubr
            endchar
          </CharString>
          <CharString index="33">
            1845 rmoveto
            -230 -146 -162 164 callsubr
            return
          </CharString>
          <CharString index="34">
            -402 -49 -13 -58 65 -14 49 -14 10 -19 -11 -53 rlinecurve
            return
          </CharString>
          <CharString index="35">
            rmoveto
            75 60 57 72 -1 hvcurveto
            67 -54 52 -72 -75 return
          </CharString>
          <CharString index="36">
            163 -145 63 0 -127 285 return
          </CharString>
          <CharString index="37">
            1827 223 callsubr
            return
          </CharString>
          <CharString index="38">
            -153 0 -245 -285 rlineto
            return
          </CharString>
          <CharString index="39">
            rmoveto
            185 -534 -99 -467 return
          </CharString>
          <CharString index="40">
            1218 rmoveto
            570 hlineto
            return
          </CharString>
          <CharString index="41">
            43 -57 hhcurveto
            -10 hlineto
            -57 return
          </CharString>
          <CharString index="42">
            -411 -43 -13 -57 65 -14 50 -15 10 -19 -11 -53 rlinecurve
            -274 -1286 return
          </CharString>
          <CharString index="43">
            -321 42 -74 callgsubr
            40 callgsubr
            return
          </CharString>
          <CharString index="44">
            43 -57 hhcurveto
            -9 hlineto
            -58 -54 -32 callgsubr
            return
          </CharString>
          <CharString index="45">
            -60 -57 -72 vhcurveto
            -67 1 54 -52 72 hhcurveto
            endchar
          </CharString>
          <CharString index="46">
            55 50 35 49 10 hvcurveto
            48 11 -35 35 return
          </CharString>
          <CharString index="47">
            1567 rmoveto
            68 56 54 67 63 return
          </CharString>
          <CharString index="48">
            1120 rmoveto
            262 197 return
          </CharString>
          <CharString index="49">
            rmoveto
            274 236 125 202 143 -93 97 -206 38 hvcurveto
            -178 34 rlineto
            -91 17 -27 29 36 vvcurveto
            -1 37 33 32 62 15 rrcurveto
            -7 35 38 -4 41 hhcurveto
            281 -1 164 167 202 vvcurveto
            76 -25 71 -54 55 vhcurveto
            229 -26 20 98 -330 -14 rlineto
            31 -60 -77 18 -97 hhcurveto
            -279 -166 -160 -205 -126 74 -112 148 -48 hvcurveto
            -165 -32 -79 -75 1 -96 rrcurveto
            -74 47 -61 97 -33 vhcurveto
            -200 -28 -117 -79 -107 vvcurveto
            -147 197 -88 268 vhcurveto
            -14 1059 rmoveto
            161 67 185 124 91 45 -82 -116 -163 -68 -184 -124 -90 -45 83 116 vhcurveto
            -245 -802 rmoveto
            83 59 60 115 32 vhcurveto
            2 1 0 -1 1 hvcurveto
            174 -31 rlineto
            144 -27 49 -50 -74 vvcurveto
            -105 -118 -71 -159 -161 -107 77 107 vhcurveto
            endchar
          </CharString>
          <CharString index="50">
            rmoveto
            445 232 365 316 202 119 -127 -266 8 vhcurveto
            53 -3 61 342 rlineto
            70 -91 -185 68 -218 hhcurveto
            -472 -336 -331 -487 -3 hvcurveto
            return
          </CharString>
          <CharString index="51">
            172 -197 70 0 -129 -39 callgsubr
            return
          </CharString>
          <CharString index="52">
            1171 rmoveto
            81 65 63 80 74 -58 58 -77 -81 -65 -63 -80 -74 58 -58 77 hvcurveto
            return
          </CharString>
          <CharString index="53">
            rmoveto
            305 102 261 -102 13 62 -220 197 -43 0 -302 -197 rlineto
            return
          </CharString>
          <CharString index="54">
            -12 -59 121 -17 15 -19 -19 -91 rlinecurve
            -95 callsubr
            -13 -59 return
          </CharString>
          <CharString index="55">
            1490 rmoveto
            -273 -9 hlineto
            298 -363 rlineto
            68 hlineto
            return
          </CharString>
          <CharString index="56">
            267 0 128 606 rlineto
            167 96 callsubr
            return
          </CharString>
          <CharString index="57">
            hvcurveto
            -11 -50 rlineto
            6 15 28 4 117 callsubr
            return
          </CharString>
          <CharString index="58">
            rmoveto
            177 138 82 130 20 hvcurveto
            -67 hlineto
            -54 return
          </CharString>
          <CharString index="59">
            734 1487 77 callsubr
            return
          </CharString>
          <CharString index="60">
            -64 -142 hhcurveto
            -114 -78 61 84 10 return
          </CharString>
          <CharString index="61">
            178 346 -104 callsubr
            return
          </CharString>
          <CharString index="62">
            167 -44 0 -302 -167 rlineto
            return
          </CharString>
          <CharString index="63">
            77 0 450 363 rlineto
            9 vlineto
            return
          </CharString>
          <CharString index="64">
            1491 rmoveto
            -232 -372 return
          </CharString>
          <CharString index="65">
            33 154 rlineto
            -570 hlineto
            return
          </CharString>
          <CharString index="66">
            -55 hhcurveto
            -9 hlineto
            -55 -50 -35 return
          </CharString>
          <CharString index="67">
            -63 -52 -50 -64 -59 45 -46 return
          </CharString>
          <CharString index="68">
            rmoveto
            -438 -3 317 -238 354 hhcurveto
            173 194 49 80 106 hvcurveto
            87 403 18 86 21 23 116 15 rlinecurve
            13 59 -538 0 -13 -59 rlineto
            132 -17 11 -20 -18 -86 -83 -401 rcurveline
            -32 -41 -76 -16 -73 hhcurveto
            -227 -156 197 319 445 232 365 319 203 119 -127 -266 8 -4 callgsubr
            endchar
          </CharString>
          <CharString index="69">
            -153 1186 -190 0 -648 -1165 -100 -179 -35 -30 -109 -16 rlinecurve
            -13 -59 411 0 13 59 -137 21 -16 34 88 167 rlinecurve
            114 215 448 0 25 -231 return
          </CharString>
          <CharString index="70">
            1179 rmoveto
            76 61 60 74 71 -54 54 -73 -101 callgsubr
            417 hmoveto
            -6 callsubr
            return
          </CharString>
          <CharString index="71">
            1315 1557 1444 rmoveto
            -1187 hlineto
            32 callsubr
            95 callsubr
            100 callsubr
            88 callsubr
            return
          </CharString>
          <CharString index="72">
            rmoveto
            75 59 57 72 hvcurveto
            67 -1 -53 52 -72 hhcurveto
            -75 -61 -57 -72 1 hvcurveto
            -67 54 -52 73 vhcurveto
            endchar
          </CharString>
          <CharString index="73">
            1171 rmoveto
            81 64 63 80 74 -57 58 -78 -80 -66 -63 -80 -74 58 -58 78 hvcurveto
            return
          </CharString>
          <CharString index="74">
            109 440 rlineto
            -54 hlineto
            -118 -277 -108 -76 -231 -11 rrcurveto
            -183 -7 return
          </CharString>
          <CharString index="75">
            12 61 rlineto
            -26 -30 -44 -13 -34 hhcurveto
            -47 -19 31 66 13 hvcurveto
            return
          </CharString>
          <CharString index="76">
            1500 rmoveto
            -96 -79 -43 -67 -44 hvcurveto
            -11 -53 rlineto
            25 return
          </CharString>
          <CharString index="77">
            0 149 callsubr
            107 -3 20 213 callsubr
            return
          </CharString>
          <CharString index="78">
            rmoveto
            -367 -93 callgsubr
            183 callsubr
            endchar
          </CharString>
          <CharString index="79">
            1120 rmoveto
            263 197 171 -197 70 0 return
          </CharString>
          <CharString index="80">
            1567 rmoveto
            68 55 54 67 63 -49 50 return
          </CharString>
          <CharString index="81">
            1146 rmoveto
            194 -68 callgsubr
            return
          </CharString>
          <CharString index="82">
            66 69 55 54 68 63 -49 50 -66 hvcurveto
            endchar
          </CharString>
          <CharString index="83">
            1593 824 26 callsubr
            return
          </CharString>
          <CharString index="84">
            -48 -11 hvcurveto
            -49 -10 35 -35 55 hhcurveto
            return
          </CharString>
          <CharString index="85">
            -56 -54 -68 -63 50 -49 66 hvcurveto
            return
          </CharString>
          <CharString index="86">
            -69 -66 -84 -78 61 -61 81 hvcurveto
            return
          </CharString>
          <CharString index="87">
            rmoveto
            76 59 57 72 hvcurveto
            67 -1 return
          </CharString>
          <CharString index="88">
            1615 rmoveto
            514 hlineto
            return
          </CharString>
          <CharString index="89">
            186 rmoveto
            109 515 return
          </CharString>
          <CharString index="90">
            rmoveto
            111 522 121 -1 264 -707 360 0 12 56 -61 23 -37 41 -82 213 rlinecurve
            -217 580 280 252 167 148 70 50 116 22 rlinecurve
            12 59 -443 0 -12 -59 133 -16 2 -48 -123 -122 rlinecurve
            -427 -419 -120 -1 102 479 19 91 23 20 119 16 rlinecurve
            13 59 -568 0 -12 -59 122 -17 13 -19 -19 -91 rlinecurve
            -228 -1072 -19 -91 -22 -19 -129 -17 rlinecurve
            -12 -59 567 0 13 59 -113 16 -15 20 20 91 rlinecurve
            endchar
          </CharString>
          <CharString index="91">
            rmoveto
            113 -1186 181 0 571 1125 90 -1125 186 0 597 1161 96 187 41 26 108 16 rlinecurve
            13 59 -406 0 -13 -59 131 -17 10 -36 -81 -171 rlinecurve
            -425 -883 -59 900 -11 160 17 28 130 19 rlinecurve
            12 59 -563 0 -13 -59 128 -19 10 -45 -74 -154 rlinecurve
            -425 -889 -63 901 -10 149 21 39 134 18 rlinecurve
            13 59 -587 0 -13 -59 93 -14 33 -28 15 -162 rlinecurve
            endchar
          </CharString>
          <CharString index="92">
            599 0 -110 -515 -19 -91 -24 -20 -123 -16 -92 callgsubr
            -120 16 -17 21 20 92 rlinecurve
            227 1068 20 91 24 22 128 16 rlinecurve
            13 59 -574 0 -12 -59 116 -16 16 -19 -20 -92 rlinecurve
            -102 -482 -599 0 103 482 19 91 25 20 122 16 rlinecurve
            13 59 -573 0 -13 -59 121 -17 16 -21 -19 -91 rlinecurve
            -228 -1068 -20 -91 -23 -21 -129 -17 rlinecurve
            -12 -59 return
          </CharString>
          <CharString index="93">
            252 1189 19 91 24 19 135 17 rlinecurve
            12 59 -583 0 -12 -59 rlineto
            120 -16 15 -23 -21 -99 -226 -1061 rcurveline
            -19 -90 -22 -20 -129 -17 -13 -59 rcurveline
            return
          </CharString>
          <CharString index="94">
            102 410 rlineto
            -54 hlineto
            -112 -267 -111 -53 -291 -12 rrcurveto
            -252 -9 997 1319 12 -37 callgsubr
            21 callgsubr
            endchar
          </CharString>
          <CharString index="95">
            102 111 49 67 50 hvcurveto
            13 61 rlineto
            -26 -31 -44 -13 -33 hhcurveto
            -48 -19 31 66 13 hvcurveto
            169 787 6 callgsubr
            return
          </CharString>
          <CharString index="96">
            1184 627 1006 -107 callsubr
            -92 callsubr
            return
          </CharString>
          <CharString index="97">
            rmoveto
            147 136 66 93 65 hvcurveto
            13 63 rlineto
            132 callsubr
            -282 185 -143 207 hvcurveto
            endchar
          </CharString>
          <CharString index="98">
            345 hmoveto
            57 54 14 callsubr
            return
          </CharString>
          <CharString index="99">
            rmoveto
            -400 -1 callsubr
            -86 callsubr
            140 callsubr
            endchar
          </CharString>
          <CharString index="100">
            -443 -4 308 -233 356 hhcurveto
            178 144 callsubr
          </CharString>
          <CharString index="101">
            76 60 60 74 71 -54 54 -72 -76 -62 -60 -75 -69 55 -55 73 hvcurveto
            return
          </CharString>
          <CharString index="102">
            1159 1087 hmoveto
            -33 callsubr
            -14 callsubr
            return
          </CharString>
          <CharString index="103">
            682 525 186 -85 callsubr
            -87 callsubr
            return
          </CharString>
          <CharString index="104">
            1826 rmoveto
            -239 -7 hlineto
            276 -279 rlineto
            56 hlineto
            return
          </CharString>
          <CharString index="105">
            6 hvcurveto
            -59 hlineto
            -95 -18 -75 -57 -98 callgsubr
            0 return
          </CharString>
          <CharString index="106">
            -49 -12 -58 64 -14 50 -14 10 -19 -11 -53 rlinecurve
            return
          </CharString>
          <CharString index="107">
            1576 rmoveto
            177 103 122 184 return
          </CharString>
          <CharString index="108">
            -54 -43 -57 -13 hvcurveto
            -57 -12 37 -42 57 hhcurveto
            return
          </CharString>
          <CharString index="109">
            63 51 49 callsubr
            -1 hvcurveto
            -59 return
          </CharString>
          <CharString index="110">
            -10 -53 rlineto
            2 3 21 2 7 hhcurveto
            67 return
          </CharString>
          <CharString index="111">
            -464 rmoveto
            152 94 76 108 return
          </CharString>
          <CharString index="112">
            91 0 305 369 rlineto
            9 vlineto
            return
          </CharString>
          <CharString index="113">
            36 127 18 10 callgsubr
            return
          </CharString>
          <CharString index="114">
            -34 50 130 -1 hvcurveto
            242 -1 return
          </CharString>
          <CharString index="115">
            rmoveto
            308 86 61 callgsubr
            return
          </CharString>
          <CharString index="116">
            rmoveto
            85 68 67 83 79 -61 60 -81 return
          </CharString>
          <CharString index="117">
            1517 rmoveto
            -135 -378 return
          </CharString>
          <CharString index="118">
            15 27 -34 hvcurveto
            -33 26 rlineto
            36 return
          </CharString>
          <CharString index="119">
            11 2 7 hvcurveto
            -64 hlineto
            -12 -30 return
          </CharString>
          <CharString index="120">
            96 -158 rmoveto
            -411 -49 return
          </CharString>
          <CharString index="121">
            42 57 12 hvcurveto
            57 12 -36 return
          </CharString>
          <CharString index="122">
            29 134 rlineto
            -514 hlineto
            return
          </CharString>
          <CharString index="123">
            -12 -58 -84 callsubr
            return
          </CharString>
          <CharString index="124">
            -65 -69 -22 callsubr
            return
          </CharString>
          <CharString index="125">
            rmoveto
            -148 -179 -49 -30 -113 -17 rrcurveto
            -13 -59 421 0 12 59 -134 22 0 36 117 153 rlinecurve
            277 359 152 -395 44 -113 -13 -38 -133 -23 rlinecurve
            -12 -59 596 0 12 59 -86 25 -33 25 -49 129 rlinecurve
            -201 525 334 400 144 173 49 31 113 17 rlinecurve
            13 59 -420 0 -13 -59 135 -22 1 -35 -118 -154 rlinecurve
            -264 -343 -146 380 -46 119 16 34 132 21 rlinecurve
            12 59 -599 0 -13 -59 rlineto
            92 -23 31 -28 49 -129 195 -508 rcurveline
            endchar
          </CharString>
          <CharString index="126">
            333 hlineto
            12 56 rlineto
            -65 20 -36 45 -76 202 -133 364 rcurveline
            211 59 154 124 209 vvcurveto
            231 -192 134 -355 vhcurveto
            -535 hlineto
            -12 -59 122 -16 15 -19 -19 -91 rlinecurve
            -229 -1074 -20 -91 -22 -19 -129 -16 rlinecurve
            -13 -59 570 0 12 59 rlineto
            -114 16 -13 19 19 92 97 459 rcurveline
            119 hlineto
            22 22 0 1 22 hvcurveto
            338 434 rmoveto
            -215 -150 -139 -260 -9 vhcurveto
            -98 -4 141 661 86 -2 rlineto
            179 -7 102 -108 -177 vvcurveto
            return
          </CharString>
          <CharString index="127">
            rmoveto
            -382 -1 253 -274 396 hhcurveto
            466 314 383 449 263 -121 208 -199 106 hvcurveto
            -6 38 42 -4 46 hhcurveto
            178 148 74 143 88 -54 78 -73 39 hvcurveto
            -56 hlineto
            8 -17 4 -28 -29 vvcurveto
            -152 -106 -131 -184 vhcurveto
            -109 -73 24 -136 hhcurveto
            -466 -313 -383 -449 -2 hvcurveto
            308 -106 rmoveto
            404 194 451 300 63 callsubr
            -99 callgsubr
            -193 -125 157 311 vhcurveto
            endchar
          </CharString>
          <CharString index="128">
            12 59 rlineto
            -140 16 -15 27 18 86 81 380 rcurveline
            142 hlineto
            384 315 152 318 238 -172 168 -393 hvcurveto
            -525 hlineto
            -12 -59 rlineto
            122 -16 15 -22 -19 -89 -228 -1072 rcurveline
            -20 -89 -23 -22 -130 -16 -12 -59 rcurveline
            727 1375 rmoveto
            79 -3 rlineto
            188 -8 102 -116 -185 vvcurveto
            -257 -168 -156 -264 -10 vhcurveto
            -94 -3 rlineto
            endchar
          </CharString>
          <CharString index="129">
            rmoveto
            -444 hlineto
            -12 -59 116 -18 17 -37 -28 -115 rlinecurve
            -228 -948 -38 -153 -28 -35 -130 -20 rlinecurve
            -12 -59 402 0 13 59 -130 20 -11 32 34 156 rlinecurve
            207 962 181 -1229 137 0 179 341 501 899 -195 -1057 -16 -88 -23 -19 -130 -17 rlinecurve
            -13 -59 573 0 13 59 -21 callgsubr
            endchar
          </CharString>
          <CharString index="130">
            rmoveto
            -412 -49 -12 -58 65 -14 rlineto
            49 -14 10 -19 -11 -53 -98 -467 rcurveline
            -217 -46 83 -135 197 hhcurveto
            152 137 98 181 73 hvcurveto
            -1 -6 -14 -65 -6 vvcurveto
            -131 -21 54 -66 112 hhcurveto
            100 113 47 62 53 hvcurveto
            13 61 rlineto
            -26 -33 -46 -12 -32 hhcurveto
            -46 -21 31 66 14 hvcurveto
            189 callsubr
            endchar
          </CharString>
          <CharString index="131">
            167 775 -149 0 -115 -102 rlineto
            62 -26 -76 59 -132 56 callgsubr
            101 338 205 -2 callgsubr
            return
          </CharString>
          <CharString index="132">
            rmoveto
            147 134 65 94 67 hvcurveto
            12 63 rlineto
            139 callsubr
            -279 182 -144 207 vhcurveto
            145 959 rmoveto
            65 29 -41 -70 -138 -117 -122 -187 -59 hvcurveto
            -48 -15 rlineto
            239 14 101 206 143 hhcurveto
            return
          </CharString>
          <CharString index="133">
            rmoveto
            382 -289 238 -447 vhcurveto
            -497 111 callsubr
            -228 -1072 rcurveline
            -20 -91 -22 -19 -129 -17 -12 -59 rcurveline
            524 hlineto
            578 438 328 496 hvcurveto
            return
          </CharString>
          <CharString index="134">
            -580 rcurveline
            -161 -35 57 -74 127 hhcurveto
            105 110 49 67 51 hvcurveto
            12 61 rlineto
            -26 -30 -44 -13 -33 hhcurveto
            -48 -19 31 66 14 hvcurveto
            return
          </CharString>
          <CharString index="135">
            16 -146 -28 -41 -138 -19 rlinecurve
            -12 -59 598 0 -35 callgsubr
            -734 312 rmoveto
            330 625 68 -625 rlineto
            return
          </CharString>
          <CharString index="136">
            259 1 94 352 185 hhcurveto
            98 57 -88 -180 -1 hvcurveto
            -258 -1 -94 -353 -185 hhcurveto
            return
          </CharString>
          <CharString index="137">
            rmoveto
            243 177 161 -177 65 0 -122 334 -156 0 -261 -334 rlineto
            endchar
          </CharString>
          <CharString index="138">
            382 -252 274 -395 -466 -313 -383 -449 -2 return
          </CharString>
          <CharString index="139">
            -92 -374 rlineto
            55 hlineto
            91 224 84 64 250 15 rrcurveto
            47 2 return
          </CharString>
          <CharString index="140">
            rmoveto
            -446 -95 251 -191 315 hhcurveto
            173 callsubr
            endchar
          </CharString>
          <CharString index="141">
            rmoveto
            -412 -49 -12 -58 64 -14 50 -14 10 -19 2 callgsubr
          </CharString>
          <CharString index="142">
            1167 rmoveto
            97 1 76 69 28 230 rrcurveto
            -66 hlineto
            -106 -19 return
          </CharString>
          <CharString index="143">
            97 152 26 hvcurveto
            -66 hlineto
            -63 -18 -99 -41 -122 hhcurveto
            -122 return
          </CharString>
          <CharString index="144">
            -53 52 -72 hhcurveto
            -75 -61 -57 -72 1 hvcurveto
            -67 54 -52 72 vhcurveto
            endchar
          </CharString>
          <CharString index="145">
            1575 rmoveto
            62 82 callsubr
            321 hmoveto
            62 return
          </CharString>
          <CharString index="146">
            1152 -46 callsubr
            133 callsubr
            return
          </CharString>
          <CharString index="147">
            -11 -22 28 hvcurveto
            27 -21 rlineto
            -28 38 38 -19 47 hhcurveto
            return
          </CharString>
          <CharString index="148">
            rmoveto
            62 -47 callgsubr
            197 callsubr
            endchar
          </CharString>
          <CharString index="149">
            31 45 15 49 hhcurveto
            72 37 -31 -51 -58 -56 -59 return
          </CharString>
          <CharString index="150">
            rmoveto
            62 callsubr
            186 callsubr
            endchar
          </CharString>
          <CharString index="151">
            416 hmoveto
            76 61 60 74 71 -54 54 -73 return
          </CharString>
          <CharString index="152">
            66 68 56 54 68 63 -49 50 -66 hvcurveto
            endchar
          </CharString>
          <CharString index="153">
            -87 120 -190 hhcurveto
            -104 callgsubr
            return
          </CharString>
          <CharString index="154">
            hvcurveto
            -66 hlineto
            -152 -40 98 -97 172 hhcurveto
            return
          </CharString>
          <CharString index="155">
            703 454 -17 80 callsubr
            return
          </CharString>
          <CharString index="156">
            51 62 60 -45 46 -60 -63 -51 -50 -64 return
          </CharString>
          <CharString index="157">
            -48 -41 18 21 -28 hvcurveto
            -12 -53 rlineto
            -43 return
          </CharString>
          <CharString index="158">
            rmoveto
            150 94 69 110 105 -80 64 return
          </CharString>
          <CharString index="159">
            rmoveto
            150 159 callsubr
            26 hhcurveto
            return
          </CharString>
          <CharString index="160">
            -85 callgsubr
            128 -371 return
          </CharString>
          <CharString index="161">
            197 -44 0 -302 -197 rlineto
            return
          </CharString>
          <CharString index="162">
            109 515 -15 callsubr
            return
          </CharString>
          <CharString index="163">
            56 54 68 63 -50 50 -65 hvcurveto
            endchar
          </CharString>
          <CharString index="164">
            17 rlinecurve
            13 59 -573 0 -12 -59 return
          </CharString>
          <CharString index="165">
            -6 hlineto
            188 -366 rlineto
            68 hlineto
            return
          </CharString>
          <CharString index="166">
            -9 -2 -7 hvcurveto
            59 hlineto
            10 27 7 return
          </CharString>
          <CharString index="167">
            -49 -11 hvcurveto
            -49 -10 35 -35 54 hhcurveto
            return
          </CharString>
          <CharString index="168">
            1845 rmoveto
            -231 -146 return
          </CharString>
          <CharString index="169">
            -259 162 -187 259 return
          </CharString>
          <CharString index="170">
            193 126 -156 -311 return
          </CharString>
          <CharString index="171">
            rmoveto
            57 54 42 57 12 hvcurveto
            57 return
          </CharString>
          <CharString index="172">
            rmoveto
            -73 51 -55 78 87 61 55 194 107 vhcurveto
            71 125 40 -126 rlineto
            -172 56 63 -75 122 hhcurveto
            101 80 49 68 39 hvcurveto
            12 61 rlineto
            -23 -23 -32 -14 -33 hhcurveto
            -53 -41 36 131 -42 hvcurveto
            -87 271 99 162 35 56 27 42 25 30 rlinecurve
            -55 13 49 -40 60 hhcurveto
            72 56 57 73 72 -52 55 -77 -88 -62 -55 -194 -105 hvcurveto
            -74 -134 -121 375 -341 -47 -11 -58 60 -11 55 -12 15 -17 19 -58 rlinecurve
            121 -377 -96 -154 -34 -56 -28 -42 -24 -30 rlinecurve
            55 -13 -49 41 -60 hhcurveto
            -72 -56 -58 -72 hvcurveto
            endchar
          </CharString>
          <CharString index="173">
            rmoveto
            300 249 170 278 159 -76 121 -178 119 hvcurveto
            -100 71 rlineto
            -132 89 -51 76 101 vvcurveto
            137 106 89 155 182 108 -127 -243 11 vhcurveto
            53 hlineto
            53 340 rlineto
            61 -76 -154 53 -187 hhcurveto
            -326 -201 -175 -249 -160 83 -115 172 -116 hvcurveto
            100 -71 rlineto
            135 -91 46 -80 -109 vvcurveto
            -155 -127 -90 -156 -187 -143 118 254 -4 vhcurveto
            -53 hlineto
            -57 -347 rlineto
            -59 87 191 -49 177 hhcurveto
            return
          </CharString>
          <CharString index="174">
            rmoveto
            280 244 242 393 67 hvcurveto
            256 41 -79 142 -142 hhcurveto
            -98 -74 -89 -125 11 hvcurveto
            163 -35 59 -141 -33 -181 rrcurveto
            -200 -37 -111 -129 -152 hhcurveto
            -136 -51 87 158 33 hvcurveto
            11 53 64 266 13 59 rrcurveto
            190 40 -68 80 -155 hhcurveto
            -87 -83 -30 -35 -49 hvcurveto
            -13 -58 rlineto
            8 16 18 4 22 hhcurveto
            68 35 -40 -112 -23 hvcurveto
            -16 -75 -65 -275 -11 -54 rrcurveto
            -216 -46 97 -143 247 hhcurveto
            endchar
          </CharString>
          <CharString index="175">
            rmoveto
            -57 66 129 -43 138 hhcurveto
            252 160 138 179 hvcurveto
            1 122 -53 86 -124 79 -81 53 rcurveline
            -86 56 -34 46 68 vvcurveto
            79 54 53 99 136 67 -111 -144 1 vhcurveto
            53 hlineto
            51 254 rlineto
            42 -62 -106 33 -140 hhcurveto
            -246 -152 -124 -178 -116 61 -87 120 -77 hvcurveto
            80 -52 rlineto
            89 -59 28 -50 -72 vvcurveto
            -90 -68 -53 -100 -132 -98 99 187 -3 vhcurveto
            -53 hlineto
            return
          </CharString>
          <CharString index="176">
            1650 933 -26 rmoveto
            425 348 338 472 375 -290 312 -392 -429 -344 -338 -472 -376 286 -311 396 hvcurveto
            -1 55 rmoveto
            -357 -262 286 346 444 325 311 387 352 266 -287 -345 -444 -328 -311 -383 hvcurveto
            return
          </CharString>
          <CharString index="177">
            rmoveto
            170 -136 138 -254 22 vhcurveto
            228 19 226 97 2 222 rrcurveto
            199 2 -184 129 -367 hhcurveto
            -519 111 callsubr
            -228 -1072 rcurveline
            -20 -91 -22 -19 185 callsubr
            endchar
          </CharString>
          <CharString index="178">
            710 1445 rmoveto
            -69 hlineto
            -256 -101 -9 -42 118 20 6 1 3 -3 -1 -5 rlinecurve
            -108 -510 -11 -54 -27 -13 -96 -10 rlinecurve
            -8 -42 414 0 9 42 -90 10 -23 13 11 54 rlinecurve
            return
          </CharString>
          <CharString index="179">
            rmoveto
            -138 -706 rlineto
            -206 -41 82 -102 171 hhcurveto
            128 114 64 68 66 hvcurveto
            12 57 rlineto
            -31 -39 -56 -10 -52 hhcurveto
            -104 -49 53 145 34 hvcurveto
            19 80 122 498 25 90 rrcurveto
            endchar
          </CharString>
          <CharString index="180">
            1482 779 -25 rmoveto
            335 212 217 352 79 hvcurveto
            143 635 35 153 23 32 127 21 rlinecurve
            13 59 -399 0 -103 callgsubr
            202 callsubr
            return
          </CharString>
          <CharString index="181">
            173 111 89 120 116 -110 70 -134 -172 -111 -89 -121 vhcurveto
            169 -25 rmoveto
            94 52 78 61 48 28 -35 -63 -94 -52 -78 -61 -48 -28 35 63 vhcurveto
            return
          </CharString>
          <CharString index="182">
            -54 hhcurveto
            -10 hlineto
            -54 -51 -35 -48 -10 hvcurveto
            -49 -11 35 -35 55 hhcurveto
            328 hmoveto
            54 50 35 49 11 hvcurveto
            48 10 -35 35 -55 hhcurveto
            -9 hlineto
            -54 -51 -35 -23 callsubr
            endchar
          </CharString>
          <CharString index="183">
            567 673 rmoveto
            248 123 243 210 1 hvcurveto
            171 -88 162 -185 -246 -124 -239 -215 vhcurveto
            -173 -2 90 -159 183 hhcurveto
            return
          </CharString>
          <CharString index="184">
            rmoveto
            -411 -43 -12 -57 64 -14 rlineto
            50 -15 10 -19 -11 -53 -227 -1067 rcurveline
            -161 -35 56 -74 127 hhcurveto
            106 110 49 67 51 hvcurveto
            -32 callsubr
            return
          </CharString>
          <CharString index="185">
            -16 14 -19 -18 -92 rlinecurve
            -208 -977 -73 -339 -98 -140 -232 -145 rlinecurve
            17 -50 384 150 211 155 75 347 rlinecurve
            return
          </CharString>
          <CharString index="186">
            hhcurveto
            -31 -25 11 callsubr
            -45 -45 22 -57 hhcurveto
            -96 218 callsubr
            return
          </CharString>
          <CharString index="187">
            rmoveto
            115 117 50 80 43 callgsubr
            120 570 151 callsubr
            -118 -559 rlineto
            -216 -45 87 -122 181 hhcurveto
            return
          </CharString>
          <CharString index="188">
            -16 -100 -35 -126 hhcurveto
            -124 -85 35 54 7 hvcurveto
            -68 hlineto
            -130 -36 104 -82 176 hhcurveto
            248 -1272 -98 callsubr
          </CharString>
          <CharString index="189">
            51 51 62 1 hvcurveto
            60 -45 46 -60 -40 callsubr
            61 vhcurveto
            return
          </CharString>
          <CharString index="190">
            -17 -99 -35 -126 hhcurveto
            -125 -84 35 54 6 hvcurveto
            -68 hlineto
            -130 -35 104 -82 176 hhcurveto
            endchar
          </CharString>
          <CharString index="191">
            1196 637 1006 rmoveto
            -73 callsubr
            -86 callsubr
            141 callsubr
            return
          </CharString>
          <CharString index="192">
            344 hmoveto
            58 54 14 callsubr
            -66 callsubr
            1 callsubr
            endchar
          </CharString>
          <CharString index="193">
            13 44 hhcurveto
            64 34 -26 -44 -31 callgsubr
            48 81 62 81 vvcurveto
            75 -66 55 return
          </CharString>
          <CharString index="194">
            -42 10 -49 hhcurveto
            -101 -81 -58 -114 -23 26 callgsubr
            41 -10 49 hhcurveto
            return
          </CharString>
          <CharString index="195">
            253 1191 47 -2 239 -14 60 -58 -1 -231 rlinecurve
            55 hlineto
            return
          </CharString>
          <CharString index="196">
            rmoveto
            212 999 20 91 22 20 128 16 rlinecurve
            13 59 -576 0 return
          </CharString>
          <CharString index="197">
            62 51 50 63 1 hvcurveto
            59 -45 47 -60 -40 callsubr
            61 vhcurveto
            return
          </CharString>
          <CharString index="198">
            rmoveto
            304 102 261 -102 14 62 -220 54 callsubr
            endchar
          </CharString>
          <CharString index="199">
            78 250 111 hhcurveto
            54 35 -52 -130 1 hvcurveto
            -246 -78 return
          </CharString>
          <CharString index="200">
            rmoveto
            242 177 161 -177 65 0 -78 callgsubr
          </CharString>
          <CharString index="201">
            1490 rmoveto
            -273 -9 hlineto
            299 -363 rlineto
            67 hlineto
            return
          </CharString>
          <CharString index="202">
            -253 -1191 -18 -87 -25 -21 -147 -17 rlinecurve
            -12 -59 return
          </CharString>
          <CharString index="203">
            40 113 112 101 hhcurveto
            91 35 -70 209 callsubr
            return
          </CharString>
          <CharString index="204">
            31 25 -14 -27 34 hvcurveto
            32 -26 rlineto
            -36 45 46 -23 56 hhcurveto
            return
          </CharString>
          <CharString index="205">
            1485 rmoveto
            34 161 -607 -195 -12 -60 rlineto
            return
          </CharString>
          <CharString index="206">
            -162 186 -259 -340 -217 -271 -316 return
          </CharString>
          <CharString index="207">
            617 0 12 59 -140 18 -17 19 19 88 rlinecurve
            return
          </CharString>
          <CharString index="208">
            151 94 76 108 105 -80 68 -122 4 hvcurveto
            return
          </CharString>
          <CharString index="209">
            -27 hvcurveto
            66 hlineto
            105 19 29 34 44 hhcurveto
            30 25 -14 return
          </CharString>
          <CharString index="210">
            1167 rmoveto
            97 1 75 69 29 230 rrcurveto
            return
          </CharString>
          <CharString index="211">
            55 54 67 63 -49 50 -66 -68 -56 -54 -68 -63 return
          </CharString>
          <CharString index="212">
            -27 34 hvcurveto
            33 -26 rlineto
            -36 45 45 -23 57 hhcurveto
            return
          </CharString>
          <CharString index="213">
            -49 50 -66 -69 -55 -54 -68 -63 49 -49 66 hvcurveto
            return
          </CharString>
          <CharString index="214">
            hhcurveto
            -28 -28 7 12 -38 hvcurveto
            -31 11 rlineto
            13 -42 return
          </CharString>
          <CharString index="215">
            40 -30 -49 -47 -38 -29 -65 -52 -47 17 26 return
          </CharString>
          <CharString index="216">
            -8 -37 -36 vvcurveto
            -141 106 -107 158 vhcurveto
            return
          </CharString>
          <CharString index="217">
            rmoveto
            61 -47 callgsubr
            131 71 -25 return
          </CharString>
          <CharString index="218">
            hlineto
            -13 -59 rlineto
            121 -17 15 -19 -19 -91 return
          </CharString>
          <CharString index="219">
            157 callsubr
            284 371 rlineto
            return
          </CharString>
          <CharString index="220">
            70 callgsubr
            273 372 rmoveto
            return
          </CharString>
          <CharString index="221">
            1416 rmoveto
            99 98 callgsubr
            return
          </CharString>
          <CharString index="222">
            1100 943 -16 128 callsubr
            return
          </CharString>
          <CharString index="223">
            285 -152 0 -245 -285 rlineto
            return
          </CharString>
          <CharString index="224">
            25 hhcurveto
            54 41 -26 -46 -48 -43 -27 -65 return
          </CharString>
          <CharString index="225">
            -9 hlineto
            -55 -50 -35 -23 callsubr
            return
          </CharString>
          <CharString index="226">
            -12 -32 -22 -45 hhcurveto
            -63 callgsubr
            return
          </CharString>
          <CharString index="227">
            -12 -59 121 78 callsubr
            endchar
          </CharString>
          <CharString index="228">
            -13 -59 122 -17 14 -19 -19 -91 rlinecurve
            return
          </CharString>
          <CharString index="229">
            -45 -45 22 -57 hhcurveto
            -96 -77 -69 -229 return
          </CharString>
          <CharString index="230">
            -66 hlineto
            -106 -20 -29 -35 -44 hhcurveto
            -31 -24 return
          </CharString>
          <CharString index="231">
            rmoveto
            -68 57 -53 69 71 57 55 67 52 -32 43 -44 18 vhcurveto
            18 40 48 11 53 hhcurveto
            180 52 -132 -183 -28 hvcurveto
            -9 -57 -161 -17 rlineto
            -317 -33 -160 -111 -182 vvcurveto
            -138 114 -94 164 170 125 96 212 50 vhcurveto
            -203 34 153 -106 177 hhcurveto
            151 128 67 91 67 hvcurveto
            13 62 rlineto
            -52 -55 -79 -38 -88 hhcurveto
            -166 -85 128 215 14 0 13 1 13 hvcurveto
            62 5 384 31 133 114 1 147 rlinecurve
            144 2 -132 80 -179 hhcurveto
            -125 -117 -49 -92 -95 hvcurveto
            92 -60 -106 49 -149 hhcurveto
            -214 -155 -99 -130 hvcurveto
            1011 154 rmoveto
            77 32 -62 -73 -3 hvcurveto
            -3 -109 -76 -112 -231 -23 -52 -6 rcurveline
            216 24 101 169 131 hhcurveto
            -875 -689 rmoveto
            118 88 90 191 25 vhcurveto
            88 9 -12 -78 rlineto
            -212 -36 -83 -90 -105 hhcurveto
            -76 -55 47 91 hvcurveto
            endchar
          </CharString>
          <CharString index="232">
            rmoveto
            -991 hlineto
            -817 -1175 -116 -167 -45 -28 -109 -15 rlinecurve
            -12 -59 423 0 12 59 -139 20 -8 36 102 153 rlinecurve
            227 338 429 0 -80 -405 -20 -105 -15 -20 -144 -17 rlinecurve
            -13 -59 1085 0 103 410 rlineto
            -52 hlineto
            -106 -255 -98 -65 -264 -12 rrcurveto
            -213 -9 122 633 199 -3 107 -4 20 -42 -5 -162 rlinecurve
            52 hlineto
            99 485 rlineto
            -51 hlineto
            -61 -156 -37 -38 -108 -4 rrcurveto
            -200 -3 116 600 195 -9 246 -12 39 -52 14 -232 rlinecurve
            52 hlineto
            -899 300 rmoveto
            67 hlineto
            -134 -684 rlineto
            -391 hlineto
            endchar
          </CharString>
          <CharString index="233">
            1374 527 186 rmoveto
            111 522 121 -1 264 -707 360 0 12 56 -61 23 -37 41 -82 213 rlinecurve
            -217 580 280 252 167 148 70 50 116 22 rlinecurve
            12 59 -443 0 -12 -59 133 -16 2 -48 -123 -122 rlinecurve
            -427 -419 -120 -1 102 479 19 91 23 20 119 16 rlinecurve
            13 59 -568 0 -12 -59 122 -17 13 -19 -19 -91 rlinecurve
            -228 -1072 -19 -91 -22 -19 -129 -17 rlinecurve
            -12 -59 567 0 13 59 -113 16 -15 20 20 91 rlinecurve
            return
          </CharString>
          <CharString index="234">
            -144 -119 -92 -170 -62 vhcurveto
            56 255 -403 -1 callsubr
            -234 -1099 -13 -62 -20 -17 -117 -21 rlinecurve
            -13 -60 561 0 13 60 rlineto
            -140 23 -17 15 14 65 78 374 rcurveline
            -51 30 70 -46 115 hhcurveto
            309 209 313 355 hvcurveto
            -275 14 rmoveto
            -248 -101 -339 -205 -73 -49 37 43 -12 vhcurveto
            98 464 rlineto
            170 41 88 95 88 hhcurveto
            79 47 -63 -159 -1 hvcurveto
            endchar
          </CharString>
          <CharString index="235">
            rmoveto
            99 75 48 67 39 hvcurveto
            13 61 rlineto
            -22 -22 -28 -13 -30 hhcurveto
            -51 -40 39 141 -48 hvcurveto
            -124 363 127 100 156 121 72 35 95 20 rlinecurve
            10 50 -416 0 -10 -50 122 -14 13 -34 -115 -99 rlinecurve
            -341 -294 209 984 -410 -43 -13 -57 65 -14 50 -15 10 -19 -11 -53 rlinecurve
            -274 -1286 266 0 91 426 95 75 81 -249 rlineto
            -183 58 67 -85 120 hhcurveto
            return
          </CharString>
          <CharString index="236">
            158 147 121 95 175 60 vhcurveto
            -1 -7 -11 -57 -6 vvcurveto
            -131 -21 54 -65 112 hhcurveto
            104 109 49 67 51 hvcurveto
            13 61 rlineto
            -26 -30 -45 -13 -33 hhcurveto
            -47 -20 31 66 15 hvcurveto
            269 1268 -411 -43 -12 -57 65 -14 rlineto
            50 -15 10 -19 -12 -53 -78 -368 rcurveline
            51 -30 -70 44 -114 hhcurveto
            -309 -209 -313 -354 hvcurveto
            return
          </CharString>
          <CharString index="237">
            -192 -673 rmoveto
            100 hlineto
            1240 1444 rlineto
            -101 hlineto
            -1047 -715 rmoveto
            25 callgsubr
            854 -743 rmoveto
            72 callgsubr
            -185 -246 -124 -239 -214 vhcurveto
            -174 -2 90 -159 183 hhcurveto
            return
          </CharString>
          <CharString index="238">
            rmoveto
            99 81 68 135 27 hvcurveto
            -65 hlineto
            -55 -13 -31 -22 -45 hhcurveto
            -27 -28 7 15 -37 hvcurveto
            -29 12 rlineto
            16 -41 -41 12 -48 hhcurveto
            -97 -82 -69 -134 -28 hvcurveto
            67 hlineto
            55 12 31 21 46 hhcurveto
            27 27 -7 -14 37 hvcurveto
            29 -12 rlineto
            -16 41 40 -12 48 hhcurveto
            -282 -1153 -97 callsubr
          </CharString>
          <CharString index="239">
            -59 -58 -89 -32 -78 hhcurveto
            -147 -105 112 213 265 122 231 191 39 35 -10 -16 27 hvcurveto
            -65 -6 -51 -54 -66 vvcurveto
            -71 56 -55 71 75 59 57 76 125 -106 102 -188 -1 vhcurveto
            -305 -236 -258 -350 return
          </CharString>
          <CharString index="240">
            129 callsubr
            274 -15 rmoveto
            249 1 100 338 206 -2 callgsubr
            return
          </CharString>
          <CharString index="241">
            1582 rmoveto
            82 1 65 57 22 190 rrcurveto
            -58 hlineto
            -85 -16 -23 -27 -36 -60 callgsubr
            -38 17 54 callgsubr
            return
          </CharString>
          <CharString index="242">
            1405 64 callsubr
            13 -36 42 -58 hhcurveto
            -9 hlineto
            -57 -55 -42 -57 -12 hvcurveto
            -57 -12 36 -42 57 hhcurveto
            -9 callsubr
            42 -57 hhcurveto
            -10 hlineto
            -56 -55 -42 -57 -12 hvcurveto
            -57 -12 36 -42 57 hhcurveto
            return
          </CharString>
          <CharString index="243">
            rmoveto
            101 80 58 114 23 hvcurveto
            -67 hlineto
            -46 -10 -32 -19 -46 hhcurveto
            -28 -29 7 12 -37 hvcurveto
            -31 11 rlineto
            13 -42 -43 10 -49 hhcurveto
            -100 -81 -58 -114 -24 26 callgsubr
            42 -10 49 hhcurveto
            endchar
          </CharString>
          <CharString index="244">
            hvcurveto
            -382 -1 253 -275 396 hhcurveto
            -22 83 rmoveto
            -193 -126 157 310 405 194 451 301 63 callsubr
            -427 -206 -429 -289 hvcurveto
            return
          </CharString>
          <CharString index="245">
            rmoveto
            173 109 71 92 72 hvcurveto
            14 61 rlineto
            -69 -74 -101 -37 -112 hhcurveto
            -107 -72 49 82 84 41 52 140 54 hvcurveto
            50 20 rlineto
            176 64 113 79 174 vvcurveto
            165 return
          </CharString>
          <CharString index="246">
            -58 -58 -88 -33 -79 hhcurveto
            -142 -104 102 216 -3 hvcurveto
            57 17 rlineto
            336 96 172 97 164 vvcurveto
            129 -116 81 -180 -299 -245 -262 -348 return
          </CharString>
          <CharString index="247">
            132 647 rlineto
            94 62 111 62 119 hhcurveto
            41 35 -7 -8 22 hvcurveto
            11 19 13 38 39 vvcurveto
            74 -34 50 -71 -94 -74 -81 -228 -134 vhcurveto
            return
          </CharString>
          <CharString index="248">
            128 599 rlineto
            165 38 109 121 107 hhcurveto
            91 35 -70 209 callsubr
            -88 120 -189 hhcurveto
            -161 -135 -101 -188 -73 hvcurveto
            return
          </CharString>
          <CharString index="249">
            14 69 -260 0 40 177 -271 -21 -34 -156 -150 0 -15 -69 151 0 -261 -1226 267 0 128 606 rlineto
            167 return
          </CharString>
          <CharString index="250">
            249 123 244 210 hvcurveto
            171 1 -89 161 -184 hhcurveto
            -246 -125 -239 -214 hvcurveto
            -174 -1 89 -159 183 hhcurveto
            return
          </CharString>
          <CharString index="251">
            155 41 64 90 hvcurveto
            75 350 -55 -1 rlineto
            -232 -90 -153 -138 -177 hhcurveto
            -221 -148 214 302 hvcurveto
            endchar
          </CharString>
          <CharString index="252">
            -47 hhcurveto
            -82 -64 -57 -188 -23 hvcurveto
            59 hlineto
            84 14 25 27 35 hhcurveto
            26 21 -11 -22 28 hvcurveto
            26 -21 rlineto
            -28 38 38 -19 48 hhcurveto
            return
          </CharString>
          <CharString index="253">
            -366 rlineto
            72 hlineto
            273 372 rmoveto
            -233 58 callsubr
            return
          </CharString>
          <CharString index="254">
            1481 rmoveto
            -194 -116 -139 -212 -8 hvcurveto
            63 hlineto
            108 22 83 65 141 hhcurveto
            115 77 -62 -83 -10 return
          </CharString>
          <CharString index="255">
            rmoveto
            227 9 170 149 198 vvcurveto
            116 -67 69 -90 -100 -60 -86 -101 -4 -80 callgsubr
            endchar
          </CharString>
          <CharString index="256">
            102 410 rlineto
            -54 hlineto
            -109 -263 -93 -59 -275 -11 rrcurveto
            -212 -8 134 635 210 -3 return
          </CharString>
          <CharString index="257">
            1462 rmoveto
            34 161 -607 -195 -13 -60 rlineto
            -45 -214 rmoveto
            566 hlineto
            26 124 rlineto
            return
          </CharString>
          <CharString index="258">
            253 -7 20 94 -257 -14 52 244 -277 -40 -42 -199 -141 -31 -11 -54 133 0 return
          </CharString>
          <CharString index="259">
            hlineto
            -13 -59 120 -17 16 -18 -20 -92 rlinecurve
            -227 -1072 -20 -91 -22 -19 -128 -17 rlinecurve
            -13 -59 return
          </CharString>
          <CharString index="260">
            835 633 1006 rmoveto
            -400 -1 callsubr
            -86 callsubr
            140 callsubr
            return
          </CharString>
          <CharString index="261">
            1825 rmoveto
            -204 -5 hlineto
            231 -82 callgsubr
            164 -280 rlineto
            54 hlineto
            return
          </CharString>
          <CharString index="262">
            40 -30 -49 -47 -39 -29 -64 -52 -48 17 26 -30 hvcurveto
            -13 -57 rlineto
            -52 42 68 -37 89 hhcurveto
            return
          </CharString>
          <CharString index="263">
            rmoveto
            -411 -49 -13 -58 65 -14 49 -14 10 -19 -11 -53 rlinecurve
            -157 -740 -57 -266 return
          </CharString>
          <CharString index="264">
            1506 rmoveto
            -262 -196 -172 196 -70 0 129 -371 167 0 return
          </CharString>
          <CharString index="265">
            462 1258 rmoveto
            -228 -1072 rlineto
            -20 -93 -24 -18 -126 -16 -12 -59 rcurveline
            return
          </CharString>
          <CharString index="266">
            93 69 110 105 -79 64 -93 -71 -58 -27 -45 -38 hvcurveto
            -12 -50 rlineto
            6 16 27 4 return
          </CharString>
          <CharString index="267">
            1779 rmoveto
            101 80 59 114 23 hvcurveto
            -67 hlineto
            -46 -10 -32 -19 -46 hhcurveto
            -28 return
          </CharString>
          <CharString index="268">
            1146 1180 648 rmoveto
            229 -115 136 184 callsubr
            return
          </CharString>
          <CharString index="269">
            -81 -59 -114 -23 hvcurveto
            67 hlineto
            46 11 31 19 47 hhcurveto
            28 28 -6 -13 return
          </CharString>
          <CharString index="270">
            -333 -805 rmoveto
            101 hlineto
            1239 1444 rlineto
            -100 hlineto
            return
          </CharString>
          <CharString index="271">
            146 -67 0 127 -285 158 0 244 285 rlineto
            return
          </CharString>
          <CharString index="272">
            -54 52 -72 hhcurveto
            -74 -61 -57 -72 1 hvcurveto
            -67 54 -52 72 vhcurveto
            endchar
          </CharString>
          <CharString index="273">
            1826 rmoveto
            -239 -7 hlineto
            277 -279 rlineto
            55 hlineto
            return
          </CharString>
          <CharString index="274">
            448 169 -49 147 -89 113 hvcurveto
            164 161 -51 52 -162 -159 rlineto
            109 -112 -157 64 -191 hhcurveto
            -467 -313 -383 -449 -1 hvcurveto
            -169 49 -148 89 -112 vhcurveto
            -163 -161 50 -52 162 159 rlineto
            -109 112 158 -64 191 hhcurveto
            -340 550 rmoveto
            404 194 451 300 138 103 -79 -159 48 vhcurveto
            -773 -762 rlineto
            -7 43 -3 49 53 vvcurveto
            318 -468 rmoveto
            -137 -104 80 159 -48 hvcurveto
            773 763 rlineto
            7 -44 4 -49 -53 vvcurveto
            -99 callgsubr
            vhcurveto
            endchar
          </CharString>
          <CharString index="275">
            128 601 rlineto
            163 38 102 121 101 hhcurveto
            87 32 -73 -109 -23 hvcurveto
            -149 -703 266 0 127 598 rlineto
            165 38 100 122 103 hhcurveto
            86 33 -73 -115 -24 hvcurveto
            -102 -478 rlineto
            -161 -35 56 -74 127 hhcurveto
            105 111 49 67 50 hvcurveto
            13 61 rlineto
            -26 -30 -45 -13 -33 hhcurveto
            -47 -20 31 66 15 hvcurveto
            98 458 rlineto
            218 47 -90 118 -184 hhcurveto
            -152 -136 -106 -183 -63 hvcurveto
            2 7 3 8 1 vvcurveto
            166 23 -81 107 -177 hhcurveto
            -155 -129 -98 -191 -70 hvcurveto
            60 282 -73 callsubr
            return
          </CharString>
          <CharString index="276">
            rmoveto
            -246 -24 122 -167 216 hhcurveto
            154 113 101 167 61 hvcurveto
            -169 1 118 -99 165 hhcurveto
            287 193 276 330 25 hvcurveto
            269 21 -110 158 -145 hhcurveto
            -102 -70 -91 -126 12 hvcurveto
            168 -33 101 -134 -13 -199 rrcurveto
            -180 -11 -108 -145 -136 hhcurveto
            -137 -77 106 291 65 hvcurveto
            49 224 -240 0 -55 -260 rlineto
            -270 -57 -60 -91 -105 hhcurveto
            -104 -51 96 192 17 hvcurveto
            18 253 106 221 164 97 rrcurveto
            -26 41 -322 -71 -199 -254 -24 -287 rlinecurve
            endchar
          </CharString>
          <CharString index="277">
            rmoveto
            148 116 89 177 109 hvcurveto
            -192 15 61 -68 124 hhcurveto
            82 83 48 47 39 hvcurveto
            13 58 rlineto
            -12 -16 -31 -10 -27 hhcurveto
            -79 -35 24 226 -33 hvcurveto
            -14 103 310 524 rlineto
            -267 hlineto
            -17 -63 -44 -126 -42 -113 rrcurveto
            219 -29 -84 103 -181 hhcurveto
            -267 -207 -248 -348 -26 hvcurveto
            -268 -26 109 -170 216 hhcurveto
            -17 480 rmoveto
            306 23 94 162 121 hhcurveto
            101 21 -107 -342 21 hvcurveto
            4 -105 rlineto
            -186 -86 -82 -77 -90 hhcurveto
            -102 -48 110 239 23 hvcurveto
            endchar
          </CharString>
          <CharString index="278">
            rmoveto
            225 177 85 135 97 hvcurveto
            11 62 rlineto
            -76 -74 -143 -56 -143 hhcurveto
            -144 -81 57 97 4 hvcurveto
            114 3 107 54 218 hhcurveto
            66 hlineto
            -4 176 rlineto
            -68 hlineto
            -203 -59 61 88 6 hvcurveto
            96 5 81 65 166 hhcurveto
            85 66 -15 -26 46 hvcurveto
            -53 -12 -33 -49 -52 vvcurveto
            -60 46 -52 74 65 52 51 72 113 -88 106 -284 -314 -160 -129 -165 -7 vhcurveto
            -7 -116 75 -91 160 -26 -202 -19 -125 -89 -7 -144 rrcurveto
            -153 -9 134 -102 239 hhcurveto
            endchar
          </CharString>
          <CharString index="279">
            rmoveto
            337 216 272 316 107 -27 95 -51 74 hvcurveto
            114 113 -48 49 -111 -109 rlineto
            73 -72 -100 42 -122 hhcurveto
            -338 -215 -273 -315 -109 29 -96 52 -75 hvcurveto
            -109 -107 48 -49 106 104 rlineto
            -71 71 100 -41 120 hhcurveto
            -152 347 rmoveto
            260 1 95 349 187 hhcurveto
            82 54 -60 -124 16 hvcurveto
            -435 -426 rlineto
            157 -270 rmoveto
            -81 -54 58 120 -16 hvcurveto
            433 426 rlineto
            -255 -1 -94 -349 -187 hhcurveto
            endchar
          </CharString>
          <CharString index="280">
            335 213 217 352 78 hvcurveto
            192 859 rlineto
            -3 18 19 -1 21 hhcurveto
            153 1 104 73 128 vvcurveto
            85 -51 76 -68 37 vhcurveto
            -56 hlineto
            8 -17 4 -28 -29 vvcurveto
            -156 -110 -125 -206 vhcurveto
            -81 hlineto
            -103 callgsubr
            -142 -130 -634 rcurveline
            -294 -61 -173 -156 -211 hhcurveto
            -218 -141 143 344 73 hvcurveto
            140 658 21 95 24 20 134 20 rlinecurve
            12 59 -577 0 -12 -59 114 -19 16 -21 -21 -95 rlinecurve
            return
          </CharString>
          <CharString index="281">
            rmoveto
            -16 -89 -133 -28 -11 -54 131 0 -159 -944 -41 -246 -60 -80 -98 -7 rlinecurve
            28 20 18 34 39 vvcurveto
            66 -51 51 -63 -64 -53 -50 -69 -97 80 -75 125 219 182 166 527 90 vhcurveto
            117 673 229 -8 21 95 -239 -12 28 161 rlineto
            217 36 64 79 94 3 3 0 4 hhcurveto
            -33 -21 -21 -37 -42 vvcurveto
            -67 52 -51 64 67 54 53 68 101 -94 77 -155 -209 -153 -151 -299 -56 vhcurveto
            endchar
          </CharString>
          <CharString index="282">
            rmoveto
            83 66 38 56 33 hvcurveto
            12 58 rlineto
            -17 -19 -26 -11 -29 hhcurveto
            -64 -42 64 93 61 22 62 47 53 hvcurveto
            461 314 384 448 382 -252 274 -395 -467 -313 -383 -449 -1 hvcurveto
            -1 -361 226 -265 360 -28 rrcurveto
            -137 -85 -79 -102 -102 vvcurveto
            -100 84 -70 117 vhcurveto
            56 539 rmoveto
            -192 -126 157 311 404 194 451 300 63 callsubr
            -99 callgsubr
            hvcurveto
            endchar
          </CharString>
          <CharString index="283">
            689 1248 rmoveto
            3 -115 -156 -29 -109 -10 -9 -51 callgsubr
            -84 hvcurveto
            -108 2 219 callsubr
            31 vvcurveto
            42 -32 33 -43 -44 -33 -33 -44 -92 112 -60 120 164 157 89 158 vhcurveto
            -1 92 -66 73 -113 25 111 13 119 58 -1 110 rrcurveto
            111 -1 -111 56 -111 hhcurveto
            -122 -113 -66 -132 -44 hvcurveto
            34 -14 rlineto
            73 38 57 35 71 hhcurveto
            79 47 -48 -58 1 hvcurveto
            return
          </CharString>
          <CharString index="284">
            280 hlineto
            125 615 rlineto
            178 40 96 90 107 hhcurveto
            93 55 -70 -164 -33 hvcurveto
            -35 -169 -148 -675 -61 -265 rrcurveto
            280 hlineto
            17 74 199 968 17 86 rrcurveto
            234 48 -104 111 -192 hhcurveto
            -178 -121 -113 -149 -58 hvcurveto
            187 28 -73 67 -129 hhcurveto
            -83 -79 -28 -33 -53 hvcurveto
            -12 -57 rlineto
            6 16 19 4 24 hhcurveto
            68 39 -39 -121 -23 hvcurveto
            -28 -144 -94 -406 -47 -187 rrcurveto
            endchar
          </CharString>
          <CharString index="285">
            rmoveto
            -85 65 -65 99 174 124 117 322 226 vhcurveto
            550 785 95 136 41 32 120 19 rlinecurve
            13 59 -420 0 -12 -59 151 -17 -3 -30 -88 -134 rlinecurve
            -416 -632 -162 654 -32 124 3 17 164 18 rlinecurve
            12 59 -622 0 -12 -59 111 -19 26 -22 32 -115 rlinecurve
            269 -942 -77 -106 -71 -74 -79 -36 rlinecurve
            8 17 5 20 21 vvcurveto
            82 -64 62 -80 -84 -66 -67 -82 vhcurveto
            endchar
          </CharString>
          <CharString index="286">
            rmoveto
            93 85 53 66 39 hvcurveto
            13 62 rlineto
            -23 -32 -27 -12 -30 hhcurveto
            -48 -36 29 82 -42 hvcurveto
            -198 390 99 99 57 59 40 43 32 30 rlinecurve
            -65 9 51 -48 69 hhcurveto
            72 60 58 75 70 -51 61 -84 -91 -61 -63 -153 -141 hvcurveto
            -267 -297 109 506 -412 -49 -13 -58 65 -14 49 -14 11 -19 -12 -53 rlinecurve
            -86 callsubr
            105 490 163 -313 rlineto
            -142 64 57 -51 107 hhcurveto
            endchar
          </CharString>
          <CharString index="287">
            rmoveto
            -285 hlineto
            -9 -42 67 -10 8 -21 -15 -62 rlinecurve
            -113 -471 -20 -80 -15 -19 -72 -10 rlinecurve
            -9 -42 230 0 10 42 -71 10 -7 17 18 82 rlinecurve
            99 467 97 -618 98 0 120 242 228 386 -95 -521 -8 -45 -13 -11 -72 -9 rlinecurve
            -9 -42 349 0 10 42 -68 9 -7 10 8 46 rlinecurve
            99 542 8 44 13 12 72 10 rlinecurve
            9 42 -296 0 -276 -511 rlineto
            return
          </CharString>
          <CharString index="288">
            572 hlineto
            13 59 -115 16 -18 19 19 92 rlinecurve
            8 39 793 852 -189 -891 -19 -93 -22 -17 -126 -17 rlinecurve
            -13 -59 573 0 12 59 -117 16 -18 18 19 97 callgsubr
            12 59 -572 0 -13 -59 118 -16 16 -17 -20 -94 rlinecurve
            -9 -43 -793 -852 190 895 19 92 24 18 124 17 rlinecurve
            13 59 -573 0 -13 -59 20 callgsubr
            endchar
          </CharString>
          <CharString index="289">
            94 hhcurveto
            131 131 84 190 92 hvcurveto
            -40 35 -49 -81 -56 -30 -58 1 rlinecurve
            -76 -58 24 67 -112 hvcurveto
            -83 50 570 617 13 58 -722 64 callgsubr
            -1456 -456 rmoveto
            249 1 100 338 206 -2 callgsubr
            endchar
          </CharString>
          <CharString index="290">
            13 -16 4 -52 68 -812 rcurveline
            167 hlineto
            161 221 124 223 60 170 41 -614 rcurveline
            164 hlineto
            285 318 246 372 180 vvcurveto
            91 -61 57 -81 -81 -62 -57 -78 -75 60 -59 75 9 9 1 1 9 vhcurveto
            -55 -185 -130 -203 -153 -186 rrcurveto
            -52 833 -247 -39 8 -122 -3 -191 -130 -247 -125 -211 rlinecurve
            return
          </CharString>
          <CharString index="291">
            -158 -142 -117 -88 -166 -62 vhcurveto
            162 728 -410 -43 -13 -57 65 -14 50 -15 10 -19 -12 -53 rlinecurve
            -273 -1286 149 0 114 102 rlineto
            -63 27 75 -59 131 hhcurveto
            310 96 callgsubr
            -100 -339 -206 hhcurveto
            -72 -50 37 43 -12 hvcurveto
            99 464 rlineto
            170 40 89 95 87 hhcurveto
            79 47 -63 -159 hvcurveto
            return
          </CharString>
          <CharString index="292">
            -128 -17 -13 -59 rcurveline
            537 hlineto
            475 297 169 279 hvcurveto
            -232 667 rmoveto
            -180 -125 -136 -218 -2 vhcurveto
            -133 -1 124 579 86 -3 rlineto
            174 -6 92 -93 -158 vvcurveto
            -81 -669 rmoveto
            -207 -144 -157 -318 -11 vhcurveto
            -87 -2 140 659 132 -2 rlineto
            175 -3 102 -111 -166 vvcurveto
            return
          </CharString>
          <CharString index="293">
            339 218 269 316 167 -71 140 -128 76 vhcurveto
            -12 45 54 -8 53 hhcurveto
            184 124 73 135 85 -50 73 -76 36 hvcurveto
            -52 hlineto
            7 -16 6 -29 -30 vvcurveto
            -144 -108 -117 -171 vhcurveto
            -75 -61 20 -94 hhcurveto
            -341 -224 -259 -329 hvcurveto
            272 -101 rmoveto
            29 callsubr
            -98 -57 89 179 1 hvcurveto
            return
          </CharString>
          <CharString index="294">
            rmoveto
            84 73 39 55 36 hvcurveto
            12 58 rlineto
            -17 -19 -28 -11 -29 hhcurveto
            -63 -44 60 92 64 24 67 39 53 hvcurveto
            319 18 203 263 306 vvcurveto
            259 99 callsubr
            -245 144 -180 235 -20 vhcurveto
            -130 -83 -72 -102 -102 vvcurveto
            -100 78 -73 116 vhcurveto
            55 536 rmoveto
            -98 -57 89 179 1 hvcurveto
            29 callsubr
            endchar
          </CharString>
          <CharString index="295">
            -229 -1072 -19 -91 -21 -19 -129 -17 rlinecurve
            -13 -59 598 0 13 59 -140 18 -18 20 19 87 rlinecurve
            109 511 189 -3 103 -3 21 -42 -5 -164 rlinecurve
            50 hlineto
            103 484 rlineto
            -50 hlineto
            -63 -157 -37 -39 -106 -4 rrcurveto
            -191 -2 130 610 178 -7 232 -11 57 -54 9 -233 rlinecurve
            54 hlineto
            endchar
          </CharString>
          <CharString index="296">
            158 741 rlineto
            -2 12 13 0 14 hhcurveto
            121 97 65 119 84 -51 71 -77 36 hvcurveto
            -53 hlineto
            8 -16 5 -29 -31 vvcurveto
            -147 -102 -103 -268 -34 vhcurveto
            -117 -14 -11 -54 61 -14 rlineto
            49 -16 11 -18 -12 -53 -89 -419 rcurveline
            -157 -38 -95 -111 -112 hhcurveto
            -96 -34 72 125 27 hvcurveto
            return
          </CharString>
          <CharString index="297">
            1354 488 rmoveto
            230 -193 145 -348 2 vhcurveto
            -145 1 83 393 19 90 25 18 135 18 rlinecurve
            12 59 -584 0 -13 -59 rlineto
            119 -17 17 -18 -19 -92 -228 -1072 rcurveline
            -20 -91 -21 -19 -129 -17 -12 -59 rcurveline
            584 hlineto
            433 285 193 295 hvcurveto
            return
          </CharString>
          <CharString index="298">
            1072 -824 rmoveto
            101 410 rlineto
            -53 hlineto
            -112 -267 -112 -53 -291 -12 rrcurveto
            -251 -9 997 1319 11 -37 callgsubr
            102 226 79 57 259 11 rrcurveto
            261 11 -996 -1319 -12 -56 rlineto
            -328 866 -74 callgsubr
            40 callgsubr
            endchar
          </CharString>
          <CharString index="299">
            153 -1186 189 0 647 1161 102 183 34 30 110 16 rlinecurve
            12 59 -410 0 -13 -59 136 -21 17 -35 -91 -170 rlinecurve
            -482 -915 -103 935 -16 146 28 41 138 19 rlinecurve
            13 59 -598 0 -13 -59 94 -15 31 -28 22 -161 rlinecurve
            return
          </CharString>
          <CharString index="300">
            rmoveto
            342 207 273 314 258 -166 188 -258 -342 -207 -273 -313 -258 166 -189 258 hvcurveto
            1 77 rmoveto
            -101 -53 90 180 hvcurveto
            262 1 100 347 176 hhcurveto
            101 53 -89 -181 hvcurveto
            -261 -1 -100 -348 -176 hhcurveto
            endchar
          </CharString>
          <CharString index="301">
            66 -14 rlineto
            47 -13 11 -20 -11 -52 -81 -384 rcurveline
            -291 -62 147 19 callgsubr
            -70 -63 -10 -12 -40 hvcurveto
            -58 -279 rmoveto
            44 209 rlineto
            8 29 40 7 40 hhcurveto
            127 65 -73 -133 -159 -87 -139 -128 -124 -43 106 174 37 hvcurveto
            endchar
          </CharString>
          <CharString index="302">
            -18 -87 -24 -21 -146 -17 rlinecurve
            -12 -59 613 0 13 59 -139 18 -16 77 callgsubr
            38 29 105 17 rlinecurve
            12 59 -396 0 -13 -59 131 -17 5 -39 -115 -159 rlinecurve
            -318 18 callgsubr
            -12 -59 91 -16 28 -26 55 -158 rlinecurve
            return
          </CharString>
          <CharString index="303">
            1353 1362 448 rmoveto
            170 -136 138 -254 22 vhcurveto
            228 19 226 97 2 222 rrcurveto
            199 2 -184 129 -367 hhcurveto
            -519 111 callsubr
            -228 -1072 rcurveline
            -20 -91 -22 -19 185 callsubr
            return
          </CharString>
          <CharString index="304">
            130 72 -25 93 hhcurveto
            132 130 84 190 93 hvcurveto
            -41 35 -49 -81 -56 -30 -57 1 rlinecurve
            -77 -58 24 67 -112 hvcurveto
            -82 50 570 617 12 58 -722 0 -89 -325 rlineto
            52 hlineto
            101 41 28 17 94 hhcurveto
            335 hlineto
            return
          </CharString>
          <CharString index="305">
            115 -16 18 -19 -20 -92 rlinecurve
            -251 -1182 -514 0 252 1183 19 93 21 18 124 15 rlinecurve
            12 59 -565 0 -12 -59 114 -14 16 -20 -19 -92 rlinecurve
            -251 -1183 -515 0 252 1182 return
          </CharString>
          <CharString index="306">
            1301 rmoveto
            -116 110 -69 134 172 111 89 120 116 -110 70 -133 -172 -112 -89 -121 vhcurveto
            170 -25 rmoveto
            94 51 78 61 48 28 -35 -63 -94 -51 -78 -61 -49 -27 35 63 vhcurveto
            return
          </CharString>
          <CharString index="307">
            -275 -35 -124 -589 rlineto
            -155 -38 -101 -119 -111 hhcurveto
            -89 -26 73 118 25 hvcurveto
            150 707 -275 -33 -124 -595 rlineto
            -153 -38 -102 -117 -110 hhcurveto
            -89 -25 74 117 25 hvcurveto
            148 return
          </CharString>
          <CharString index="308">
            1490 rmoveto
            -107 -378 87 0 268 -56 callgsubr
            55 54 67 64 -49 49 -66 -68 -56 -54 -68 -62 50 -50 65 hvcurveto
            595 hmoveto
            68 55 54 67 64 -49 49 -65 -69 -55 -54 -68 -62 49 -50 66 hvcurveto
            endchar
          </CharString>
          <CharString index="309">
            -152 -126 -623 rcurveline
            -295 -60 -173 -156 -211 hhcurveto
            -219 -141 143 344 16 callgsubr
            rlineto
            108 -19 16 -21 -20 -95 -136 -638 rcurveline
            -446 -94 251 -191 315 hhcurveto
            return
          </CharString>
          <CharString index="310">
            12 -16 5 -52 71 -812 rcurveline
            168 hlineto
            305 337 238 357 178 vvcurveto
            89 -62 57 -81 -79 -62 -57 -78 -75 60 -59 75 10 10 1 1 9 vhcurveto
            -56 -179 -132 -198 -163 -197 rrcurveto
            return
          </CharString>
          <CharString index="311">
            1481 rmoveto
            -194 -115 -139 -212 -9 hvcurveto
            64 hlineto
            108 21 83 65 142 hhcurveto
            115 77 -62 -83 -10 -1 -11 -2 -7 hvcurveto
            64 hlineto
            12 30 8 37 36 vvcurveto
            141 -107 107 -158 vhcurveto
            return
          </CharString>
          <CharString index="312">
            1154 rmoveto
            163 149 90 193 59 hvcurveto
            -64 21 rlineto
            -159 -52 -113 -77 -132 hhcurveto
            -47 -40 12 19 -31 hvcurveto
            60 53 54 67 73 -56 53 -69 -79 -53 -61 -77 -123 104 -85 148 hvcurveto
            return
          </CharString>
          <CharString index="313">
            -477 rmoveto
            82 75 34 48 45 hvcurveto
            13 58 rlineto
            -17 -27 -33 -10 -34 hhcurveto
            -62 -40 30 67 78 53 89 152 90 hvcurveto
            75 44 -65 0 -91 -45 rlineto
            -242 -128 -80 -87 -101 vvcurveto
            -90 74 -60 105 vhcurveto
            endchar
          </CharString>
          <CharString index="314">
            -91 -374 rlineto
            54 hlineto
            98 230 73 58 221 14 rrcurveto
            68 3 -253 -1191 -18 -87 -23 -20 -147 -18 rlinecurve
            -13 -59 614 0 13 59 rlineto
            -139 19 -17 19 19 87 110 return
          </CharString>
          <CharString index="315">
            rrcurveto
            211 8 139 85 145 hhcurveto
            46 42 -9 -16 35 hvcurveto
            -49 -12 -37 -41 -59 vvcurveto
            -64 47 -55 72 67 53 53 68 122 -128 98 -208 -256 -240 -148 -295 -11 vhcurveto
            return
          </CharString>
          <CharString index="316">
            -119 -26 hvcurveto
            -101 -477 rlineto
            -161 -34 56 -74 127 hhcurveto
            105 110 49 67 51 hvcurveto
            13 61 rlineto
            -26 -30 -45 -13 -33 hhcurveto
            -48 -19 31 66 14 hvcurveto
            98 456 rlineto
            218 46 return
          </CharString>
          <CharString index="317">
            1500 rmoveto
            -96 -78 -43 -67 -44 hvcurveto
            -12 -53 rlineto
            25 31 45 15 49 hhcurveto
            72 38 -31 -51 -58 -57 -59 -101 -57 hvcurveto
            74 hlineto
            172 57 92 72 96 vvcurveto
            89 -76 65 -109 vhcurveto
            return
          </CharString>
          <CharString index="318">
            1218 1136 hmoveto
            102 410 rlineto
            -54 hlineto
            -112 -267 -111 -53 -291 -12 rrcurveto
            -252 -9 997 1319 12 -37 callgsubr
            21 callgsubr
            return
          </CharString>
          <CharString index="319">
            93 hhcurveto
            132 131 84 190 92 hvcurveto
            -41 35 -49 -81 -55 -30 -58 1 rlinecurve
            -77 -57 24 67 -113 hvcurveto
            -82 50 570 617 12 58 -721 64 callgsubr
            endchar
          </CharString>
          <CharString index="320">
            -43 -4 -163 rlinecurve
            51 hlineto
            103 484 rlineto
            -51 hlineto
            -63 -157 -38 -39 -110 -4 rrcurveto
            -211 -3 128 602 200 -8 240 -11 54 -52 11 -234 rlinecurve
            53 hlineto
            return
          </CharString>
          <CharString index="321">
            -102 -482 rcurveline
            -202 -43 68 -135 192 hhcurveto
            137 144 80 191 82 hvcurveto
            -171 -19 74 -100 174 hhcurveto
            139 148 89 199 80 hvcurveto
            -1 -6 return
          </CharString>
          <CharString index="322">
            1148 971 1416 rmoveto
            100 98 callgsubr
            -7 callgsubr
            31 22 46 hhcurveto
            27 27 -8 -14 37 hvcurveto
            29 -12 rlineto
            -16 41 41 -12 47 hhcurveto
            return
          </CharString>
          <CharString index="323">
            0 -12 -59 rlineto
            145 -18 29 -40 -30 -132 -37 -160 -31 -126 -55 -195 -72 -273 -65 -201 -86 -107 rrcurveto
            86 -61 62 -84 -90 -63 -69 -83 return
          </CharString>
          <CharString index="324">
            -32 -43 -13 -33 hhcurveto
            -48 -20 31 66 14 hvcurveto
            169 787 -410 -52 -11 55 callgsubr
            -95 -110 -112 hhcurveto
            -95 -34 71 125 26 hvcurveto
            endchar
          </CharString>
          <CharString index="325">
            -76 -69 -229 -28 hvcurveto
            66 hlineto
            105 19 29 34 44 hhcurveto
            return
          </CharString>
          <CharString index="326">
            -78 -67 -94 hhcurveto
            -40 -35 10 16 -26 hvcurveto
            29 10 19 27 return
          </CharString>
          <CharString index="327">
            hvcurveto
            51 -1 -47 38 -58 hhcurveto
            -57 -43 -38 -51 hvcurveto
            -52 1 return
          </CharString>
          <CharString index="328">
            hhcurveto
            309 96 callgsubr
            -101 -339 -205 hhcurveto
            return
          </CharString>
          <CharString index="329">
            rmoveto
            -231 -372 76 0 450 363 rlineto
            9 vlineto
            return
          </CharString>
          <CharString index="330">
            rmoveto
            -200 -285 64 0 397 278 rlineto
            7 vlineto
            return
          </CharString>
          <CharString index="331">
            rmoveto
            -177 -103 -122 -184 -6 hvcurveto
            59 hlineto
            95 18 return
          </CharString>
          <CharString index="332">
            hlineto
            173 57 92 72 96 vvcurveto
            89 -76 65 -109 vhcurveto
            return
          </CharString>
          <CharString index="333">
            hlineto
            12 30 8 37 36 vvcurveto
            141 -106 107 -158 vhcurveto
            return
          </CharString>
        <CharString name=".notdef">
          2048 40 -494 rmoveto
          118 hlineto
          519 2444 rlineto
          -118 hlineto
          -108 58 callgsubr
          -110 -2444 rmoveto
          118 hlineto
          519 2444 rlineto
          -118 hlineto
          -109 -2444 rmoveto
          118 hlineto
          519 2444 rlineto
          -118 hlineto
          -109 58 callgsubr
          endchar
        </CharString>
        <CharString name=".null">
          0 endchar
        </CharString>
        <CharString name="A">
          1369 1241 263 -98 callsubr
        </CharString>
        <CharString name="AE">
          1926 2082 1444 125 callsubr
        </CharString>
        <CharString name="AEacute">
          1926 1597 -70 callsubr
          224 -383 125 callsubr
        </CharString>
        <CharString name="AEmacron">
          1926 1248 -19 callsubr
          15 callsubr
          805 -305 125 callsubr
        </CharString>
        <CharString name="Aacute">
          1369 1102 -70 callsubr
          -122 -1564 -98 callsubr
        </CharString>
        <CharString name="Abreve">
          1369 1034 0 callsubr
          -2 callsubr
          103 callgsubr
          2 96 -93 144 hhcurveto
          207 -1313 -98 callsubr
        </CharString>
        <CharString name="Abreveacute">
          1369 1350 1852 rmoveto
          30 137 -615 -166 -11 -51 rlineto
          239 -237 -49 callsubr
          81 callsubr
        </CharString>
        <CharString name="Abrevecyrillic">
          1369 994 -57 callgsubr
          42 callgsubr
          -28 hvcurveto
          51 35 callgsubr
          247 -1324 -98 callsubr
        </CharString>
        <CharString name="Abrevedotbelow">
          1369 1034 0 callsubr
          -2 callsubr
          103 callgsubr
          2 96 -93 144 hhcurveto
          207 -1313 rmoveto
          -38 callsubr
          28 callsubr
          -340 -749 -96 callsubr
          65 69 56 callsubr
        </CharString>
        <CharString name="Abrevegrave">
          1369 772 -58 callgsubr
          166 rlineto
          193 -454 -49 callsubr
          81 callsubr
        </CharString>
        <CharString name="Abrevehookabove">
          1369 1068 1981 rmoveto
          -82 -71 -32 -35 -43 hvcurveto
          -9 -42 rlineto
          13 26 48 13 46 hhcurveto
          66 34 -24 -35 -8 hvcurveto
          -7 -35 -40 -25 -77 -16 rrcurveto
          46 -32 137 24 82 38 15 73 rlinecurve
          72 16 -77 43 -102 hhcurveto
          -75 -446 -49 callsubr
          81 callsubr
        </CharString>
        <CharString name="Abrevetilde">
          1369 1172 1800 rmoveto
          101 80 59 114 24 hvcurveto
          -68 hlineto
          -47 -10 -32 -19 -46 107 callsubr
          -43 11 -48 hhcurveto
          -101 162 callsubr
          37 hvcurveto
          32 -10 rlineto
          -14 42 42 -10 49 hhcurveto
          -179 -265 -49 callsubr
          81 callsubr
        </CharString>
        <CharString name="Acaron">
          1369 1257 -74 callsubr
          -86 -1582 -98 callsubr
        </CharString>
        <CharString name="Acircumflex">
          1369 802 -79 callsubr
          -96 callgsubr
          116 callsubr
          506 -1279 -98 callsubr
        </CharString>
        <CharString name="Acircumflexacute">
          1369 1346 12 callgsubr
          61 callgsubr
          534 -1288 -98 callsubr
        </CharString>
        <CharString name="Acircumflexdotbelow">
          1369 802 -79 callsubr
          -96 callgsubr
          116 callsubr
          506 -1279 rmoveto
          -38 callsubr
          28 callsubr
          -340 -749 -96 callsubr
          65 69 56 callsubr
        </CharString>
        <CharString name="Acircumflexgrave">
          1369 767 4 callgsubr
          534 -1288 -98 callsubr
        </CharString>
        <CharString name="Acircumflexhookabove">
          1369 1322 1931 rmoveto
          -79 -67 -32 -35 -43 hvcurveto
          -9 -42 rlineto
          14 26 47 11 44 hhcurveto
          63 32 -23 -35 -8 hvcurveto
          -8 -35 -38 -25 -73 -16 rrcurveto
          44 -32 131 24 78 38 16 73 rlinecurve
          72 15 -74 43 -97 hhcurveto
          -626 -433 8 callsubr
          534 -1288 -98 callsubr
        </CharString>
        <CharString name="Acircumflextilde">
          1369 1168 160 callsubr
          -29 6 13 -37 hvcurveto
          -31 10 rlineto
          13 -43 -42 11 -49 hhcurveto
          -101 -80 -59 -114 -24 hvcurveto
          68 hlineto
          46 11 31 19 47 hhcurveto
          28 28 -6 -13 37 hvcurveto
          31 -10 rlineto
          -14 43 42 -10 49 hhcurveto
          -472 -281 8 callsubr
          534 -1288 -98 callsubr
        </CharString>
        <CharString name="Acyrillic">
          1369 1241 263 -98 callsubr
        </CharString>
        <CharString name="Adblgrave">
          1369 831 1825 57 callgsubr
          54 hlineto
          80 -1277 -98 callsubr
        </CharString>
        <CharString name="Adieresis">
          1369 861 38 callsubr
          52 51 62 60 -45 46 -60 -40 callsubr
          61 hvcurveto
          59 -1312 -98 callsubr
        </CharString>
        <CharString name="Adieresismacron">
          1369 766 1828 rmoveto
          580 hlineto
          22 104 rlineto
          -579 hlineto
          48 -375 -72 callgsubr
          -10 hlineto
          -54 -50 -35 -48 -11 hvcurveto
          -49 -10 35 -35 54 hhcurveto
          328 hmoveto
          54 50 35 49 11 hvcurveto
          48 11 -36 35 -54 hhcurveto
          -10 hlineto
          -54 -50 -35 -48 -11 hvcurveto
          -49 -10 35 -35 54 hhcurveto
          96 -1294 -98 callsubr
        </CharString>
        <CharString name="Adotaccent">
          1369 1022 -27 callsubr
          -66 -68 -22 callsubr
          219 -1304 -98 callsubr
        </CharString>
        <CharString name="Adotbelow">
          1369 1241 263 rmoveto
          -38 callsubr
          28 callsubr
          -340 -749 -96 callsubr
          65 69 56 callsubr
        </CharString>
        <CharString name="Adotmacron">
          1369 761 5 callgsubr
          -1 hvcurveto
          51 -48 38 -57 -57 -44 -38 -51 1 vhcurveto
          -52 47 -37 58 vhcurveto
          222 -1289 -98 callsubr
        </CharString>
        <CharString name="Agrave">
          1369 982 166 callsubr
          166 -1277 -98 callsubr
        </CharString>
        <CharString name="Ahookabove">
          1369 1058 -86 callgsubr
          27 40 86 callsubr
          -97 vhcurveto
          183 -1602 -98 callsubr
        </CharString>
        <CharString name="Ainvertedbreve">
          1369 1034 1882 11 callgsubr
          -73 -10 0 59 callsubr
          -55 callgsubr
          207 -1619 -98 callsubr
        </CharString>
        <CharString name="Alphagreek">
          1369 1241 263 -98 callsubr
        </CharString>
        <CharString name="Alphatonosgreek">
          1369 1241 263 rmoveto
          -38 callsubr
          16 -146 -28 -41 -138 -19 rlinecurve
          -12 -59 598 0 -35 callgsubr
          -785 1181 -107 callgsubr
          -210 -869 rmoveto
          330 625 68 -625 rlineto
          endchar
        </CharString>
        <CharString name="Amacron">
          1369 754 -70 callgsubr
          459 -1486 -98 callsubr
        </CharString>
        <CharString name="Aogonek">
          1369 1030 59 callgsubr
          -30 hhcurveto
          -63 -43 66 97 66 25 68 53 58 hvcurveto
          253 hlineto
          -35 callgsubr
          -38 callsubr
          rlineto
          16 -146 -28 -41 -138 -19 -12 -59 rcurveline
          278 68 callgsubr
          -523 1054 rmoveto
          330 625 68 -625 rlineto
          endchar
        </CharString>
        <CharString name="Aring">
          1369 798 1724 rmoveto
          -105 99 -64 120 155 101 81 108 105 -99 64 -120 -156 -100 -82 -107 vhcurveto
          153 -23 rmoveto
          84 45 70 56 43 25 -32 -56 -83 -45 -71 -55 -44 -25 32 56 vhcurveto
          290 -1438 -98 callsubr
        </CharString>
        <CharString name="Aringacute">
          1369 1347 1835 -43 callgsubr
          270 -230 rmoveto
          131 94 39 60 13 hvcurveto
          61 13 -77 39 -132 hhcurveto
          -60 hlineto
          -129 -96 -39 -61 -13 hvcurveto
          -60 -12 78 -39 130 hhcurveto
          59 45 rmoveto
          -38 hlineto
          -44 -19 22 32 7 hvcurveto
          33 6 30 22 43 hhcurveto
          39 hlineto
          44 19 -22 -33 -7 hvcurveto
          -32 -6 -30 -22 -44 hhcurveto
          221 -1307 -98 callsubr
        </CharString>
        <CharString name="Aringbelow">
          1369 1241 263 rmoveto
          -38 callsubr
          28 callsubr
          -609 -876 rmoveto
          -104 2 112 -63 133 hhcurveto
          172 111 82 105 -4 hvcurveto
          104 -3 -110 62 -134 hhcurveto
          -173 -10 callgsubr
          -60 hhcurveto
          -49 -29 29 54 -2 hvcurveto
          endchar
        </CharString>
        <CharString name="Atilde">
          1369 1123 134 callsubr
          26 20 40 callsubr
          118 -1319 -98 callsubr
        </CharString>
        <CharString name="B">
          1353 1362 448 70 callsubr
        </CharString>
        <CharString name="Bdotaccent">
          1353 963 -60 callsubr
          106 callsubr
          399 -1119 70 callsubr
        </CharString>
        <CharString name="Bdotbelow">
          196 callsubr
          -450 -620 -96 callsubr
          -25 callsubr
        </CharString>
        <CharString name="Becyrillic">
          1337 1362 464 rmoveto
          222 -190 144 -351 vhcurveto
          -152 hlineto
          115 544 210 -8 270 -10 47 -53 7 -218 rlinecurve
          53 hlineto
          62 359 -1075 0 -13 -59 rlineto
          128 -18 16 -17 -19 -92 -228 -1072 rcurveline
          -19 -91 -24 -18 -135 -18 -12 -59 rcurveline
          593 hlineto
          419 298 177 287 hvcurveto
          -306 11 rmoveto
          -228 -158 -164 -295 -10 vhcurveto
          -96 -3 146 687 107 -2 rlineto
          187 -3 109 -93 -184 vvcurveto
          endchar
        </CharString>
        <CharString name="Betagreek">
          1353 1362 448 70 callsubr
        </CharString>
        <CharString name="Blinebelow">
          196 callsubr
          -733 -805 -76 callsubr
        </CharString>
        <CharString name="C">
          1394 556 575 -57 callsubr
          -7 callsubr
        </CharString>
        <CharString name="Cacute">
          1394 1239 -82 callsubr
          -81 callsubr
          -943 -1252 -57 callsubr
          -7 callsubr
        </CharString>
        <CharString name="Ccaron">
          1394 1393 86 callgsubr
          128 -285 157 0 244 285 rlineto
          -907 -1270 -57 callsubr
          -7 callsubr
        </CharString>
        <CharString name="Ccedilla">
          1394 556 575 -57 callsubr
          -4 -414 269 -230 326 -29 rrcurveto
          -123 -135 -81 callgsubr
          -38 -29 -65 -52 -47 17 26 -53 callgsubr
          152 94 76 108 105 -81 68 -122 4 hvcurveto
          72 78 rlineto
          174 144 callsubr
        </CharString>
        <CharString name="Ccedillaacute">
          1394 1239 -82 callsubr
          -81 callsubr
          -943 -1252 -57 callsubr
          -4 -414 269 -230 326 -29 rrcurveto
          -123 -135 -81 callgsubr
          -38 -29 -65 -52 -47 17 26 -53 callgsubr
          152 94 76 108 105 -81 68 -122 4 hvcurveto
          72 78 rlineto
          174 144 callsubr
        </CharString>
        <CharString name="Ccircumflex">
          1394 938 -79 callsubr
          -71 callsubr
          -69 callsubr
          -315 -967 -57 callsubr
          -7 callsubr
        </CharString>
        <CharString name="Cdotaccent">
          1394 1158 -60 callsubr
          -49 50 -66 -69 -22 callsubr
          -602 -992 -57 callsubr
          -7 callsubr
        </CharString>
        <CharString name="Checyrillic">
          1536 1091 185 rmoveto
          -19 -91 -25 -18 -141 -17 rrcurveto
          -12 -59 590 0 13 59 -118 16 -18 17 20 94 rlinecurve
          227 1072 20 93 25 18 126 16 rlinecurve
          12 59 -572 0 -13 -59 rlineto
          117 -16 16 -18 -20 -93 -114 -537 rcurveline
          -29 -87 -85 -21 -106 hhcurveto
          -198 -84 116 236 51 hvcurveto
          50 236 20 92 22 20 121 14 rlinecurve
          12 59 -568 0 -12 -59 rlineto
          119 -16 16 -18 -19 -92 -47 -221 rcurveline
          -312 -67 167 -149 338 hhcurveto
          142 97 28 39 102 hvcurveto
          endchar
        </CharString>
        <CharString name="Chigreek">
          1326 323 285 18 callsubr
        </CharString>
        <CharString name="D">
          1528 -24 callsubr
          -64 callsubr
          endchar
        </CharString>
        <CharString name="Dbar">
          1528 203 705 rmoveto
          143 hlineto
          -110 -519 rlineto
          -20 -91 -22 -19 -129 -17 -12 -59 rcurveline
          524 hlineto
          578 438 328 496 382 -289 238 -447 hvcurveto
          -497 111 callsubr
          -103 -483 rcurveline
          -144 hlineto
          1055 91 -74 callgsubr
          135 636 250 0 15 70 -250 0 128 600 71 -3 rlineto
          285 -16 138 -213 -277 vvcurveto
          endchar
        </CharString>
        <CharString name="Dcaron">
          1528 1246 -74 callsubr
          277 -1021 26 callsubr
          -64 callsubr
          endchar
        </CharString>
        <CharString name="Dcircumflexbelow">
          1528 -24 callsubr
          -64 callsubr
          -900 -1323 93 callsubr
        </CharString>
        <CharString name="Dcommaaccent">
          1528 -24 callsubr
          -64 callsubr
          -695 -1330 rmoveto
          151 159 callsubr
          117 callsubr
          -50 callgsubr
        </CharString>
        <CharString name="Ddotaccent">
          1528 1011 -60 callsubr
          -50 50 17 callsubr
          582 -743 26 callsubr
          -64 callsubr
          endchar
        </CharString>
        <CharString name="Ddotbelow">
          1528 -24 callsubr
          -64 callsubr
          -662 -1040 -96 callsubr
          65 69 56 callsubr
        </CharString>
        <CharString name="Decyrillic">
          1463 641 917 rmoveto
          34 125 55 234 21 90 rrcurveto
          493 hlineto
          -275 -1288 rlineto
          -674 hlineto
          122 130 115 252 109 457 rrcurveto
          815 -839 rmoveto
          -198 hlineto
          252 1180 19 92 25 18 126 17 rlinecurve
          13 59 -1203 0 -13 -59 rlineto
          148 -18 28 -40 -33 -148 -20 -85 -27 -105 -20 -70 -106 -437 -119 -277 -146 -127 rrcurveto
          -137 hlineto
          -92 -401 rlineto
          63 hlineto
          259 127 47 64 219 hhcurveto
          650 hlineto
          216 31 -56 -267 15 hvcurveto
          63 hlineto
          endchar
        </CharString>
        <CharString name="Deltagreek">
          1282 46 hmoveto
          1152 hlineto
          11 57 -193 1391 -181 0 -777 -1391 rlineto
          105 18 rmoveto
          604 1110 131 -1110 rlineto
          endchar
        </CharString>
        <CharString name="Djecyrillic">
          1713 1713 425 rmoveto
          263 -171 139 -290 -122 -91 -19 -29 -84 vhcurveto
          49 callgsubr
          65 374 -1195 0 207 callsubr
          516 rcurveline
          21 70 70 12 85 hhcurveto
          171 92 -94 -191 -315 -153 -308 -298 -157 hvcurveto
          18 -51 rlineto
          440 136 280 307 365 vvcurveto
          endchar
        </CharString>
        <CharString name="Dlinebelow">
          1528 -24 callsubr
          -64 callsubr
          -945 -1225 rmoveto
          529 hlineto
          30 138 rlineto
          -530 hlineto
          endchar
        </CharString>
        <CharString name="Dzecyrillic">
          1140 590 -25 66 callsubr
          endchar
        </CharString>
        <CharString name="Dzhecyrillic">
          1558 158 callsubr
          512 hlineto
          114 16 -34 -288 -15 hvcurveto
          63 hlineto
          288 107 31 34 114 hhcurveto
          513 hlineto
          12 59 -120 17 -17 18 20 92 rlinecurve
          227 1072 20 92 23 18 128 57 callsubr
          114 -16 18 -19 -20 -92 rlinecurve
          -252 -1182 -589 0 252 1182 19 93 23 52 callgsubr
        </CharString>
        <CharString name="E">
          1225 1409 1444 -93 callsubr
        </CharString>
        <CharString name="Eacute">
          1225 1051 -70 callsubr
          97 -383 -93 callsubr
        </CharString>
        <CharString name="Ebreve">
          1225 983 0 callsubr
          -2 callsubr
          -65 callgsubr
          426 -132 -93 callsubr
        </CharString>
        <CharString name="Ecaron">
          1225 1206 61 callsubr
          -161 164 callsubr
          133 -401 -93 callsubr
        </CharString>
        <CharString name="Ecedilla">
          1225 551 -464 rmoveto
          101 callsubr
          90 98 1 5 466 -30 callsubr
          65 374 -1041 0 -53 callsubr
          551 0 -143 -157 3 callsubr
          108 callsubr
          -62 callgsubr
        </CharString>
        <CharString name="Ecedillabreve">
          1225 983 0 callsubr
          -2 callsubr
          -65 callgsubr
          -432 -2040 rmoveto
          101 callsubr
          90 98 1 5 466 -30 callsubr
          65 374 -1041 0 -53 callsubr
          551 0 -143 -157 3 callsubr
          108 callsubr
          -62 callgsubr
        </CharString>
        <CharString name="Ecircumflex">
          1225 751 -79 callsubr
          162 -145 64 0 -128 116 callsubr
          725 -98 -93 callsubr
        </CharString>
        <CharString name="Ecircumflexacute">
          1225 1294 12 callgsubr
          272 -86 10 53 -232 -45 callsubr
          753 -107 -93 callsubr
        </CharString>
        <CharString name="Ecircumflexbelow">
          1225 1409 1444 rmoveto
          -1041 hlineto
          -53 callsubr
          1090 -30 callsubr
          -1008 -1527 30 callsubr
        </CharString>
        <CharString name="Ecircumflexdotbelow">
          1225 751 -79 callsubr
          162 -145 64 0 -128 116 callsubr
          725 -98 rmoveto
          -1041 hlineto
          -53 callsubr
          1090 -30 callsubr
          -770 -1244 -96 callsubr
          -25 callsubr
        </CharString>
        <CharString name="Ecircumflexgrave">
          1225 715 1831 rmoveto
          563 -80 10 51 -545 166 rlineto
          -99 -470 rmoveto
          308 86 272 -86 10 53 -232 -45 callsubr
          753 -107 -93 callsubr
        </CharString>
        <CharString name="Ecircumflexhookabove">
          1225 1270 1931 rmoveto
          -78 -68 -32 -35 -42 hvcurveto
          -9 -42 rlineto
          14 0 callgsubr
          78 38 16 73 rlinecurve
          72 15 -73 43 -98 hhcurveto
          -626 -433 rmoveto
          308 86 272 -86 10 53 -232 -45 callsubr
          753 -107 -93 callsubr
        </CharString>
        <CharString name="Ecircumflextilde">
          1225 1116 160 callsubr
          -33 callgsubr
          -43 11 -49 hhcurveto
          -100 162 callsubr
          38 hvcurveto
          30 -10 rlineto
          -14 43 42 -10 49 hhcurveto
          -472 -281 rmoveto
          308 86 272 -86 10 53 -232 -45 callsubr
          753 -107 -93 callsubr
        </CharString>
        <CharString name="Ecyrillic">
          1402 558 575 rmoveto
          42 3 41 4 41 vhcurveto
          625 -11 20 97 -635 -10 rlineto
          349 57 207 261 268 hhcurveto
          202 118 -127 -266 8 hvcurveto
          53 -3 62 342 rlineto
          70 -92 -185 68 -218 hhcurveto
          -472 -335 -331 -487 -4 hvcurveto
          -443 -3 308 -233 356 hhcurveto
          178 154 41 64 91 hvcurveto
          74 350 -54 -1 rlineto
          -232 -91 -152 -138 -177 hhcurveto
          -221 -149 214 302 hvcurveto
          endchar
        </CharString>
        <CharString name="Edblgrave">
          1225 779 1825 rmoveto
          -204 -5 hlineto
          232 -82 callgsubr
          163 -280 rlineto
          54 hlineto
          299 -96 -93 callsubr
        </CharString>
        <CharString name="Edieresis">
          1225 810 38 callsubr
          82 callsubr
          278 -131 -93 callsubr
        </CharString>
        <CharString name="Edotaccent">
          1225 970 1567 rmoveto
          69 104 callsubr
          50 -49 65 hvcurveto
          439 -123 -93 callsubr
        </CharString>
        <CharString name="Edotbelow">
          1225 1409 1444 rmoveto
          -1041 hlineto
          -53 callsubr
          1090 -30 callsubr
          -770 -1244 -96 callsubr
          -25 callsubr
        </CharString>
        <CharString name="Efcyrillic">
          1899 200 675 rmoveto
          -272 236 -166 414 -24 vhcurveto
          -12 -54 -18 -87 -22 -20 -134 -15 rlinecurve
          -12 -59 578 0 13 59 rlineto
          -124 16 -18 19 18 87 11 52 rcurveline
          587 19 281 222 317 vvcurveto
          272 -238 167 -415 23 vhcurveto
          12 54 18 87 23 20 132 15 rlinecurve
          13 59 -579 0 -12 -59 rlineto
          125 -16 17 -19 -19 -87 -11 -52 rcurveline
          -584 -21 -280 -221 -316 vvcurveto
          318 -15 rmoveto
          280 161 189 369 27 vhcurveto
          -182 -865 rlineto
          -243 31 -105 141 197 vvcurveto
          1162 124 rmoveto
          -281 -162 -188 -372 -27 vhcurveto
          183 865 rlineto
          244 -31 107 -141 -197 vvcurveto
          endchar
        </CharString>
        <CharString name="Egrave">
          1225 931 -3 callsubr
          385 -96 -93 callsubr
        </CharString>
        <CharString name="Ehookabove">
          1225 1006 -1 callgsubr
          403 -421 -93 callsubr
        </CharString>
        <CharString name="Einvertedbreve">
          1225 983 1882 224 callsubr
          75 57 129 hhcurveto
          103 70 -53 -73 -10 0 59 callsubr
          -55 callgsubr
          426 -438 -93 callsubr
        </CharString>
        <CharString name="Elcyrillic">
          1478 206 -25 rmoveto
          209 107 235 501 132 hvcurveto
          66 241 50 200 48 216 rrcurveto
          468 hlineto
          -252 -1182 -20 -93 -21 -17 -126 -17 -92 callgsubr
          -118 16 -19 18 20 97 callgsubr
          13 59 -1179 216 callsubr
          -89 62 -65 101 vhcurveto
          endchar
        </CharString>
        <CharString name="Emacron">
          1225 702 -19 callsubr
          15 callsubr
          678 -305 -93 callsubr
        </CharString>
        <CharString name="Emacronacute">
          1225 1299 1852 -43 callgsubr
          -40 -184 rmoveto
          580 hlineto
          22 106 rlineto
          -579 hlineto
          723 -250 -93 callsubr
        </CharString>
        <CharString name="Emacrongrave">
          1225 720 -58 callgsubr
          167 rlineto
          -85 -402 rmoveto
          580 hlineto
          22 106 rlineto
          -579 hlineto
          723 -250 -93 callsubr
        </CharString>
        <CharString name="Emcyrillic">
          1788 825 1444 22 callsubr
        </CharString>
        <CharString name="Encyrillic">
          1569 525 -18 callsubr
          -15 callsubr
          -77 callgsubr
          endchar
        </CharString>
        <CharString name="Eogonek">
          1225 902 -479 rmoveto
          83 67 38 56 32 hvcurveto
          12 58 rlineto
          -17 -18 -26 -11 -30 hhcurveto
          -64 -42 66 97 66 26 68 52 58 hvcurveto
          157 hlineto
          149 callsubr
          107 -3 20 -43 -4 -163 rlinecurve
          51 hlineto
          103 484 rlineto
          -51 hlineto
          -63 -157 -38 -39 -110 -4 rrcurveto
          -211 -3 128 602 200 -8 240 -11 55 -52 10 -234 rlinecurve
          53 hlineto
          65 374 -1041 0 -12 -59 rlineto
          121 -17 15 -19 -19 -91 -229 -1072 rcurveline
          -19 -91 -22 -19 -129 -17 -13 -59 rcurveline
          866 68 callgsubr
          endchar
        </CharString>
        <CharString name="Epsilongreek">
          1225 1409 1444 -93 callsubr
        </CharString>
        <CharString name="Epsilontonosgreek">
          1587 1771 1444 rmoveto
          -1041 hlineto
          -53 callsubr
          1090 0 149 callsubr
          108 -3 19 213 callsubr
          -1339 374 -107 callgsubr
          endchar
        </CharString>
        <CharString name="Ercyrillic">
          1316 651 hmoveto
          21 callsubr
        </CharString>
        <CharString name="Ereversedcyrillic">
          1439 426 1355 rmoveto
          -79 -336 rlineto
          54 hlineto
          261 99 154 108 172 hhcurveto
          252 115 -238 -309 -23 -1 -23 -1 -23 hvcurveto
          -624 11 -21 -98 638 9 rlineto
          -342 -44 -195 -298 -304 hhcurveto
          -232 -110 158 203 -8 hvcurveto
          -53 hlineto
          -46 -322 rlineto
          -63 78 182 -55 198 hhcurveto
          508 350 347 462 413 -271 272 -401 -152 -159 -43 -71 -99 hvcurveto
          endchar
        </CharString>
        <CharString name="Escyrillic">
          1394 556 575 -57 callsubr
          -7 callsubr
        </CharString>
        <CharString name="Etagreek">
          1569 525 -18 callsubr
          -15 callsubr
          -77 callgsubr
          endchar
        </CharString>
        <CharString name="Etatonosgreek">
          1940 896 -18 callsubr
          598 0 -109 -515 -19 -91 -24 -20 -123 -16 rlinecurve
          -13 -59 573 0 12 59 -120 16 -17 21 20 92 rlinecurve
          228 1068 19 91 25 22 128 16 rlinecurve
          12 59 -573 0 -13 -59 117 -16 15 -19 -19 -92 rlinecurve
          -103 -482 -598 0 102 482 19 91 26 20 122 16 rlinecurve
          12 59 -573 0 -12 -59 121 -17 16 -21 -20 -91 rlinecurve
          -227 -1068 -20 -91 -23 -21 -129 -17 rlinecurve
          -13 -59 573 0 13 59 -115 16 -17 20 20 91 rlinecurve
          -529 1258 -107 callgsubr
          endchar
        </CharString>
        <CharString name="Etilde">
          1225 1072 134 callsubr
          25 21 40 callsubr
          337 -138 -93 callsubr
        </CharString>
        <CharString name="Etildebelow">
          1225 1409 1444 rmoveto
          -1041 hlineto
          -53 callsubr
          1090 -30 callsubr
          -667 -1489 rmoveto
          90 70 63 207 25 27 callgsubr
          -42 21 -53 hhcurveto
          -89 -71 -63 -206 -24 hvcurveto
          62 hlineto
          95 16 27 30 41 hhcurveto
          29 1 23 -13 32 -25 -36 callgsubr
        </CharString>
        <CharString name="F">
          1150 1383 1444 rmoveto
          -1013 hlineto
          121 callsubr
          188 callsubr
        </CharString>
        <CharString name="Fdotaccent">
          1149 965 -60 callsubr
          -49 50 -66 -69 -22 callsubr
          418 -123 rmoveto
          -1013 hlineto
          121 callsubr
          188 callsubr
        </CharString>
        <CharString name="G">
          1533 244 651 -39 callsubr
        </CharString>
        <CharString name="Gacute">
          1533 1231 -70 callsubr
          -1248 -1176 -39 callsubr
        </CharString>
        <CharString name="Gammagreek">
          1162 1402 1444 rmoveto
          -1037 hlineto
          -12 -59 128 -18 16 -17 -19 -92 rlinecurve
          -228 -1072 -20 -91 -23 -18 -136 -18 rlinecurve
          -12 -59 614 0 12 59 -147 20 -18 18 19 87 rlinecurve
          253 1191 191 -8 257 -11 43 -52 5 -219 rlinecurve
          52 hlineto
          endchar
        </CharString>
        <CharString name="Gbreve">
          1533 1163 0 callsubr
          -2 callsubr
          -65 callgsubr
          -919 -925 -39 callsubr
        </CharString>
        <CharString name="Gcaron">
          1533 1386 61 callsubr
          -42 callgsubr
          158 0 244 285 rlineto
          -1212 -1194 -39 callsubr
        </CharString>
        <CharString name="Gcircumflex">
          1533 931 1542 rmoveto
          231 145 -71 callsubr
          -152 0 -246 -285 rlineto
          -619 -891 -39 callsubr
        </CharString>
        <CharString name="Gcommaaccent">
          1533 244 651 rmoveto
          -438 -3 317 -238 354 hhcurveto
          173 194 49 80 106 hvcurveto
          87 403 18 86 21 23 116 15 rlinecurve
          13 59 -538 0 -13 -59 rlineto
          132 -17 11 -20 -18 -86 -83 -401 rcurveline
          -32 -41 -76 -16 -73 hhcurveto
          -227 -156 197 319 445 232 365 319 203 119 -127 -266 8 -4 callgsubr
          540 -1115 51 callsubr
          -92 -71 -58 -27 -45 -39 -50 callsubr
          -50 callgsubr
        </CharString>
        <CharString name="Gdotaccent">
          1533 1150 1567 rmoveto
          69 104 callsubr
          49 -49 66 hvcurveto
          -906 -916 -39 callsubr
        </CharString>
        <CharString name="Geacutecyrillic">
          1142 1007 -82 callsubr
          -81 callsubr
          122 -383 rmoveto
          -1029 152 callsubr
          -26 callgsubr
        </CharString>
        <CharString name="Gecyrillic">
          1142 1389 1444 rmoveto
          -1029 152 callsubr
          -26 callgsubr
        </CharString>
        <CharString name="Germandbls">
          1471 501 hmoveto
          290 1375 165 -6 rlineto
          224 -10 92 -91 -159 vvcurveto
          -151 -101 -100 -171 -25 vhcurveto
          -39 -184 rlineto
          173 -78 79 -115 -155 vvcurveto
          -152 -89 -94 -130 -127 -98 106 214 8 vhcurveto
          -55 hlineto
          -61 -305 rlineto
          -54 64 126 -41 145 hhcurveto
          250 223 157 270 193 -100 152 -179 87 hvcurveto
          186 15 158 102 184 vvcurveto
          194 -164 115 -312 vhcurveto
          -687 hlineto
          -13 -59 rlineto
          123 -17 16 -19 -19 -91 -227 -1072 rcurveline
          -19 -92 -23 -18 -130 -17 -13 -59 rcurveline
          endchar
        </CharString>
        <CharString name="Geupturncyrillic">
          1122 1352 1370 rmoveto
          93 407 rlineto
          -63 hlineto
          -272 -126 -58 -61 -216 hhcurveto
          -622 152 callsubr
          600 0 13 59 rlineto
          -135 19 -25 19 19 87 251 1186 rcurveline
          endchar
        </CharString>
        <CharString name="Gmacron">
          1533 882 -19 callsubr
          15 callsubr
          -667 -1098 -39 callsubr
        </CharString>
        <CharString name="H">
          1569 525 -18 callsubr
          -15 callsubr
          -77 callgsubr
          endchar
        </CharString>
        <CharString name="Hacyrillic">
          1326 323 285 18 callsubr
        </CharString>
        <CharString name="Hardsigncyrillic">
          1546 1614 488 rmoveto
          230 -193 145 -348 2 vhcurveto
          -146 1 84 393 19 90 25 18 134 18 rlinecurve
          13 59 -834 0 -87 -358 rlineto
          55 hlineto
          101 237 57 39 217 10 rrcurveto
          35 2 -253 -1190 rlineto
          -19 -88 -22 -20 -136 -17 -12 -59 rcurveline
          592 hlineto
          433 285 193 295 hvcurveto
          -306 17 rmoveto
          -243 -160 -179 -294 -10 vhcurveto
          -96 -3 154 723 101 -2 rlineto
          189 -5 106 -95 -186 vvcurveto
          endchar
        </CharString>
        <CharString name="Hbar">
          1569 525 -18 callsubr
          599 0 -110 -515 -19 -91 -22 -20 -123 -16 rlinecurve
          -12 -59 569 0 13 59 -121 16 -15 19 19 92 rlinecurve
          183 858 144 0 14 69 -143 0 31 145 19 91 23 20 128 16 rlinecurve
          12 59 -570 0 -12 -59 116 -16 14 -19 -20 -92 rlinecurve
          -31 -145 -598 0 31 145 19 91 23 20 122 16 rlinecurve
          12 59 -569 0 121 callsubr
          -31 -145 -144 0 -14 -69 143 0 -183 -858 -19 -91 -22 -19 -129 -17 rlinecurve
          -12 -59 570 0 12 59 -114 16 -15 20 19 91 rlinecurve
          125 590 rmoveto
          57 268 599 0 -57 -268 rlineto
          endchar
        </CharString>
        <CharString name="Hbrevebelow">
          1569 525 -18 callsubr
          -15 callsubr
          -77 callgsubr
          197 -634 rmoveto
          180 107 125 191 6 hvcurveto
          -59 hlineto
          -98 -19 -77 -58 -132 hhcurveto
          -106 -73 55 75 9 1 10 1 7 hvcurveto
          -59 hlineto
          -11 -27 -7 -34 1 -32 rrcurveto
          -127 1 98 -96 148 hhcurveto
          endchar
        </CharString>
        <CharString name="Hcaron">
          1569 1374 -74 callsubr
          -919 -1659 rmoveto
          55 callsubr
          -77 callgsubr
          endchar
        </CharString>
        <CharString name="Hcedilla">
          1569 239 92 callgsubr
          rlineto
          2 253 vlineto
          12 59 -114 16 -17 20 19 91 rlinecurve
          55 callsubr
          246 0 -140 -157 -11 -53 rlineto
          2 3 21 2 7 hhcurveto
          67 40 -30 -49 -47 -39 -29 -64 -52 78 callgsubr
        </CharString>
        <CharString name="Hcircumflex">
          1569 919 1541 rmoveto
          232 146 163 -146 63 0 -128 116 callsubr
          -327 -1355 rmoveto
          55 callsubr
          -77 callgsubr
          endchar
        </CharString>
        <CharString name="Hdieresis">
          1569 978 1575 rmoveto
          90 callsubr
          321 hmoveto
          62 52 50 63 59 -45 47 -60 -40 callsubr
          61 hvcurveto
          -774 -1389 rmoveto
          55 callsubr
          -77 callgsubr
          endchar
        </CharString>
        <CharString name="Hdotaccent">
          1569 1139 -27 callsubr
          -66 -68 -22 callsubr
          -614 -1381 rmoveto
          55 callsubr
          -77 callgsubr
          endchar
        </CharString>
        <CharString name="Hdotbelow">
          1569 525 -18 callsubr
          -15 callsubr
          -77 callgsubr
          201 -360 rmoveto
          -69 -55 -54 -67 -64 48 -50 66 69 56 callsubr
        </CharString>
        <CharString name="I">
          -4 callsubr
          -94 callsubr
          -95 callsubr
          -88 callsubr
        </CharString>
        <CharString name="IAcyrillic">
          1404 368 986 rmoveto
          -163 103 -100 156 -40 vhcurveto
          -257 -311 -140 -165 -115 -123 -86 -28 rlinecurve
          -13 -56 353 0 523 636 rlineto
          12 12 -1 13 hhcurveto
          127 hlineto
          -96 -449 -20 -93 -24 -18 -123 -16 rlinecurve
          -13 -59 573 0 12 59 rlineto
          -119 16 -17 17 20 94 227 1072 rcurveline
          20 92 22 18 128 17 13 59 rcurveline
          -584 hlineto
          -455 -252 -175 -283 hvcurveto
          297 -10 rmoveto
          230 151 155 300 11 vhcurveto
          96 2 -141 -665 -116 2 rlineto
          -183 2 -107 94 169 vvcurveto
          endchar
        </CharString>
        <CharString name="IJ">
          1367 1224 259 89 callsubr
          -13 -59 122 78 callsubr
          -699 -73 -85 callsubr
          -87 callsubr
          -94 callsubr
          -95 callsubr
          -88 callsubr
        </CharString>
        <CharString name="IJacute">
          1367 31 callgsubr
          413 -1 223 callsubr
          -487 -1568 89 callsubr
          -13 -59 122 78 callsubr
          -699 -73 -85 callsubr
          -87 callsubr
          -94 callsubr
          -95 callsubr
          -88 callsubr
        </CharString>
        <CharString name="IUcyrillic">
          2200 52 hmoveto
          572 hlineto
          13 59 rlineto
          -115 16 -18 19 19 92 109 514 rcurveline
          227 hlineto
          -2 -23 -1 -24 -23 vvcurveto
          -377 237 -277 387 455 334 371 468 376 -236 278 -388 -1 vhcurveto
          -406 -1 -311 -296 -61 -397 rrcurveto
          -219 hlineto
          103 484 19 92 24 18 124 17 rlinecurve
          13 59 -573 0 -13 -59 20 callgsubr
          1418 -3 rmoveto
          -219 -92 207 267 386 164 472 308 219 92 -207 -267 -386 -165 -472 -307 hvcurveto
          endchar
        </CharString>
        <CharString name="Iacute">
          682 31 callgsubr
          -512 -1642 -85 callsubr
          -87 callsubr
          -94 callsubr
          -95 callsubr
          -88 callsubr
        </CharString>
        <CharString name="Ibreve">
          682 708 1577 rmoveto
          177 103 122 184 -2 callsubr
          9 2 7 hvcurveto
          -58 hlineto
          -11 -27 -7 -33 -31 vvcurveto
          -122 1 97 -93 144 hhcurveto
          -183 -1391 -85 callsubr
          -87 callsubr
          -94 callsubr
          -95 callsubr
          -88 callsubr
        </CharString>
        <CharString name="Icaron">
          682 931 1846 rmoveto
          -231 -146 -42 callgsubr
          158 0 244 285 rlineto
          -476 -1660 -85 callsubr
          -87 callsubr
          -94 callsubr
          -95 callsubr
          -88 callsubr
        </CharString>
        <CharString name="Icircumflex">
          682 476 1542 rmoveto
          231 146 163 -146 63 0 -127 285 -69 callsubr
          117 -1356 -85 callsubr
          -87 callsubr
          -94 callsubr
          -95 callsubr
          -88 callsubr
        </CharString>
        <CharString name="Icyrillic">
          -4 callsubr
          -94 callsubr
          -95 callsubr
          -88 callsubr
        </CharString>
        <CharString name="Idblgrave">
          682 504 1826 rmoveto
          -204 -6 hlineto
          232 -279 rlineto
          58 hlineto
          224 285 rmoveto
          -196 -6 hlineto
          163 -279 rlineto
          54 hlineto
          -310 -1355 -85 callsubr
          -87 callsubr
          -94 callsubr
          -95 callsubr
          -88 callsubr
        </CharString>
        <CharString name="Idieresis">
          682 534 1576 rmoveto
          63 51 50 63 hvcurveto
          59 1 -45 47 -60 hhcurveto
          -40 callsubr
          60 hvcurveto
          322 hmoveto
          90 callsubr
          -331 -1390 -85 callsubr
          -87 callsubr
          -94 callsubr
          -95 callsubr
          -88 callsubr
        </CharString>
        <CharString name="Idieresisacute">
          682 1024 1852 rmoveto
          29 138 -615 -167 -11 -51 rlineto
          83 -215 rmoveto
          54 51 36 48 10 hvcurveto
          48 11 -36 36 -54 81 callgsubr
          328 hmoveto
          54 51 36 48 10 hvcurveto
          48 11 -35 36 -55 81 callgsubr
          -293 -1371 -85 callsubr
          -87 callsubr
          -94 callsubr
          -95 callsubr
          -88 callsubr
        </CharString>
        <CharString name="Idotaccent">
          682 695 1568 rmoveto
          69 104 callsubr
          49 -49 66 hvcurveto
          -170 -1382 -85 callsubr
          -87 callsubr
          -94 callsubr
          -95 callsubr
          -88 callsubr
        </CharString>
        <CharString name="Idotbelow">
          -4 callsubr
          -94 callsubr
          -95 callsubr
          -89 callgsubr
          -240 -360 rmoveto
          -69 -56 -54 -67 -64 49 -50 66 69 56 callsubr
        </CharString>
        <CharString name="Iecyrillic">
          1225 1409 1444 -93 callsubr
        </CharString>
        <CharString name="Igrave">
          682 656 1826 rmoveto
          -239 -7 hlineto
          276 -278 rlineto
          56 hlineto
          -224 -1355 -85 callsubr
          -87 callsubr
          -94 callsubr
          -95 callsubr
          -88 callsubr
        </CharString>
        <CharString name="Ihookabove">
          682 731 1865 rmoveto
          -83 -70 -36 -55 -38 hvcurveto
          -10 -45 rlineto
          21 28 40 13 44 hhcurveto
          64 34 -27 -43 -31 callgsubr
          47 81 63 81 vvcurveto
          75 -66 54 -98 vhcurveto
          -206 -1679 -85 callsubr
          -87 callsubr
          -94 callsubr
          -95 callsubr
          -88 callsubr
        </CharString>
        <CharString name="Iicyrillic">
          1580 52 hmoveto
          181 callsubr
        </CharString>
        <CharString name="Iinvertedbreve">
          682 708 1883 224 callsubr
          75 57 128 hhcurveto
          104 70 -54 -73 -9 -1 -9 -1 -7 hvcurveto
          58 hlineto
          11 26 7 33 32 vvcurveto
          122 -1 -97 93 -144 hhcurveto
          -183 -1697 -85 callsubr
          -87 callsubr
          -94 callsubr
          -95 callsubr
          -88 callsubr
        </CharString>
        <CharString name="Iishortcyrillic">
          1580 1124 -57 callgsubr
          42 callgsubr
          -27 hvcurveto
          50 35 callgsubr
          -1072 -1587 rmoveto
          181 callsubr
        </CharString>
        <CharString name="Imacron">
          682 427 -19 callsubr
          29 135 rlineto
          -514 hlineto
          69 -1564 -85 callsubr
          -87 callsubr
          -94 callsubr
          -95 callsubr
          -88 callsubr
        </CharString>
        <CharString name="Iocyrillic">
          1225 810 38 callsubr
          82 callsubr
          278 -131 -93 callsubr
        </CharString>
        <CharString name="Iogonek">
          -4 callsubr
          rlineto
          122 -15 14 -21 -19 -91 -229 -1072 rcurveline
          -19 -91 -22 -19 -129 -17 -12 -59 rcurveline
          267 hlineto
          -143 -89 -83 -110 -110 vvcurveto
          -100 84 -70 116 84 66 38 56 32 vhcurveto
          12 58 rlineto
          -17 -18 -26 -11 -30 hhcurveto
          -63 -42 66 97 66 24 68 53 58 hvcurveto
          243 hlineto
          13 59 -122 17 -14 19 19 91 rlinecurve
          endchar
        </CharString>
        <CharString name="Iotadieresisgreek">
          682 534 1576 rmoveto
          63 51 50 63 hvcurveto
          59 1 -45 47 -60 hhcurveto
          -40 callsubr
          60 hvcurveto
          322 hmoveto
          90 callsubr
          -331 -1390 -85 callsubr
          -87 callsubr
          -94 callsubr
          -95 callsubr
          -88 callsubr
        </CharString>
        <CharString name="Iotagreek">
          -4 callsubr
          -94 callsubr
          -95 callsubr
          -88 callsubr
        </CharString>
        <CharString name="Iotatonosgreek">
          1058 901 186 rmoveto
          227 1072 19 91 -87 callsubr
          -94 callsubr
          -228 -1072 -19 -91 -23 -19 -129 -17 rlinecurve
          -12 -59 576 0 13 59 -122 17 -14 19 20 91 rlinecurve
          -534 1258 -107 callgsubr
          endchar
        </CharString>
        <CharString name="Itilde">
          682 797 1583 rmoveto
          82 1 64 57 23 190 rrcurveto
          -58 hlineto
          -85 -16 -24 -28 -35 hhcurveto
          -26 -21 12 21 -28 hvcurveto
          -26 21 rlineto
          29 -38 -39 17 -47 hhcurveto
          -82 -64 -57 -189 -22 hvcurveto
          58 hlineto
          85 15 24 27 36 hhcurveto
          25 21 -12 -21 28 hvcurveto
          27 -21 rlineto
          -29 38 37 -18 48 hhcurveto
          -272 -1397 -85 callsubr
          -87 callsubr
          -94 callsubr
          -95 callsubr
          -88 callsubr
        </CharString>
        <CharString name="Itildebelow">
          -4 callsubr
          -94 callsubr
          -95 callsubr
          -89 callgsubr
          -138 -605 rmoveto
          91 99 callgsubr
          -29 -23 13 25 -31 hvcurveto
          -31 24 rlineto
          31 -42 -42 21 -53 hhcurveto
          -90 -70 -63 -206 65 callgsubr
        </CharString>
        <CharString name="J">
          685 542 259 89 callsubr
          120 callsubr
        </CharString>
        <CharString name="Jacute">
          685 768 -82 callsubr
          -81 callsubr
          -486 -1568 89 callsubr
          120 callsubr
        </CharString>
        <CharString name="Jcircumflex">
          685 467 -79 callsubr
          -71 callsubr
          -69 callsubr
          142 -1283 89 callsubr
          120 callsubr
        </CharString>
        <CharString name="Jecyrillic">
          685 542 259 89 callsubr
          120 callsubr
        </CharString>
        <CharString name="K">
          1374 527 186 -17 callsubr
        </CharString>
        <CharString name="Kaacutecyrillic">
          1374 1178 -70 callsubr
          -912 -1641 -17 callsubr
        </CharString>
        <CharString name="Kacute">
          1374 1178 -70 callsubr
          -912 -1641 -17 callsubr
        </CharString>
        <CharString name="Kacyrillic">
          1374 527 186 -17 callsubr
        </CharString>
        <CharString name="Kappagreek">
          1374 527 186 -17 callsubr
        </CharString>
        <CharString name="Kcaron">
          1374 1333 -74 callsubr
          -876 -1659 -17 callsubr
        </CharString>
        <CharString name="Kcommaaccent">
          126 callsubr
          160 -650 52 callsubr
          100 callgsubr
          -34 callgsubr
        </CharString>
        <CharString name="Kdotbelow">
          126 callsubr
          192 -360 -96 callsubr
          66 68 56 callsubr
        </CharString>
        <CharString name="Klinebelow">
          126 callsubr
          -91 -545 -76 callsubr
        </CharString>
        <CharString name="L">
          -5 callsubr
          endchar
        </CharString>
        <CharString name="Lacute">
          1159 769 -70 callsubr
          57 -1827 rmoveto
          -33 callsubr
          -14 callsubr
          endchar
        </CharString>
        <CharString name="Lambdagreek">
          1390 1249 245 rmoveto
          -155 1202 -186 0 -651 -1176 -95 -172 -33 -24 -114 -16 rlinecurve
          -13 -59 414 0 12 59 -145 21 -14 31 102 191 rlinecurve
          472 885 104 -941 14 -133 -21 -36 -142 -18 rlinecurve
          -13 -59 602 0 13 59 -104 14 -29 28 -18 144 rlinecurve
          endchar
        </CharString>
        <CharString name="Lcaron">
          1159 1095 1098 rmoveto
          284 417 -213 0 -131 -417 rlineto
          52 -1098 rmoveto
          -33 callsubr
          -14 callsubr
          endchar
        </CharString>
        <CharString name="Lcircumflexbelow">
          -5 callsubr
          250 -457 93 callsubr
        </CharString>
        <CharString name="Lcommaaccent">
          -5 callsubr
          455 -464 rmoveto
          151 159 callsubr
          117 callsubr
          -50 callgsubr
        </CharString>
        <CharString name="Ldot">
          -5 callsubr
          982 693 rmoveto
          81 64 64 79 75 -57 58 -78 -80 -66 -64 -80 -73 58 -59 78 hvcurveto
          endchar
        </CharString>
        <CharString name="Ldotbelow">
          -5 callsubr
          488 -174 -96 callsubr
          65 69 56 callsubr
        </CharString>
        <CharString name="Ldotbelowmacron">
          1159 421 -70 callgsubr
          638 -1749 rmoveto
          -33 callsubr
          -14 callsubr
          488 -174 -96 callsubr
          65 69 56 callsubr
        </CharString>
        <CharString name="Ljecyrillic">
          2050 43 129 rmoveto
          -89 62 -65 101 209 107 235 501 132 vhcurveto
          66 241 50 200 48 216 rrcurveto
          430 hlineto
          -251 -1184 rlineto
          -19 -88 -24 -19 -142 -18 -13 -59 rcurveline
          601 hlineto
          433 285 193 295 230 -193 147 -348 hvcurveto
          -147 hlineto
          85 394 19 90 24 18 135 18 rlinecurve
          12 59 -1150 216 callsubr
          vhcurveto
          1769 376 rmoveto
          -243 -160 -179 -294 -10 vhcurveto
          -96 -3 153 722 102 -1 rlineto
          188 -3 107 -97 -186 vvcurveto
          endchar
        </CharString>
        <CharString name="Llinebelow">
          -5 callsubr
          205 -359 rmoveto
          529 hlineto
          30 138 rlineto
          -530 hlineto
          endchar
        </CharString>
        <CharString name="Lslash">
          1159 189 639 rmoveto
          154 43 -106 -496 -19 -90 -22 -20 -129 -17 rlinecurve
          -13 -59 1033 0 -33 callsubr
          148 697 347 95 16 75 -348 -96 89 418 19 91 24 19 135 17 rlinecurve
          12 59 -583 0 -12 -59 120 -16 15 -23 -21 -99 rlinecurve
          -105 -491 -152 -42 rlineto
          endchar
        </CharString>
        <CharString name="M">
          1788 825 1444 22 callsubr
        </CharString>
        <CharString name="Macute">
          1788 1334 -82 callsubr
          -81 callsubr
          -769 -383 22 callsubr
        </CharString>
        <CharString name="Mdotaccent">
          1788 1253 -27 callsubr
          17 callsubr
          -428 -123 22 callsubr
        </CharString>
        <CharString name="Mdotbelow">
          1788 825 1444 rmoveto
          -444 hlineto
          -12 -59 116 -18 17 -37 -28 -115 rlinecurve
          -228 -948 -38 -153 -28 -35 -130 -20 rlinecurve
          -12 -59 402 0 13 59 -130 20 -11 32 34 156 rlinecurve
          207 962 181 -1229 137 0 179 341 501 899 -195 -1057 -16 -88 -23 -19 -130 -17 rlinecurve
          -13 -59 573 0 13 59 -21 callgsubr
          -232 -528 rmoveto
          -69 -56 -54 -67 -64 49 -50 66 69 56 callsubr
        </CharString>
        <CharString name="Mugreek">
          1788 825 1444 22 callsubr
        </CharString>
        <CharString name="N">
          1464 752 1444 -80 callsubr
          6 callsubr
          endchar
        </CharString>
        <CharString name="Nacute">
          1464 1158 -82 callsubr
          -81 callsubr
          -666 -383 -80 callsubr
          6 callsubr
          endchar
        </CharString>
        <CharString name="Ncaron">
          1464 1312 -74 callsubr
          -630 -401 -80 callsubr
          6 callsubr
          endchar
        </CharString>
        <CharString name="Ncircumflexbelow">
          1464 752 1444 -80 callsubr
          6 callsubr
          -843 -778 30 callsubr
        </CharString>
        <CharString name="Ncommaaccent">
          1464 752 1444 -80 callsubr
          6 callsubr
          -637 -785 51 callsubr
          -92 -71 -58 -27 -45 -39 -50 callsubr
          -49 callgsubr
        </CharString>
        <CharString name="Ndotaccent">
          1464 1077 -60 callsubr
          -50 50 17 callsubr
          -325 -123 -80 callsubr
          6 callsubr
          endchar
        </CharString>
        <CharString name="Ndotbelow">
          1464 752 1444 -80 callsubr
          6 callsubr
          -605 -495 -96 callsubr
          -25 callsubr
        </CharString>
        <CharString name="Ngrave">
          1464 1038 -3 callsubr
          -379 -96 -80 callsubr
          6 callsubr
          endchar
        </CharString>
        <CharString name="Njecyrillic">
          2134 537 186 rmoveto
          118 555 546 0 -118 -555 rlineto
          -19 -91 -23 -19 -128 -17 -12 -59 rcurveline
          584 hlineto
          433 284 184 279 218 -193 138 -349 hvcurveto
          -154 hlineto
          94 440 19 90 25 18 135 18 rlinecurve
          12 59 -584 0 -12 -59 118 -17 17 -18 -19 -92 rlinecurve
          -94 -439 -545 0 93 439 20 92 23 18 125 17 rlinecurve
          12 59 -572 0 -13 -59 118 -17 17 -18 -19 -92 rlinecurve
          -228 -1072 -19 -92 -23 -18 -127 -17 rlinecurve
          -13 -59 573 0 12 59 -115 16 -18 19 19 92 rlinecurve
          1360 293 rmoveto
          -229 -161 -167 -293 -10 vhcurveto
          -96 -3 144 676 109 -2 rlineto
          192 -3 105 -88 -174 vvcurveto
          endchar
        </CharString>
        <CharString name="Nlinebelow">
          1464 752 1444 -80 callsubr
          6 callsubr
          -888 -680 -76 callsubr
        </CharString>
        <CharString name="Ntilde">
          1464 1179 1582 rmoveto
          82 1 64 57 -66 callgsubr
          -25 -21 -54 callgsubr
          145 callsubr
          -427 -138 -80 callsubr
          6 callsubr
          endchar
        </CharString>
        <CharString name="Nugreek">
          1464 752 1444 -80 callsubr
          6 callsubr
          endchar
        </CharString>
        <CharString name="O">
          1599 887 -23 -103 callsubr
          -100 callsubr
        </CharString>
        <CharString name="OE">
          1996 246 644 rmoveto
          -394 266 -274 395 vhcurveto
          130 70 24 134 hhcurveto
          681 hlineto
          101 410 rlineto
          -51 hlineto
          -106 -255 -99 -66 -263 -11 rrcurveto
          -215 -9 135 633 213 -3 107 -4 19 -42 -5 -163 rlinecurve
          51 hlineto
          103 486 rlineto
          -51 hlineto
          -61 -156 -39 -38 -108 -4 rrcurveto
          -213 -3 127 600 196 -9 246 -11 39 -53 12 -232 rlinecurve
          52 hlineto
          64 374 rlineto
          -728 hlineto
          -145 -74 24 -152 hhcurveto
          -494 -337 -360 -464 hvcurveto
          306 -80 rmoveto
          392 201 432 360 71 55 -11 -17 36 vhcurveto
          -274 -1292 rlineto
          -9 -25 -26 -3 -27 hhcurveto
          -240 -131 200 308 hvcurveto
          endchar
        </CharString>
        <CharString name="Oacute">
          1599 1179 -82 callsubr
          -81 callsubr
          -552 -1850 -103 callsubr
          -100 callsubr
        </CharString>
        <CharString name="Obreve">
          1599 1111 0 callsubr
          5 hvcurveto
          -58 hlineto
          -95 -18 -76 -57 -98 callgsubr
          1 10 2 6 hvcurveto
          -59 hlineto
          -10 -76 callgsubr
          -224 -1599 -103 callsubr
          -100 callsubr
        </CharString>
        <CharString name="Ocaron">
          1599 1333 86 callgsubr
          128 -285 157 0 244 285 rlineto
          -516 -1868 -103 callsubr
          -100 callsubr
        </CharString>
        <CharString name="Ocircumflex">
          1599 878 -79 callsubr
          -71 callsubr
          -69 callsubr
          76 -1565 -103 callsubr
          -100 callsubr
        </CharString>
        <CharString name="Ocircumflexacute">
          1599 1422 1831 rmoveto
          29 137 -614 -166 -11 -51 rlineto
          -54 -253 rmoveto
          308 86 272 -86 11 53 -233 -45 callsubr
          103 -1574 -103 callsubr
          -100 callsubr
        </CharString>
        <CharString name="Ocircumflexdotbelow">
          1599 878 -79 callsubr
          -71 callsubr
          -69 callsubr
          76 -1565 -103 callsubr
          449 31 callsubr
          137 callsubr
          -66 -234 -96 callsubr
          -25 callsubr
        </CharString>
        <CharString name="Ocircumflexgrave">
          1599 843 1831 rmoveto
          563 -80 10 51 -544 166 rlineto
          -100 -470 rmoveto
          308 86 272 -86 11 53 -233 -45 callsubr
          103 -1574 -103 callsubr
          -100 callsubr
        </CharString>
        <CharString name="Ocircumflexhookabove">
          1599 1399 84 callgsubr
          0 callgsubr
          79 38 15 73 rlinecurve
          72 16 -74 43 -97 hhcurveto
          -627 -433 rmoveto
          308 86 272 -86 11 53 -233 -45 callsubr
          103 -1574 -103 callsubr
          -100 callsubr
        </CharString>
        <CharString name="Ocircumflextilde">
          1599 1244 160 callsubr
          -33 callgsubr
          -42 11 -50 hhcurveto
          -100 162 callsubr
          38 hvcurveto
          31 -10 rlineto
          -14 42 42 -10 49 hhcurveto
          -472 -281 rmoveto
          308 86 272 -86 11 53 -233 -45 callsubr
          103 -1574 -103 callsubr
          -100 callsubr
        </CharString>
        <CharString name="Ocyrillic">
          1599 887 -23 -103 callsubr
          -100 callsubr
        </CharString>
        <CharString name="Odblgrave">
          1599 907 154 callsubr
          -351 -1563 -103 callsubr
          -100 callsubr
        </CharString>
        <CharString name="Odieresis">
          1599 937 1575 rmoveto
          2 callsubr
          46 -46 60 vhcurveto
          321 hmoveto
          63 51 51 62 hvcurveto
          60 1 -45 46 -61 hhcurveto
          -63 -51 -50 -64 hvcurveto
          -59 -1 46 -46 60 hhcurveto
          -371 -1598 -103 callsubr
          -100 callsubr
        </CharString>
        <CharString name="Odieresismacron">
          1599 843 1828 rmoveto
          579 hlineto
          23 104 rlineto
          -580 hlineto
          48 -375 -72 callgsubr
          -9 hlineto
          -55 -50 -35 -48 -11 hvcurveto
          -49 -10 35 -35 54 hhcurveto
          328 hmoveto
          -61 callsubr
          -41 callsubr
          -23 callsubr
          -335 -1580 -103 callsubr
          -100 callsubr
        </CharString>
        <CharString name="Odotaccent">
          1599 1098 -60 callsubr
          -49 50 -66 -69 -22 callsubr
          -211 -1590 -103 callsubr
          -100 callsubr
        </CharString>
        <CharString name="Odotaccentmacron">
          1599 837 5 callgsubr
          220 callsubr
          46 -37 58 hhcurveto
          -208 -1575 -103 callsubr
          -100 callsubr
        </CharString>
        <CharString name="Odotbelow">
          1599 887 -23 -103 callsubr
          449 31 callsubr
          137 callsubr
          -66 -234 -96 callsubr
          -25 callsubr
        </CharString>
        <CharString name="Ograve">
          1599 1059 -3 callsubr
          -265 -1563 -103 callsubr
          -100 callsubr
        </CharString>
        <CharString name="Ohookabove">
          1599 1134 46 callgsubr
          -90 -49 hvcurveto
          64 hlineto
          150 48 81 62 81 vvcurveto
          75 -67 55 -97 vhcurveto
          -247 -1888 -103 callsubr
          -100 callsubr
        </CharString>
        <CharString name="Ohorn">
          1616 239 634 20 callsubr
        </CharString>
        <CharString name="Ohornacute">
          1616 1180 -70 callsubr
          -1202 -1193 20 callsubr
        </CharString>
        <CharString name="Ohorndotbelow">
          1616 239 634 rmoveto
          -382 -1 253 -274 396 hhcurveto
          466 314 383 449 263 -121 208 -199 106 hvcurveto
          -6 38 42 -4 46 hhcurveto
          178 148 74 143 88 -54 78 -73 39 hvcurveto
          -56 hlineto
          8 -17 4 -28 -29 vvcurveto
          -152 -106 -131 -184 vhcurveto
          -109 -73 24 -136 hhcurveto
          -466 -313 -383 -449 -2 hvcurveto
          308 -106 rmoveto
          404 194 451 300 63 callsubr
          -99 callgsubr
          -193 -125 157 311 vhcurveto
          264 -702 -96 callsubr
          -25 callsubr
        </CharString>
        <CharString name="Ohorngrave">
          1616 1060 166 callsubr
          -914 -906 20 callsubr
        </CharString>
        <CharString name="Ohornhookabove">
          1616 1136 -86 callgsubr
          27 40 86 callsubr
          -97 vhcurveto
          -897 -1231 20 callsubr
        </CharString>
        <CharString name="Ohorntilde">
          1616 1201 134 callsubr
          26 20 40 callsubr
          -962 -948 20 callsubr
        </CharString>
        <CharString name="Ohungarumlaut">
          1599 1005 -28 callgsubr
          -664 -1850 -103 callsubr
          -100 callsubr
        </CharString>
        <CharString name="Oinvertedbreve">
          1599 1111 1882 224 callsubr
          75 57 128 hhcurveto
          103 71 -53 -73 -10 -1 -9 -2 -7 hvcurveto
          59 hlineto
          11 27 6 33 31 vvcurveto
          122 -1 -97 93 -143 hhcurveto
          -224 -1905 -103 callsubr
          -100 callsubr
        </CharString>
        <CharString name="Omacron">
          1599 830 -19 callsubr
          15 callsubr
          28 -1772 -103 callsubr
          -100 callsubr
        </CharString>
        <CharString name="Omacronacute">
          1599 1427 1852 -43 callgsubr
          -39 -184 rmoveto
          579 hlineto
          23 106 rlineto
          -580 hlineto
          73 -1717 -103 callsubr
          -100 callsubr
        </CharString>
        <CharString name="Omacrongrave">
          1599 848 -58 callgsubr
          167 rlineto
          -84 -402 rmoveto
          579 hlineto
          23 106 rlineto
          -580 hlineto
          73 -1717 -103 callsubr
          -100 callsubr
        </CharString>
        <CharString name="Omegagreek">
          1686 140 hmoveto
          600 hlineto
          59 284 rlineto
          -157 70 -89 150 9 246 9 387 189 248 295 -1 244 0 140 -171 -9 -297 -8 -312 -154 -243 -270 -81 rrcurveto
          -60 -280 619 0 121 355 rlineto
          -48 hlineto
          -108 -159 -117 -35 -364 -2 15 70 rcurveline
          432 75 callgsubr
          -419 1 -492 1 -313 -308 -8 -363 -7 -269 175 -218 299 -69 rrcurveto
          -17 -81 -365 2 -76 35 -41 159 rlinecurve
          -48 hlineto
          endchar
        </CharString>
        <CharString name="Omegatonosgreek">
          1888 341 hmoveto
          601 hlineto
          59 284 rlineto
          -157 70 -89 150 8 246 9 387 189 248 296 -1 243 0 141 -171 -10 -297 -7 -312 -154 -243 -271 -81 rrcurveto
          -60 -280 619 0 121 355 rlineto
          -47 hlineto
          -109 -159 -116 -35 -365 -2 15 70 rcurveline
          433 75 callgsubr
          -420 1 -492 1 -313 -308 -7 -363 -8 -269 176 -218 298 -69 rrcurveto
          -16 -81 -365 2 -77 35 -40 159 rlinecurve
          -48 hlineto
          -8 1089 -107 callgsubr
          endchar
        </CharString>
        <CharString name="Omicrongreek">
          1599 887 -23 -103 callsubr
          -100 callsubr
        </CharString>
        <CharString name="Omicrontonosgreek">
          1790 1078 -23 -103 callsubr
          449 31 callsubr
          hvcurveto
          -382 -1 253 -275 396 hhcurveto
          -711 1467 -107 callgsubr
          428 -1384 -22 callgsubr
        </CharString>
        <CharString name="Oogonek">
          1599 809 -479 175 callsubr
        </CharString>
        <CharString name="Oogonekmacron">
          1599 830 -19 callsubr
          15 callsubr
          -50 -2228 175 callsubr
        </CharString>
        <CharString name="Oslash">
          1599 887 -22 -103 callsubr
          167 callsubr
        </CharString>
        <CharString name="Oslashacute">
          1599 1179 -82 callsubr
          -81 callsubr
          -552 -1849 -103 callsubr
          167 callsubr
        </CharString>
        <CharString name="Otilde">
          1599 1200 -69 callgsubr
          -59 hlineto
          -85 -15 -24 -27 -36 hhcurveto
          -25 -21 11 22 -28 hvcurveto
          -26 20 rlineto
          29 -39 -38 17 145 callsubr
          -313 -1605 -103 callsubr
          -100 callsubr
        </CharString>
        <CharString name="Otildeacute">
          1599 1427 85 callgsubr
          367 -210 -79 callgsubr
          -47 107 callsubr
          87 callsubr
          -310 -1584 -103 callsubr
          -100 callsubr
        </CharString>
        <CharString name="Otildedieresis">
          1599 964 1796 rmoveto
          54 50 35 49 11 hvcurveto
          49 11 -36 35 -54 hhcurveto
          -9 hlineto
          -55 -50 -35 60 callsubr
          328 hmoveto
          54 50 35 49 11 hvcurveto
          49 10 -34 35 -55 hhcurveto
          -10 hlineto
          -54 -50 -35 60 callsubr
          -75 -235 -79 callgsubr
          -47 107 callsubr
          87 callsubr
          -310 -1584 -103 callsubr
          -100 callsubr
        </CharString>
        <CharString name="Otildemacron">
          1599 842 1828 rmoveto
          580 hlineto
          23 104 rlineto
          -580 hlineto
          332 -371 -79 callgsubr
          -47 107 callsubr
          87 callsubr
          -310 -1584 -103 callsubr
          -100 callsubr
        </CharString>
        <CharString name="P">
          1316 651 hmoveto
          21 callsubr
        </CharString>
        <CharString name="Pacute">
          1316 1051 -70 callsubr
          -661 -1827 rmoveto
          21 callsubr
        </CharString>
        <CharString name="Pdotaccent">
          1316 971 1567 rmoveto
          68 55 54 67 64 -49 49 -66 -68 -56 -53 -69 -63 50 -49 66 hvcurveto
          -320 -1567 rmoveto
          21 callsubr
        </CharString>
        <CharString name="Pecyrillic">
          1563 1403 186 rmoveto
          228 1072 19 93 24 18 126 16 rlinecurve
          13 59 -1455 0 -13 -59 120 -17 17 -18 -19 -92 rlinecurve
          -228 -1072 -19 -92 -23 -17 -129 -18 -92 callgsubr
          -114 16 -18 19 19 92 rlinecurve
          252 1182 589 0 -251 -1182 -20 -93 -22 -17 -126 -17 -92 callgsubr
          -117 16 -19 18 20 93 rlinecurve
          endchar
        </CharString>
        <CharString name="Phigreek">
          1843 235 709 rmoveto
          -30 -306 220 -176 410 -20 rrcurveto
          -5 -27 -19 -88 -24 -24 -122 -15 rlinecurve
          -12 -55 537 0 12 55 rlineto
          -117 16 -15 23 18 88 6 26 rcurveline
          471 10 317 186 30 336 30 307 -230 172 -401 20 rrcurveto
          6 25 18 89 24 23 122 15 rlinecurve
          12 55 -538 0 -11 -55 118 -15 14 -23 -18 -89 rlinecurve
          -5 -24 -460 -9 -328 -181 -30 -339 rlinecurve
          304 -10 rmoveto
          22 258 147 202 330 10 rrcurveto
          -188 -890 -240 25 -95 157 24 238 rlinecurve
          1070 47 rmoveto
          -23 -259 -145 -201 -332 -10 rrcurveto
          187 889 240 -26 95 -157 -22 -236 rlinecurve
          endchar
        </CharString>
        <CharString name="Pigreek">
          1593 1424 187 rmoveto
          227 1069 20 92 24 20 134 17 rlinecurve
          13 59 -1478 0 -13 -59 130 -18 14 -19 -20 -91 rlinecurve
          -227 -1071 -19 -90 -23 -19 -136 -19 rlinecurve
          -12 -59 589 0 12 59 -125 18 -16 20 20 90 rlinecurve
          250 1182 597 0 -250 -1181 -19 -91 -23 -19 -133 -18 rlinecurve
          -12 -59 587 0 13 59 -128 17 -15 20 19 91 rlinecurve
          endchar
        </CharString>
        <CharString name="Psigreek">
          1807 590 hmoveto
          599 hlineto
          13 59 rlineto
          -140 18 -17 21 18 88 70 328 rcurveline
          348 13 184 113 132 365 74 208 rcurveline
          46 126 36 29 92 8 13 59 rcurveline
          4 -29 -56 5 -55 hhcurveto
          -167 -84 -48 -190 -68 hvcurveto
          -78 -214 -99 -278 -87 -104 -186 -20 rlinecurve
          141 667 20 90 23 23 115 15 rlinecurve
          12 59 -531 0 -12 -59 rlineto
          109 -15 13 -23 -20 -90 -141 -667 rcurveline
          -178 20 -41 104 19 278 14 205 rcurveline
          191 12 -65 56 -171 hhcurveto
          -51 -60 -5 -4 -30 hvcurveto
          -13 -59 90 -8 27 -29 -8 -126 rlinecurve
          -15 -208 -24 -363 133 -115 345 -13 rlinecurve
          -69 -328 -19 -88 -26 -23 -145 -16 rlinecurve
          endchar
        </CharString>
        <CharString name="Q">
          1611 1283 -383 rmoveto
          98 89 26 43 65 hvcurveto
          12 55 rlineto
          -123 -8 -85 33 -151 134 -112 100 rcurveline
          360 88 231 337 385 vvcurveto
          31 callsubr
          vhcurveto
          -1 -328 187 -249 304 -64 172 -171 rcurveline
          -159 161 102 -46 119 hhcurveto
          -418 443 -22 callgsubr
        </CharString>
        <CharString name="R">
          1373 1041 hmoveto
          19 callsubr
          endchar
        </CharString>
        <CharString name="Racute">
          1373 1053 -82 callsubr
          -81 callsubr
          -272 -1827 rmoveto
          19 callsubr
          endchar
        </CharString>
        <CharString name="Rcaron">
          1373 1207 -74 callsubr
          -236 -1845 rmoveto
          19 callsubr
          endchar
        </CharString>
        <CharString name="Rcommaaccent">
          1373 1041 hmoveto
          19 callsubr
          -467 -1544 51 callsubr
          -93 -70 -59 -27 -45 -38 -50 callsubr
          -49 callgsubr
        </CharString>
        <CharString name="Rdblgrave">
          1373 781 154 callsubr
          -71 -1540 rmoveto
          19 callsubr
          endchar
        </CharString>
        <CharString name="Rdotaccent">
          1373 972 -60 callsubr
          -50 50 17 callsubr
          69 -1567 rmoveto
          19 callsubr
          endchar
        </CharString>
        <CharString name="Rdotbelow">
          1373 1041 hmoveto
          19 callsubr
          -435 -1254 -96 callsubr
          45 callsubr
        </CharString>
        <CharString name="Rdotbelowmacron">
          1373 704 -71 callgsubr
          308 -1749 rmoveto
          19 callsubr
          -435 -1254 -96 callsubr
          45 callsubr
        </CharString>
        <CharString name="Rhogreek">
          1316 651 hmoveto
          21 callsubr
        </CharString>
        <CharString name="Rinvertedbreve">
          1373 985 1882 224 callsubr
          74 57 129 hhcurveto
          103 71 -53 -73 -10 -1 59 callsubr
          33 31 vvcurveto
          122 -1 -97 93 -143 hhcurveto
          56 -1882 rmoveto
          19 callsubr
          endchar
        </CharString>
        <CharString name="Rlinebelow">
          1373 1041 hmoveto
          19 callsubr
          -718 -1439 -76 callsubr
        </CharString>
        <CharString name="S">
          1140 590 -25 66 callsubr
          endchar
        </CharString>
        <CharString name="Sacute">
          1140 989 -82 callsubr
          65 0 397 278 rlineto
          7 vlineto
          -660 -1852 66 callsubr
          endchar
        </CharString>
        <CharString name="Sacutedotaccent">
          1140 949 1763 rmoveto
          58 43 38 51 hvcurveto
          52 -1 -47 37 -58 hhcurveto
          -56 -44 -37 -52 hvcurveto
          -51 1 47 -38 57 hhcurveto
          238 -142 rmoveto
          30 136 -615 -165 -11 -52 rlineto
          -1 -1565 66 callsubr
          endchar
        </CharString>
        <CharString name="Scaron">
          1140 1144 61 callsubr
          -42 callgsubr
          157 0 245 285 rlineto
          -624 -1870 66 callsubr
          endchar
        </CharString>
        <CharString name="Scarondotaccent">
          1140 953 1784 rmoveto
          58 44 37 52 -1 hvcurveto
          51 -1 -47 38 -57 hhcurveto
          -57 -44 -38 -51 1 hvcurveto
          -52 48 -37 56 vhcurveto
          273 -17 rmoveto
          -315 -86 -278 86 -11 -52 239 -168 46 0 309 168 rlineto
          -626 -1740 66 callsubr
          endchar
        </CharString>
        <CharString name="Scedilla">
          1140 488 4 callsubr
          105 -80 68 -122 4 hvcurveto
          71 78 rlineto
          294 5 242 169 274 vvcurveto
          159 -76 121 -178 119 vhcurveto
          -100 71 rlineto
          -132 89 -51 76 101 vvcurveto
          137 106 89 155 182 108 -127 -243 11 vhcurveto
          53 hlineto
          53 340 rlineto
          61 -76 -154 53 -187 hhcurveto
          -326 -201 -175 -249 -160 83 -115 172 -116 hvcurveto
          100 -71 rlineto
          135 -91 46 -80 -109 vvcurveto
          -155 -127 -90 -156 -187 -143 118 254 -4 vhcurveto
          -53 hlineto
          -57 -347 77 -52 159 -45 158 -9 rlinecurve
          -122 -134 3 callsubr
          39 -30 -49 -47 -38 -29 -64 -53 -47 102 callgsubr
        </CharString>
        <CharString name="Schwa">
          1499 767 -25 rmoveto
          450 316 362 454 410 -243 267 -410 -169 -174 -40 -70 -103 hvcurveto
          -78 -348 rlineto
          54 hlineto
          258 107 170 117 182 hhcurveto
          248 105 -219 -313 -54 -3 -52 -5 -50 hvcurveto
          -968 hlineto
          -20 -61 -15 -74 -73 vvcurveto
          -258 145 -256 411 vhcurveto
          -286 438 rmoveto
          73 9 77 18 58 vhcurveto
          698 1 rlineto
          -336 -50 -158 -231 -230 hhcurveto
          -199 -88 155 203 hvcurveto
          endchar
        </CharString>
        <CharString name="Scircumflex">
          1140 688 -79 callsubr
          -71 callsubr
          -69 callsubr
          -31 -1567 66 callsubr
          endchar
        </CharString>
        <CharString name="Scommaaccent">
          1140 590 -25 66 callsubr
          -111 -439 51 callsubr
          -93 -71 -58 -27 -45 -38 -50 callsubr
          -48 callgsubr
        </CharString>
        <CharString name="Sdotaccent">
          1140 908 -60 callsubr
          106 callsubr
          -318 -1592 66 callsubr
          endchar
        </CharString>
        <CharString name="Sdotbelow">
          1140 590 -25 66 callsubr
          -79 -149 -96 callsubr
          45 callsubr
        </CharString>
        <CharString name="Sdotbelowdotaccent">
          1140 908 -60 callsubr
          106 callsubr
          -318 -1592 66 callsubr
          -79 -149 -96 callsubr
          45 callsubr
        </CharString>
        <CharString name="Shacyrillic">
          2301 462 1258 rmoveto
          -228 -1072 -20 -93 -24 -18 -126 -16 rlinecurve
          -12 -59 2181 0 13 59 -119 17 -17 18 19 92 rlinecurve
          228 1072 20 92 23 18 127 57 callsubr
          198 callsubr
          19 93 23 52 callgsubr
        </CharString>
        <CharString name="Shchacyrillic">
          2311 158 callsubr
          1860 hlineto
          212 26 -54 -269 17 hvcurveto
          63 hlineto
          72 399 -196 0 251 1182 20 92 23 18 127 57 callsubr
          198 callsubr
          20 93 22 52 callgsubr
        </CharString>
        <CharString name="Sigmagreek">
          91 callgsubr
          -56 373 -698 -628 -633 -11 -57 1116 0 112 456 rlineto
          -59 hlineto
          -219 -99 -82 -36 -283 hhcurveto
          -434 hlineto
          612 608 4 22 -291 545 346 -9 272 -6 50 -56 5 -221 rlinecurve
          55 hlineto
          endchar
        </CharString>
        <CharString name="Softsigncyrillic">
          1285 190 callsubr
          -305 17 -15 callgsubr
        </CharString>
        <CharString name="T">
          -36 callsubr
          endchar
        </CharString>
        <CharString name="Taugreek">
          -36 callsubr
          endchar
        </CharString>
        <CharString name="Tbar">
          1315 388 705 rmoveto
          275 hlineto
          -111 -521 -18 -87 -25 -21 -147 -17 rlinecurve
          -12 -59 100 callsubr
          111 521 277 0 15 70 -277 0 127 600 47 -2 239 -14 60 -58 -1 -231 rlinecurve
          55 hlineto
          63 374 -1187 0 32 callsubr
          -128 -600 rlineto
          -274 hlineto
          endchar
        </CharString>
        <CharString name="Tcaron">
          1315 1247 -74 callsubr
          240 -401 rmoveto
          -1187 hlineto
          32 callsubr
          95 callsubr
          100 callsubr
          88 callsubr
          endchar
        </CharString>
        <CharString name="Tcedilla">
          1315 578 92 callgsubr
          1 2 255 0 12 59 -140 18 -17 19 19 88 rlinecurve
          88 callsubr
          63 374 -1187 0 32 callsubr
          95 callsubr
          287 0 -140 -157 -81 callgsubr
          -39 -29 -63 -53 78 callgsubr
        </CharString>
        <CharString name="Tcircumflexbelow">
          -36 callsubr
          -1131 -1527 -45 callgsubr
          -78 callgsubr
        </CharString>
        <CharString name="Tcommaaccent">
          -36 callsubr
          -925 -1534 52 callsubr
          54 41 -26 -46 -48 -43 -27 -61 callgsubr
        </CharString>
        <CharString name="Tdotaccent">
          1315 1012 -27 callsubr
          17 callsubr
          545 -123 rmoveto
          -1187 hlineto
          32 callsubr
          95 callsubr
          100 callsubr
          88 callsubr
          endchar
        </CharString>
        <CharString name="Tdotbelow">
          -36 callsubr
          -893 -1244 -96 callsubr
          66 68 56 callsubr
        </CharString>
        <CharString name="Tecyrillic">
          -36 callsubr
          endchar
        </CharString>
        <CharString name="Thetagreek">
          1653 893 -25 rmoveto
          456 344 364 444 14 hvcurveto
          16 391 -243 296 -418 -1 -457 -1 -341 -366 -15 -444 rrcurveto
          -389 -15 242 -294 417 hhcurveto
          7 75 rmoveto
          -240 -120 224 348 19 hvcurveto
          395 18 157 377 321 hhcurveto
          243 118 -223 -352 -18 hvcurveto
          -395 -19 -160 -374 -319 hhcurveto
          -260 428 rmoveto
          49 hlineto
          150 53 45 50 95 hhcurveto
          160 hlineto
          95 23 -50 -150 -10 hvcurveto
          48 hlineto
          102 479 rlineto
          -48 hlineto
          -150 -57 -43 -47 -93 hhcurveto
          -160 hlineto
          -92 -24 47 150 8 hvcurveto
          -48 hlineto
          endchar
        </CharString>
        <CharString name="Thorn">
          1327 240 185 rmoveto
          -19 -92 -23 -17 -127 -17 rrcurveto
          -13 -59 575 0 12 59 rlineto
          -117 16 -18 18 19 92 31 147 rcurveline
          157 hlineto
          365 313 156 284 222 -185 144 -336 hvcurveto
          -142 hlineto
          25 120 20 92 24 18 126 16 rlinecurve
          12 60 -575 0 -12 -60 118 -16 17 -18 -19 -92 rlinecurve
          625 -464 rmoveto
          -197 -124 -182 -293 -10 vhcurveto
          -101 -4 142 668 98 -3 rlineto
          177 -6 101 -113 -153 vvcurveto
          endchar
        </CharString>
        <CharString name="Tlinebelow">
          -36 callsubr
          -1176 -1429 -76 callsubr
        </CharString>
        <CharString name="Tsecyrillic">
          1583 158 callsubr
          1132 hlineto
          213 26 -54 -269 17 hvcurveto
          64 hlineto
          71 399 -197 0 251 1182 20 92 22 18 128 57 callsubr
          115 -16 18 -19 -20 -92 rlinecurve
          -251 -1182 -590 0 252 1182 19 93 23 52 callgsubr
        </CharString>
        <CharString name="Tshecyrillic">
          1798 1564 1444 rmoveto
          -1195 hlineto
          207 callsubr
          515 rcurveline
          21 69 74 13 89 hhcurveto
          205 77 -119 -226 -48 hvcurveto
          -83 -388 433 0 12 59 rlineto
          -119 16 -16 18 19 92 38 179 rcurveline
          312 64 -164 150 -338 hhcurveto
          -122 -90 -19 -28 -83 hvcurveto
          49 callgsubr
          endchar
        </CharString>
        <CharString name="U">
          1482 779 -25 -90 callsubr
        </CharString>
        <CharString name="Uacute">
          1482 1223 -82 callsubr
          -81 callsubr
          -704 -1852 -90 callsubr
        </CharString>
        <CharString name="Ubreve">
          1482 1155 1576 rmoveto
          176 103 122 184 6 hvcurveto
          -58 hlineto
          -95 -19 -75 -57 -98 callgsubr
          1 10 1 6 hvcurveto
          -58 hlineto
          -10 -76 callgsubr
          -376 -1601 -90 callsubr
        </CharString>
        <CharString name="Ubrevecyrillic">
          1427 1120 -57 callgsubr
          55 hvcurveto
          -64 20 rlineto
          -146 -46 -112 -82 -128 hhcurveto
          -40 -34 9 14 -28 hvcurveto
          50 6 43 45 57 vvcurveto
          67 -50 51 -63 -72 -49 -54 -72 -104 87 -87 145 vhcurveto
          -888 -1463 178 callsubr
        </CharString>
        <CharString name="Ucaron">
          1482 1377 -74 callsubr
          -668 -1870 -90 callsubr
        </CharString>
        <CharString name="Ucircumflex">
          1482 922 -79 callsubr
          -71 callsubr
          -69 callsubr
          -76 -1567 -90 callsubr
        </CharString>
        <CharString name="Ucircumflexbelow">
          73 callsubr
          -287 -432 93 callsubr
        </CharString>
        <CharString name="Ucyrillic">
          1428 232 124 178 callsubr
        </CharString>
        <CharString name="Udblgrave">
          1482 951 154 callsubr
          -503 -1565 -90 callsubr
        </CharString>
        <CharString name="Udieresis">
          1482 981 1575 rmoveto
          2 callsubr
          45 -46 61 vhcurveto
          321 hmoveto
          63 51 49 callsubr
          hvcurveto
          -59 -1 46 -46 60 hhcurveto
          -523 -1600 -90 callsubr
        </CharString>
        <CharString name="Udieresisacute">
          1482 1471 85 callgsubr
          83 -214 -72 callgsubr
          118 callsubr
          327 hmoveto
          -61 callsubr
          -41 callsubr
          -23 callsubr
          -487 -1582 -90 callsubr
        </CharString>
        <CharString name="Udieresisbelow">
          73 callsubr
          -250 -382 rmoveto
          70 56 54 67 63 -51 49 -68 -70 -57 -54 -67 hvcurveto
          -63 1 51 -49 68 hhcurveto
          387 hmoveto
          17 callgsubr
          endchar
        </CharString>
        <CharString name="Udieresiscaron">
          1482 1500 1986 rmoveto
          -308 -83 -271 83 -12 -51 235 -161 44 0 301 161 rlineto
          -532 -378 -72 callgsubr
          118 callsubr
          327 hmoveto
          -61 callsubr
          -41 callsubr
          -23 callsubr
          -487 -1582 -90 callsubr
        </CharString>
        <CharString name="Udieresisgrave">
          1482 892 36 callgsubr
          54 51 35 49 10 hvcurveto
          48 11 -36 35 -54 hhcurveto
          118 callsubr
          327 hmoveto
          -61 callsubr
          -41 callsubr
          -23 callsubr
          -487 -1582 -90 callsubr
        </CharString>
        <CharString name="Udieresismacron">
          1482 887 1828 rmoveto
          579 hlineto
          23 104 rlineto
          -580 hlineto
          48 -375 -72 callgsubr
          118 callsubr
          327 hmoveto
          -61 callsubr
          -41 callsubr
          -23 callsubr
          -487 -1582 -90 callsubr
        </CharString>
        <CharString name="Udotbelow">
          73 callsubr
          -49 -149 -96 callsubr
          65 69 56 callsubr
        </CharString>
        <CharString name="Ugrave">
          1482 1103 -3 callsubr
          -417 -1565 -90 callsubr
        </CharString>
        <CharString name="Uhookabove">
          1482 1178 46 callgsubr
          -91 -49 hvcurveto
          65 hlineto
          150 48 80 62 81 vvcurveto
          75 -66 55 -97 vhcurveto
          -399 -1890 -90 callsubr
        </CharString>
        <CharString name="Uhorn">
          1587 308 612 33 callsubr
        </CharString>
        <CharString name="Uhornacute">
          1587 1230 -70 callsubr
          -1183 -1215 33 callsubr
        </CharString>
        <CharString name="Uhorndotbelow">
          1587 308 612 rmoveto
          -446 -95 251 -191 315 hhcurveto
          173 callsubr
          260 -1424 -96 callsubr
          66 68 56 callsubr
        </CharString>
        <CharString name="Uhorngrave">
          1587 1110 -3 callsubr
          -895 -928 33 callsubr
        </CharString>
        <CharString name="Uhornhookabove">
          1587 1185 -1 callgsubr
          -877 -1253 33 callsubr
        </CharString>
        <CharString name="Uhorntilde">
          1587 1251 -69 callgsubr
          -58 hlineto
          -85 -16 -23 -27 -36 -60 callgsubr
          -38 17 54 callgsubr
          25 21 40 callsubr
          -943 -970 33 callsubr
        </CharString>
        <CharString name="Uhungarumlaut">
          1482 1049 -28 callgsubr
          -816 -1852 -90 callsubr
        </CharString>
        <CharString name="Uinvertedbreve">
          1482 1154 1882 rmoveto
          -176 -103 -122 -184 -6 hvcurveto
          59 hlineto
          95 18 74 57 129 hhcurveto
          103 71 -53 -73 -10 -1 59 callsubr
          -55 callgsubr
          -375 -1907 -90 callsubr
        </CharString>
        <CharString name="Umacron">
          1482 874 -71 callgsubr
          -124 -1774 -90 callsubr
        </CharString>
        <CharString name="Umacrondieresis">
          1482 1008 37 callgsubr
          -54 -51 -35 -49 -10 hvcurveto
          -49 -11 36 -35 53 hhcurveto
          328 hmoveto
          54 50 35 49 11 hvcurveto
          49 10 -34 35 -41 callsubr
          60 callsubr
          93 callgsubr
          -100 -1719 -90 callsubr
        </CharString>
        <CharString name="Uogonek">
          1482 739 59 callgsubr
          -29 hhcurveto
          -64 -43 64 93 60 22 61 46 53 hvcurveto
          310 18 199 213 75 337 rrcurveto
          143 635 35 153 23 32 127 21 rlinecurve
          13 59 -399 0 -103 callgsubr
          -152 -126 -623 rcurveline
          -295 -60 -173 -156 -211 hhcurveto
          -219 -141 143 344 16 callgsubr
          108 -19 16 -21 -20 -95 rlinecurve
          -136 -638 -91 -431 231 -192 300 -13 rlinecurve
          -132 -84 -76 -101 -100 vvcurveto
          -100 84 -70 116 vhcurveto
          endchar
        </CharString>
        <CharString name="Upsilondieresisgreek">
          1316 915 38 callsubr
          52 49 callsubr
          -1 hvcurveto
          -59 45 -46 61 vhcurveto
          -770 -390 -68 callsubr
          -75 callsubr
        </CharString>
        <CharString name="Upsilongreek">
          1316 466 -100 callgsubr
          -75 callsubr
        </CharString>
        <CharString name="Upsilontonosgreek">
          1721 871 -100 callgsubr
          -19 -87 -23 -21 -146 -17 rlinecurve
          -13 -59 614 0 13 59 -140 18 -15 77 callgsubr
          37 29 106 17 rlinecurve
          12 59 -397 0 -12 -59 130 -17 6 -39 -116 -159 rlinecurve
          -317 18 callgsubr
          -13 -59 92 -16 28 -26 55 -158 rlinecurve
          -504 259 -107 callgsubr
          endchar
        </CharString>
        <CharString name="Uring">
          1482 919 1724 rmoveto
          -105 98 -64 120 156 100 81 108 105 -99 64 -120 -155 -100 -82 -107 vhcurveto
          152 -23 rmoveto
          84 46 70 55 43 26 -32 -56 -83 -46 -71 -55 -43 -26 32 56 vhcurveto
          -292 -1726 -90 callsubr
        </CharString>
        <CharString name="Utilde">
          1482 1244 1582 rmoveto
          82 1 64 57 -66 callgsubr
          -25 -21 -54 callgsubr
          145 callsubr
          -465 -1607 -90 callsubr
        </CharString>
        <CharString name="Utildeacute">
          1482 1471 85 callgsubr
          367 -210 -79 callgsubr
          -46 hhcurveto
          -29 -28 7 12 -38 hvcurveto
          -31 11 rlineto
          13 -42 87 callsubr
          -462 -1586 -90 callsubr
        </CharString>
        <CharString name="Utildebelow">
          73 callsubr
          54 -394 rmoveto
          90 99 callgsubr
          -28 107 callgsubr
          -90 -70 79 callgsubr
          23 -13 32 -25 31 -23 rcurveline
          -32 42 42 -21 53 hhcurveto
          endchar
        </CharString>
        <CharString name="V">
          90 callgsubr
          endchar
        </CharString>
        <CharString name="Vdotbelow">
          90 callgsubr
          205 -1355 -96 callsubr
          65 69 56 callsubr
        </CharString>
        <CharString name="Vecyrillic">
          1353 1362 448 70 callsubr
        </CharString>
        <CharString name="Vtilde">
          1373 1208 -69 callgsubr
          -58 hlineto
          -85 -16 -24 -27 -35 -60 callgsubr
          -39 17 -47 hhcurveto
          -82 -64 -57 -188 -23 hvcurveto
          59 hlineto
          84 15 24 27 36 hhcurveto
          25 21 -11 -22 28 hvcurveto
          26 -21 rlineto
          -28 39 37 -19 48 hhcurveto
          -771 -401 rmoveto
          192 callsubr
          endchar
        </CharString>
        <CharString name="W">
          2110 427 1181 -16 callsubr
        </CharString>
        <CharString name="Wacute">
          2110 1585 -82 callsubr
          -81 callsubr
          -1418 -646 -16 callsubr
        </CharString>
        <CharString name="Wcircumflex">
          2110 1284 -79 callsubr
          -71 callsubr
          -69 callsubr
          -790 -361 -16 callsubr
        </CharString>
        <CharString name="Wdieresis">
          2110 1343 1575 rmoveto
          2 callsubr
          45 -46 61 vhcurveto
          321 hmoveto
          63 51 49 callsubr
          hvcurveto
          -59 -1 46 -46 60 hhcurveto
          -1237 -394 -16 callsubr
        </CharString>
        <CharString name="Wdotaccent">
          2110 1504 -60 callsubr
          -50 50 17 callsubr
          -1077 -386 -16 callsubr
        </CharString>
        <CharString name="Wdotbelow">
          2110 427 1181 rmoveto
          113 -1186 181 0 571 1125 90 -1125 186 0 597 1161 96 187 41 26 108 16 rlinecurve
          13 59 -406 0 -13 -59 131 -17 10 -36 -81 -171 rlinecurve
          -425 -883 -59 900 -11 160 17 28 130 19 rlinecurve
          12 59 -563 0 -13 -59 128 -19 10 -45 -74 -154 rlinecurve
          -425 -889 -63 901 -10 149 21 39 134 18 rlinecurve
          13 59 -587 0 -13 -59 93 -14 33 -28 15 -162 rlinecurve
          574 -1355 rmoveto
          -69 -56 -54 -67 -64 49 -50 66 69 56 callsubr
        </CharString>
        <CharString name="Wgrave">
          2110 1465 -3 callsubr
          -1131 -359 -16 callsubr
        </CharString>
        <CharString name="X">
          1326 323 285 18 callsubr
        </CharString>
        <CharString name="Xdieresis">
          1326 940 1575 rmoveto
          62 82 callsubr
          321 hmoveto
          2 callsubr
          45 -46 61 vhcurveto
          -938 -1290 18 callsubr
        </CharString>
        <CharString name="Xdotaccent">
          1326 1101 -27 callsubr
          17 callsubr
          -778 -1282 18 callsubr
        </CharString>
        <CharString name="Xigreek">
          1325 1561 1444 rmoveto
          -1162 hlineto
          -104 -410 rlineto
          55 hlineto
          182 88 82 34 252 hhcurveto
          333 hlineto
          252 68 -34 -182 10 hvcurveto
          57 hlineto
          -786 -342 rmoveto
          229 hlineto
          135 30 -52 -146 -8 hvcurveto
          53 hlineto
          99 467 rlineto
          -53 hlineto
          -144 -54 -52 -50 -135 hhcurveto
          -228 83 callgsubr
          53 hlineto
          146 53 53 52 135 hhcurveto
          564 -692 rmoveto
          74 callgsubr
          -299 hlineto
          -284 -65 34 221 -5 hvcurveto
          -56 hlineto
          -78 -455 rlineto
          endchar
        </CharString>
        <CharString name="Xigreek.1">
          1351 66 hmoveto
          1208 hlineto
          74 callgsubr
          -125 hlineto
          104 492 rlineto
          91 hlineto
          135 30 -52 -146 -8 hvcurveto
          52 hlineto
          99 467 rlineto
          -52 hlineto
          -144 -54 -52 -50 -135 hhcurveto
          -90 hlineto
          102 483 rlineto
          143 hlineto
          252 68 -34 -182 10 hvcurveto
          56 hlineto
          70 410 -1179 0 -104 -410 rlineto
          56 hlineto
          182 88 83 34 252 hhcurveto
          142 hlineto
          -102 -483 rlineto
          -91 83 callgsubr
          52 hlineto
          146 54 52 52 136 hhcurveto
          91 hlineto
          -104 -492 rlineto
          -128 hlineto
          -283 -65 34 221 -5 hvcurveto
          -56 hlineto
          endchar
        </CharString>
        <CharString name="Y">
          1317 466 -100 callgsubr
          -75 callsubr
        </CharString>
        <CharString name="Yacute">
          1316 1157 -82 callsubr
          64 0 397 278 rlineto
          7 vlineto
          -951 -642 -68 callsubr
          -75 callsubr
        </CharString>
        <CharString name="Ycircumflex">
          1316 856 -79 callsubr
          -96 callgsubr
          116 callsubr
          -323 -357 -68 callsubr
          -75 callsubr
        </CharString>
        <CharString name="Ydieresis">
          1316 915 38 callsubr
          52 49 callsubr
          -1 hvcurveto
          -59 45 -46 61 vhcurveto
          -770 -390 -68 callsubr
          -75 callsubr
        </CharString>
        <CharString name="Ydotaccent">
          1316 1076 -27 callsubr
          17 callsubr
          -610 -382 -68 callsubr
          -75 callsubr
        </CharString>
        <CharString name="Ydotbelow">
          1316 466 -100 callgsubr
          195 callsubr
          142 -1359 -96 callsubr
          45 callsubr
        </CharString>
        <CharString name="Yericyrillic">
          1924 190 callsubr
          415 -302 -85 callsubr
          22 19 129 17 rlinecurve
          13 59 -577 0 -12 -59 122 -15 13 -21 -19 -91 rlinecurve
          -228 -1072 -19 -91 -22 -19 -129 -17 rlinecurve
          -13 -59 577 0 12 59 -122 17 -14 19 20 91 rlinecurve
          -720 319 -15 callgsubr
        </CharString>
        <CharString name="Ygrave">
          1316 1036 166 callsubr
          -663 -355 -68 callsubr
          -75 callsubr
        </CharString>
        <CharString name="Yhookabove">
          1316 1112 -86 callgsubr
          28 39 86 callsubr
          -97 vhcurveto
          -646 -680 -68 callsubr
          -75 callsubr
        </CharString>
        <CharString name="Yicyrillic">
          682 534 1576 rmoveto
          63 51 50 63 hvcurveto
          59 1 -45 47 -60 hhcurveto
          -40 callsubr
          60 hvcurveto
          322 hmoveto
          90 callsubr
          -331 -1390 -85 callsubr
          -87 callsubr
          -94 callsubr
          -95 callsubr
          -88 callsubr
        </CharString>
        <CharString name="Ymacron">
          1316 808 -70 callgsubr
          -370 -564 -68 callsubr
          -75 callsubr
        </CharString>
        <CharString name="Ytilde">
          1316 1177 1582 rmoveto
          82 1 65 57 -66 callgsubr
          -26 -20 -54 callgsubr
          54 callgsubr
          26 20 40 callsubr
          -711 -397 -68 callsubr
          -75 callsubr
        </CharString>
        <CharString name="Z">
          1218 1136 hmoveto
          -13 callsubr
        </CharString>
        <CharString name="Zacute">
          1218 1046 -82 callsubr
          -81 callsubr
          -170 -1827 rmoveto
          -13 callsubr
        </CharString>
        <CharString name="Zcaron">
          1218 1201 61 callsubr
          -42 callgsubr
          157 0 245 285 rlineto
          -135 -1845 rmoveto
          -13 callsubr
        </CharString>
        <CharString name="Zcircumflex">
          1218 745 -79 callsubr
          -71 callsubr
          -69 callsubr
          458 -1542 rmoveto
          -13 callsubr
        </CharString>
        <CharString name="Zdotaccent">
          1218 965 -60 callsubr
          106 callsubr
          171 -1567 rmoveto
          -13 callsubr
        </CharString>
        <CharString name="Zdotbelow">
          211 callsubr
          495 -174 rmoveto
          -69 -56 -54 -67 -64 49 -50 66 69 56 callsubr
        </CharString>
        <CharString name="Zecyrillic">
          1286 607 -25 rmoveto
          399 287 182 298 188 -163 97 -227 19 hvcurveto
          265 33 203 123 229 vvcurveto
          210 -182 115 -306 -171 -160 -46 -66 -102 vhcurveto
          -81 -338 rlineto
          54 hlineto
          262 104 154 106 175 hhcurveto
          141 76 -102 -140 -213 -134 -150 -236 hvcurveto
          -142 hlineto
          -16 -75 rlineto
          141 hlineto
          196 102 -94 -173 -195 -124 -186 -260 -2 hvcurveto
          -197 -1 -110 147 -9 212 rrcurveto
          -54 hlineto
          -46 -322 rlineto
          -62 81 152 -56 190 hhcurveto
          endchar
        </CharString>
        <CharString name="Zetagreek">
          1218 1136 hmoveto
          -13 callsubr
        </CharString>
        <CharString name="Zhecyrillic">
          2097 364 hmoveto
          595 702 103 0 -109 -516 -19 -92 -25 -17 -134 -18 rlinecurve
          -13 -59 593 0 12 59 -125 17 -19 17 19 93 rlinecurve
          110 516 104 0 291 -702 353 0 12 56 -59 26 -37 41 -90 210 rlinecurve
          -236 572 282 254 178 160 72 45 126 21 rlinecurve
          12 59 -447 0 -13 -59 135 -18 -4 -44 -127 -124 rlinecurve
          -429 -420 -107 -1 102 480 19 92 26 18 133 17 rlinecurve
          13 59 -593 0 -12 -59 127 -16 17 -18 -20 -93 rlinecurve
          -101 -480 -104 1 -258 421 -82 131 31 38 132 16 rlinecurve
          12 59 -456 0 -12 -59 121 -23 55 -39 114 -163 rlinecurve
          169 -240 -487 -582 rlineto
          -178 -211 -52 -46 -69 -25 -12 -56 rcurveline
          endchar
        </CharString>
        <CharString name="Zlinebelow">
          211 callsubr
          211 -359 -59 callgsubr
        </CharString>
        <CharString name="a">
          1148 -46 callsubr
          -106 callsubr
          -105 callsubr
          -101 callsubr
        </CharString>
        <CharString name="a.dnum">
          710 115 187 rmoveto
          -125 1 68 -73 92 hhcurveto
          84 67 50 91 33 hvcurveto
          -2 -6 -4 -23 -6 vvcurveto
          -70 -8 34 -34 65 hhcurveto
          67 64 30 41 31 hvcurveto
          10 42 rlineto
          -11 -16 -22 -6 -18 hhcurveto
          -27 -11 17 39 9 hvcurveto
          82 -29 callgsubr
          36 24 -15 -20 7 hvcurveto
          -52 -243 rlineto
          -75 -17 -42 -42 -44 hhcurveto
          -39 -24 26 74 -2 hvcurveto
          endchar
        </CharString>
        <CharString name="a.numr">
          710 261 874 rmoveto
          -126 1 68 -73 92 hhcurveto
          83 68 51 41 callgsubr
          40 31 hvcurveto
          9 43 rlineto
          -11 -15 -22 -6 -19 hhcurveto
          -26 -12 17 39 9 hvcurveto
          83 388 -105 0 -68 -59 rlineto
          37 -16 -46 34 -75 hhcurveto
          -172 -118 -159 -197 1 hvcurveto
          182 -9 rmoveto
          121 -1 48 175 106 hhcurveto
          35 25 -16 -19 7 hvcurveto
          -52 -244 rlineto
          -74 -18 -42 -43 -43 hhcurveto
          -39 -24 27 73 -2 hvcurveto
          endchar
        </CharString>
        <CharString name="a.sups">
          710 300 1056 rmoveto
          -125 1 68 -73 92 hhcurveto
          83 68 50 41 callgsubr
          41 31 hvcurveto
          10 42 rlineto
          -11 -16 -22 -6 -19 hhcurveto
          -26 -11 17 39 8 hvcurveto
          83 -29 callgsubr
          35 25 -15 -20 7 hvcurveto
          -52 -243 rlineto
          -75 -18 -42 -42 -43 hhcurveto
          -39 -24 27 73 -2 hvcurveto
          endchar
        </CharString>
        <CharString name="aacute">
          1148 919 -43 callsubr
          -44 callsubr
          -1036 -1145 -104 callsubr
          -106 callsubr
          -105 callsubr
          -101 callsubr
        </CharString>
        <CharString name="abreve">
          1148 832 1146 rmoveto
          195 -68 callgsubr
          -21 -83 -47 callsubr
          1 12 callsubr
          -94 callgsubr
          158 vhcurveto
          -654 -800 -104 callsubr
          -106 callsubr
          -105 callsubr
          -101 callsubr
        </CharString>
        <CharString name="abreveacute">
          1148 1149 87 callgsubr
          222 -290 rmoveto
          172 138 36 callsubr
          -82 42 62 9 47 callsubr
          -608 -755 -104 callsubr
          -106 callsubr
          -105 callsubr
          -101 callsubr
        </CharString>
        <CharString name="abrevecyrillic">
          1148 795 205 callsubr
          -617 -808 -104 callsubr
          -106 callsubr
          -105 callsubr
          -101 callsubr
        </CharString>
        <CharString name="abrevedotbelow">
          1148 832 1146 rmoveto
          195 -68 callgsubr
          -21 -83 -47 callsubr
          1 12 callsubr
          -94 callgsubr
          158 vhcurveto
          -654 -800 -104 callsubr
          -106 callsubr
          -105 callsubr
          105 109 49 67 51 hvcurveto
          -32 callsubr
          24 callsubr
          144 -746 -35 callsubr
        </CharString>
        <CharString name="abrevegrave">
          28 callgsubr
          168 -545 rmoveto
          172 138 36 callsubr
          -82 42 62 9 47 callsubr
          -608 -755 -104 callsubr
          -106 callsubr
          -105 callsubr
          -101 callsubr
        </CharString>
        <CharString name="abrevehookabove">
          1148 878 1626 rmoveto
          -81 9 callgsubr
          -40 -29 -75 -19 rrcurveto
          24 callgsubr
          172 138 36 callsubr
          -82 42 62 9 47 callsubr
          -608 -755 -104 callsubr
          -106 callsubr
          -105 callsubr
          -101 callsubr
        </CharString>
        <CharString name="abrevetilde">
          215 callsubr
          -185 -315 rmoveto
          172 138 36 callsubr
          -82 42 62 9 47 callsubr
          -608 -755 -104 callsubr
          -106 callsubr
          -105 callsubr
          -101 callsubr
        </CharString>
        <CharString name="acaron">
          1148 1086 157 callsubr
          283 371 rlineto
          -983 -1160 -104 callsubr
          -106 callsubr
          -105 callsubr
          -101 callsubr
        </CharString>
        <CharString name="acircumflex">
          1148 575 -59 callsubr
          -56 callsubr
          -321 -774 -104 callsubr
          -106 callsubr
          -105 callsubr
          -101 callsubr
        </CharString>
        <CharString name="acircumflexacute">
          1148 1149 87 callgsubr
          -62 -294 -54 callsubr
          -338 -813 -104 callsubr
          -106 callsubr
          -105 callsubr
          -101 callsubr
        </CharString>
        <CharString name="acircumflexdotbelow">
          1148 575 -59 callsubr
          -56 callsubr
          -321 -774 -104 callsubr
          -106 callsubr
          -105 callsubr
          105 109 49 67 51 hvcurveto
          -32 callsubr
          24 callsubr
          144 -746 -35 callsubr
        </CharString>
        <CharString name="acircumflexgrave">
          28 callgsubr
          -116 -549 -54 callsubr
          -338 -813 -104 callsubr
          -106 callsubr
          -105 callsubr
          -101 callsubr
        </CharString>
        <CharString name="acircumflexhookabove">
          1148 1104 1626 rmoveto
          -80 -71 -52 callgsubr
          46 hhcurveto
          64 -67 callgsubr
          45 -88 callgsubr
          -602 -529 -54 callsubr
          -338 -813 -104 callsubr
          -106 callsubr
          -105 callsubr
          -101 callsubr
        </CharString>
        <CharString name="acircumflextilde">
          215 callsubr
          -469 -319 -54 callsubr
          -338 -813 -104 callsubr
          -106 callsubr
          -105 callsubr
          -101 callsubr
        </CharString>
        <CharString name="acute">
          1024 879 -78 callsubr
          endchar
        </CharString>
        <CharString name="acutecmb">
          0 367 -78 callsubr
          endchar
        </CharString>
        <CharString name="acutecmb.short">
          0 340 1377 rmoveto
          -201 -285 -81 callsubr
          endchar
        </CharString>
        <CharString name="acutedotaccentcmb">
          0 315 1376 rmoveto
          60 48 -91 callgsubr
          223 -174 -44 callgsubr
          endchar
        </CharString>
        <CharString name="acutedotaccentcmb.short">
          0 396 1763 rmoveto
          57 44 38 51 -1 hvcurveto
          52 -47 37 -58 -57 -44 -37 -52 1 vhcurveto
          -51 48 -38 57 vhcurveto
          237 -142 rmoveto
          30 136 -615 -165 -11 -52 rlineto
          endchar
        </CharString>
        <CharString name="acyrillic">
          1148 -46 callsubr
          -106 callsubr
          -105 callsubr
          -101 callsubr
        </CharString>
        <CharString name="adblgrave">
          1148 593 113 callsubr
          -234 58 callsubr
          -810 -772 -104 callsubr
          -106 callsubr
          -105 callsubr
          -101 callsubr
        </CharString>
        <CharString name="adieresis">
          1148 617 1179 rmoveto
          -6 callsubr
          44 callsubr
          -101 callgsubr
          -855 -833 -104 callsubr
          -106 callsubr
          -105 callsubr
          -101 callsubr
        </CharString>
        <CharString name="adieresismacron">
          1148 574 88 callgsubr
          21 -440 rmoveto
          56 55 14 callsubr
          -66 callsubr
          -55 -43 -57 -11 hvcurveto
          -57 -12 35 -42 58 hhcurveto
          344 hmoveto
          57 54 42 57 12 hvcurveto
          57 13 -36 -66 callsubr
          -55 -32 callgsubr
          -767 -775 -104 callsubr
          -106 callsubr
          -105 callsubr
          -101 callsubr
        </CharString>
        <CharString name="adotaccent">
          1148 824 -55 callsubr
          -646 -825 -104 callsubr
          -106 callsubr
          -105 callsubr
          -101 callsubr
        </CharString>
        <CharString name="adotbelow">
          1148 -46 callsubr
          -106 callsubr
          -105 callsubr
          105 109 49 67 51 hvcurveto
          -32 callsubr
          24 callsubr
          144 -746 -35 callsubr
        </CharString>
        <CharString name="adotmacron">
          1148 572 -30 callgsubr
          -634 -775 -104 callsubr
          -106 callsubr
          -105 callsubr
          -101 callsubr
        </CharString>
        <CharString name="ae">
          1501 257 784 124 callsubr
        </CharString>
        <CharString name="aeacute">
          1501 1120 -43 callsubr
          -44 callsubr
          -1158 -707 124 callsubr
        </CharString>
        <CharString name="aemacron">
          1501 726 -67 callsubr
          -42 callsubr
          -502 -588 124 callsubr
        </CharString>
        <CharString name="agrave">
          1148 797 94 callsubr
          -712 -772 -104 callsubr
          -106 callsubr
          -105 callsubr
          -101 callsubr
        </CharString>
        <CharString name="ahookabove">
          1148 869 -31 callsubr
          30 46 15 49 hhcurveto
          72 37 -31 -51 -58 -56 -59 -102 -57 hvcurveto
          74 225 callsubr
          -691 -1154 -104 callsubr
          -106 callsubr
          -105 callsubr
          -101 callsubr
        </CharString>
        <CharString name="ainvertedbreve">
          1148 833 147 callsubr
          -1 -11 -2 -7 hvcurveto
          64 226 callsubr
          -655 -1135 -104 callsubr
          -106 callsubr
          -105 callsubr
          -101 callsubr
        </CharString>
        <CharString name="alphagreek">
          1232 474 -20 170 callsubr
        </CharString>
        <CharString name="alphatonosgreek">
          1232 894 10 callsubr
          5 callsubr
          -681 -1537 170 callsubr
        </CharString>
        <CharString name="amacron">
          1148 525 -67 callsubr
          -42 callsubr
          -380 -1026 -104 callsubr
          -106 callsubr
          -105 callsubr
          -101 callsubr
        </CharString>
        <CharString name="ampersand">
          1501 132 335 rmoveto
          -202 153 -158 253 169 139 84 158 150 vhcurveto
          177 -217 361 0 11 47 -89 49 -80 84 -100 122 rlinecurve
          -98 121 159 198 136 166 49 33 110 17 rlinecurve
          12 59 -417 0 -12 -59 138 -16 19 -39 -101 -138 rlinecurve
          -130 -176 -282 349 -6 7 -6 7 -6 7 rlinecurve
          258 86 125 115 142 vvcurveto
          166 -137 122 -247 -262 -158 -162 -201 -3 vhcurveto
          -1 -101 38 -101 87 -125 rrcurveto
          -255 -82 -154 -146 -216 vvcurveto
          533 862 rmoveto
          121 72 70 106 110 55 -93 -115 -123 -68 -102 -134 -72 vhcurveto
          -106 140 -35 88 86 vvcurveto
          -281 -753 rmoveto
          145 94 86 99 55 vhcurveto
          14 -20 17 -20 17 -21 335 -409 rcurveline
          -79 -84 -81 -44 -102 hhcurveto
          -176 -133 130 177 hvcurveto
          endchar
        </CharString>
        <CharString name="anoteleiagreek">
          512 436 712 rmoveto
          88 71 69 89 83 -67 67 -89 -88 -71 -68 -90 -82 67 -68 89 hvcurveto
          endchar
        </CharString>
        <CharString name="aogonek">
          1148 -46 callsubr
          -106 callsubr
          -105 callsubr
          20 19 2 4 19 hvcurveto
          -195 -123 -74 -96 -97 vvcurveto
          -93 74 -60 105 87 72 40 54 35 vhcurveto
          12 58 rlineto
          -18 -21 -29 -10 -32 hhcurveto
          -46 -35 32 63 101 86 112 165 142 hvcurveto
          1 1 1 0 1 vvcurveto
          13 61 rlineto
          -64 callgsubr
          167 776 -149 0 -115 -102 rlineto
          62 -26 -76 59 -132 56 callgsubr
          101 338 205 -2 callgsubr
          endchar
        </CharString>
        <CharString name="approxequal">
          1207 1007 768 rmoveto
          -157 -104 216 -195 hhcurveto
          -148 -127 -103 -238 -39 hvcurveto
          99 -1 rlineto
          157 32 86 64 93 159 103 -217 194 hhcurveto
          147 127 104 236 39 hvcurveto
          -99 hlineto
          -154 -32 -87 -64 -91 hhcurveto
          -105 -492 rmoveto
          -158 -103 215 -195 hhcurveto
          -148 -128 -103 -238 -38 hvcurveto
          99 hlineto
          62 callgsubr
          128 103 237 38 hvcurveto
          -98 hlineto
          -155 -32 -88 -63 -91 hhcurveto
          endchar
        </CharString>
        <CharString name="aring">
          1148 567 199 callsubr
          -559 -930 -104 callsubr
          -106 callsubr
          -105 callsubr
          -101 callsubr
        </CharString>
        <CharString name="aringacute">
          1148 1150 1488 -44 callgsubr
          251 -301 rmoveto
          139 101 53 80 17 hvcurveto
          81 16 -78 52 -138 hhcurveto
          -63 hlineto
          -137 -103 -52 -81 -17 hvcurveto
          -80 -17 81 -53 136 hhcurveto
          65 60 rmoveto
          -41 hlineto
          -45 -20 31 42 9 hvcurveto
          43 10 33 30 44 hhcurveto
          41 hlineto
          46 19 -30 -43 -9 hvcurveto
          -42 -9 -33 -31 -45 hhcurveto
          -639 -806 -104 callsubr
          -106 callsubr
          -105 callsubr
          -101 callsubr
        </CharString>
        <CharString name="aringbelow">
          1148 -46 callsubr
          -106 callsubr
          -105 callsubr
          105 109 49 67 51 hvcurveto
          -32 callsubr
          24 callsubr
          -117 -632 rmoveto
          -104 2 111 -63 134 hhcurveto
          172 110 82 105 -3 hvcurveto
          104 -3 -111 62 -134 hhcurveto
          -172 -10 callgsubr
          -61 hhcurveto
          -48 -29 29 54 -2 hvcurveto
          endchar
        </CharString>
        <CharString name="asciicircum">
          1213 862 1444 rmoveto
          -537 -586 70 -64 501 526 277 -525 83 62 -287 587 rlineto
          endchar
        </CharString>
        <CharString name="asciitilde">
          1207 956 529 rmoveto
          -157 -103 216 -196 hhcurveto
          -148 -127 -104 -237 -39 hvcurveto
          99 -1 rlineto
          62 callgsubr
          127 103 237 39 hvcurveto
          -99 hlineto
          -154 -31 -87 -64 -92 hhcurveto
          endchar
        </CharString>
        <CharString name="asterisk">
          794 687 1473 rmoveto
          -57 -34 -39 -66 -18 0 -19 3 -28 hvcurveto
          23 -183 19 0 101 186 rlineto
          20 37 6 26 22 vvcurveto
          47 -34 35 -47 vhcurveto
          -288 -126 rmoveto
          -51 -32 -40 -44 -40 25 -36 76 -25 hvcurveto
          186 -63 11 16 -93 146 rlineto
          66 -42 -43 20 -37 hhcurveto
          516 -55 rmoveto
          -39 -30 -15 -47 -57 hvcurveto
          -140 -116 7 -17 187 17 rlineto
          111 7 44 39 54 vvcurveto
          45 -34 33 -49 vhcurveto
          -571 -399 rmoveto
          38 29 15 47 58 hvcurveto
          139 117 -7 17 -186 -18 rlineto
          -110 -8 -45 -38 -54 vvcurveto
          -45 34 -33 50 vhcurveto
          598 28 rmoveto
          40 -25 38 -76 23 vhcurveto
          -186 65 -10 -17 92 -146 rlineto
          -67 41 44 -19 37 hhcurveto
          51 32 40 43 hvcurveto
          -371 -210 rmoveto
          56 35 40 66 18 -1 19 -2 28 hvcurveto
          -24 183 -19 0 -99 -186 rlineto
          -21 -38 -5 -25 -22 vvcurveto
          -47 33 -36 47 vhcurveto
          endchar
        </CharString>
        <CharString name="at">
          2036 1474 -303 rmoveto
          61 vlineto
          -78 -130 -143 -22 -158 hhcurveto
          -409 -1 -324 293 467 vvcurveto
          551 419 376 491 436 309 -256 -411 -367 -236 -201 -179 -76 -36 47 100 21 vhcurveto
          153 713 -114 0 -139 -132 rlineto
          95 -30 -73 58 -112 hhcurveto
          -270 -186 -311 -306 -204 87 -128 155 122 114 87 166 73 hvcurveto
          -5 -25 -3 -27 -16 vvcurveto
          -136 -10 99 -79 157 hhcurveto
          314 265 277 398 443 -350 295 -488 -543 -457 -410 -604 -505 364 -328 444 167 178 40 80 103 hvcurveto
          -538 666 rmoveto
          229 107 310 165 73 45 -52 -84 4 vhcurveto
          -73 -346 rlineto
          -134 -29 -90 -120 -96 hhcurveto
          -80 -26 82 115 hvcurveto
          endchar
        </CharString>
        <CharString name="atilde">
          1148 944 103 callsubr
          123 callsubr
          11 callsubr
          122 callsubr
          102 callsubr
          105 callsubr
          -766 -821 -104 callsubr
          -106 callsubr
          -105 callsubr
          -101 callsubr
        </CharString>
        <CharString name="austral">
          1350 85 389 rmoveto
          232 hlineto
          -75 -137 -81 -150 -35 -29 -111 -14 rlinecurve
          -12 -59 391 0 14 59 -124 16 -19 31 75 144 rlinecurve
          73 139 509 0 16 -155 12 -124 -20 -34 -136 -17 rlinecurve
          -12 -59 558 0 13 59 -99 13 -24 29 -16 133 rlinecurve
          -18 155 234 0 12 54 -252 0 -27 225 327 0 11 54 -344 0 -85 726 -179 0 -395 -726 -342 0 -12 -54 325 0 -123 -225 rlineto
          -250 hlineto
          492 279 rmoveto
          251 477 49 -477 rlineto
          -447 -279 rmoveto
          119 225 334 0 23 -225 rlineto
          endchar
        </CharString>
        <CharString name="austral.tnum">
          1232 96 441 rmoveto
          -12 -54 209 0 -69 -135 -76 -150 -35 -30 -98 -13 rlinecurve
          -12 -59 363 0 13 59 -116 16 -14 27 72 148 rlinecurve
          67 137 444 0 10 -153 8 -125 -20 -34 -125 -16 rlinecurve
          -12 -59 536 0 13 59 -86 12 -22 29 -12 134 rlinecurve
          -13 153 203 0 12 54 -219 0 -20 224 287 0 11 55 -302 0 -62 728 -189 0 -369 -728 -305 0 -12 -55 290 0 -114 -224 rlineto
          231 279 rmoveto
          230 470 30 -470 rlineto
          -397 -279 rmoveto
          110 224 291 0 14 -224 rlineto
          endchar
        </CharString>
        <CharString name="b">
          161 callsubr
          endchar
        </CharString>
        <CharString name="backslash">
          706 484 -288 rmoveto
          118 hlineto
          -104 1876 rlineto
          -118 hlineto
          endchar
        </CharString>
        <CharString name="baht">
          -16 callgsubr
          159 -128 111 -262 27 rrcurveto
          48 225 -54 0 -47 -220 rlineto
          1 -27 -28 1 -30 hhcurveto
          -492 hlineto
          -13 -59 rlineto
          122 -16 14 -21 -19 -89 -216 -1014 rcurveline
          -19 -89 -22 -21 -128 -16 -13 -59 rcurveline
          522 hlineto
          19 18 0 1 18 hvcurveto
          -47 -220 54 0 47 222 rlineto
          384 25 232 155 242 vvcurveto
          -557 892 rmoveto
          84 -3 rlineto
          29 -1 27 -4 24 -5 -114 -536 rcurveline
          -1 -13 -14 -1 -13 hhcurveto
          -127 hlineto
          465 307 rmoveto
          -146 -85 -117 -157 -34 vhcurveto
          109 512 rlineto
          89 -36 44 -74 -105 vvcurveto
          -479 -375 rmoveto
          125 -1 rlineto
          14 13 -1 -2 13 hvcurveto
          -132 -619 rlineto
          -25 -3 -26 -2 -28 -1 -89 -2 rcurveline
          535 354 rmoveto
          -164 -94 -130 -217 -43 vhcurveto
          128 600 rlineto
          119 -34 64 -98 -131 vvcurveto
          endchar
        </CharString>
        <CharString name="baht.tnum">
          -13 callgsubr
          155 -118 107 -243 27 vhcurveto
          48 225 -54 0 -47 -220 rlineto
          1 -25 -27 1 -28 hhcurveto
          -470 hlineto
          -13 -59 rlineto
          117 -15 14 -22 -19 -89 -216 -1014 rcurveline
          -19 -89 -21 -21 -124 -16 -13 -59 rcurveline
          507 hlineto
          15 14 0 1 14 hvcurveto
          -47 -220 54 0 48 222 rlineto
          365 23 222 156 243 vvcurveto
          -519 892 rmoveto
          79 -3 rlineto
          27 -1 26 -3 23 -5 -114 -537 rcurveline
          -1 -13 -12 -1 -13 hhcurveto
          -119 hlineto
          438 317 rmoveto
          -148 -80 -121 -146 -36 vhcurveto
          109 510 rlineto
          78 -36 39 -71 -98 vvcurveto
          -452 -385 rmoveto
          114 -1 rlineto
          14 14 -1 -2 13 hvcurveto
          -132 -620 rlineto
          -22 -2 -23 -2 -24 -1 -90 -2 rcurveline
          508 367 rmoveto
          -168 -92 -138 -201 -44 vhcurveto
          127 598 rlineto
          109 -35 57 -93 -120 vvcurveto
          endchar
        </CharString>
        <CharString name="bar">
          706 233 -288 rmoveto
          118 hlineto
          398 1876 rlineto
          -118 hlineto
          endchar
        </CharString>
        <CharString name="bdotaccent">
          1146 668 1621 rmoveto
          81 65 64 79 75 -58 57 -77 -81 -65 -63 -80 -74 58 -58 77 hvcurveto
          512 -973 rmoveto
          229 -115 136 184 callsubr
          endchar
        </CharString>
        <CharString name="bdotbelow">
          161 callsubr
          -359 -1077 -72 callsubr
          -61 -57 -72 1 vhcurveto
          -67 55 -52 72 vhcurveto
          endchar
        </CharString>
        <CharString name="becyrillic">
          1151 1171 559 rmoveto
          241 -147 197 -250 -211 -163 -131 -193 -80 vhcurveto
          9 305 109 187 371 26 11 2 101 6 13 1 269 17 97 85 45 210 rrcurveto
          -59 hlineto
          -22 -51 -65 -18 -161 -7 rrcurveto
          -558 -19 -280 -417 -523 vvcurveto
          -319 155 -179 265 336 215 272 308 vhcurveto
          -272 97 rmoveto
          -254 -97 -346 -178 -101 -53 92 174 255 96 345 180 99 54 -93 -173 vhcurveto
          endchar
        </CharString>
        <CharString name="betagreek">
          1177 41 -460 rmoveto
          280 hlineto
          102 566 rlineto
          -70 50 110 -56 123 hhcurveto
          289 193 202 254 13 hvcurveto
          15 217 -117 173 -236 25 240 46 121 133 8 172 rrcurveto
          188 10 -136 121 -237 hhcurveto
          -273 -167 -162 -349 -75 hvcurveto
          285 115 rmoveto
          211 46 51 103 123 hhcurveto
          87 56 -70 -154 -9 hvcurveto
          -9 -185 -90 -128 -197 -5 rrcurveto
          -39 -184 191 -7 91 -100 -7 -197 rlinecurve
          -200 -7 -130 -120 -156 hhcurveto
          -84 -70 35 63 -49 hvcurveto
          38 183 157 726 7 29 rrcurveto
          endchar
        </CharString>
</ttFont>
